  0
SECTION
  2
HEADER
  9
$ACADVER
  1
AC1006
  9
$EXTMIN
 10
0.000000
 20
0.000000
 30
0.000000
  9
$EXTMAX
 10
3300.000000
 20
4200.000000
 30
0.000000
  0
ENDSEC
  0
SECTION
  2
ENTITIES
  0
POLYLINE
  8
0
 66
1
 70
1
  0
VERTEX
  8
0
 10
1647.264038
 20
3605.250000
 42
0.023121
  0
VERTEX
  8
0
 10
1642.785500
 20
3597.111032
 42
0.001030
  0
VERTEX
  8
0
 10
1628.670360
 20
3568.241355
 42
0.001686
  0
VERTEX
  8
0
 10
1615.127114
 20
3540.155812
 42
0.009501
  0
VERTEX
  8
0
 10
1608.232294
 20
3525.000000
 42
0.010555
  0
VERTEX
  8
0
 10
1600.764069
 20
3506.666797
 42
0.019140
  0
VERTEX
  8
0
 10
1595.556762
 20
3491.336730
 42
0.022911
  0
VERTEX
  8
0
 10
1592.213125
 20
3477.869705
 42
0.029879
  0
VERTEX
  8
0
 10
1590.469174
 20
3465.295097
 42
0.055947
  0
VERTEX
  8
0
 10
1591.021253
 20
3448.922964
 42
0.076080
  0
VERTEX
  8
0
 10
1595.345444
 20
3434.811800
 42
0.079145
  0
VERTEX
  8
0
 10
1603.518189
 20
3423.047889
 42
0.066600
  0
VERTEX
  8
0
 10
1615.398597
 20
3413.584229
 42
-0.012910
  0
VERTEX
  8
0
 10
1617.744029
 20
3412.095845
 42
-0.034466
  0
VERTEX
  8
0
 10
1619.307799
 20
3410.881725
 42
-0.066889
  0
VERTEX
  8
0
 10
1620.052303
 20
3410.012256
 42
-0.486260
  0
VERTEX
  8
0
 10
1619.898597
 20
3409.564454
 42
-0.017800
  0
VERTEX
  8
0
 10
1618.978428
 20
3409.280453
 42
-0.001407
  0
VERTEX
  8
0
 10
1616.507957
 20
3408.620729
 42
-0.001909
  0
VERTEX
  8
0
 10
1613.554935
 20
3407.853087
 42
-0.001461
  0
VERTEX
  8
0
 10
1610.319979
 20
3407.035394
 42
0.021451
  0
VERTEX
  8
0
 10
1596.556103
 20
3402.964680
 42
0.017041
  0
VERTEX
  8
0
 10
1582.073098
 20
3397.438197
 42
0.017331
  0
VERTEX
  8
0
 10
1568.381295
 20
3391.104623
 42
0.026572
  0
VERTEX
  8
0
 10
1557.048050
 20
3384.599704
 42
0.033244
  0
VERTEX
  8
0
 10
1549.293329
 20
3378.818095
 42
0.016442
  0
VERTEX
  8
0
 10
1540.219425
 20
3370.532839
 42
0.016415
  0
VERTEX
  8
0
 10
1531.767768
 20
3361.730747
 42
0.035705
  0
VERTEX
  8
0
 10
1526.021818
 20
3354.340688
 42
0.049705
  0
VERTEX
  8
0
 10
1518.889657
 20
3340.974970
 42
0.038455
  0
VERTEX
  8
0
 10
1513.789116
 20
3325.267298
 42
0.036265
  0
VERTEX
  8
0
 10
1511.430056
 20
3311.065190
 42
0.236079
  0
VERTEX
  8
0
 10
1513.981884
 20
3304.516395
 42
0.120938
  0
VERTEX
  8
0
 10
1515.678625
 20
3303.600760
 42
0.082492
  0
VERTEX
  8
0
 10
1517.871366
 20
3303.403897
 42
0.027963
  0
VERTEX
  8
0
 10
1521.708898
 20
3303.909442
 42
0.002244
  0
VERTEX
  8
0
 10
1531.731884
 20
3305.851428
 42
-0.007821
  0
VERTEX
  8
0
 10
1554.623770
 20
3310.022471
 42
-0.007984
  0
VERTEX
  8
0
 10
1577.478378
 20
3313.444384
 42
-0.008004
  0
VERTEX
  8
0
 10
1600.371717
 20
3316.126975
 42
-0.007962
  0
VERTEX
  8
0
 10
1623.379753
 20
3318.080743
 42
-0.015578
  0
VERTEX
  8
0
 10
1642.093375
 20
3318.785381
 42
-0.004349
  0
VERTEX
  8
0
 10
1671.404858
 20
3318.720453
 42
-0.004039
  0
VERTEX
  8
0
 10
1700.453589
 20
3318.168757
 42
-0.020822
  0
VERTEX
  8
0
 10
1716.500000
 20
3317.064547
 42
-0.012713
  0
VERTEX
  8
0
 10
1736.910272
 20
3314.276329
 42
-0.012253
  0
VERTEX
  8
0
 10
1757.406366
 20
3310.425878
 42
-0.012734
  0
VERTEX
  8
0
 10
1776.711911
 20
3305.790000
 42
-0.018363
  0
VERTEX
  8
0
 10
1793.500000
 20
3300.636207
 42
-0.002382
  0
VERTEX
  8
0
 10
1804.505245
 20
3296.751372
 42
-0.042859
  0
VERTEX
  8
0
 10
1807.903719
 20
3295.193695
 42
-0.137064
  0
VERTEX
  8
0
 10
1809.505865
 20
3293.583610
 42
-0.086852
  0
VERTEX
  8
0
 10
1810.387513
 20
3291.069067
 42
-0.023229
  0
VERTEX
  8
0
 10
1810.844376
 20
3287.199055
 42
-0.020616
  0
VERTEX
  8
0
 10
1810.965338
 20
3283.145516
 42
-0.012347
  0
VERTEX
  8
0
 10
1810.835572
 20
3279.551208
 42
-0.396796
  0
VERTEX
  8
0
 10
1810.250000
 20
3279.000714
 42
-0.060235
  0
VERTEX
  8
0
 10
1809.707253
 20
3279.066861
 42
-0.001268
  0
VERTEX
  8
0
 10
1807.076563
 20
3279.722183
 42
-0.002925
  0
VERTEX
  8
0
 10
1804.003162
 20
3280.515217
 42
-0.001965
  0
VERTEX
  8
0
 10
1800.500000
 20
3281.455776
 42
0.015287
  0
VERTEX
  8
0
 10
1775.077309
 20
3287.560303
 42
0.011041
  0
VERTEX
  8
0
 10
1746.409380
 20
3292.866076
 42
0.010676
  0
VERTEX
  8
0
 10
1716.299814
 20
3297.096061
 42
0.011185
  0
VERTEX
  8
0
 10
1686.500000
 20
3299.961231
 42
0.013638
  0
VERTEX
  8
0
 10
1669.777707
 20
3300.734527
 42
0.004777
  0
VERTEX
  8
0
 10
1645.717334
 20
3300.960278
 42
0.004675
  0
VERTEX
  8
0
 10
1621.867854
 20
3300.733196
 42
0.015788
  0
VERTEX
  8
0
 10
1606.304468
 20
3299.947450
 42
0.017695
  0
VERTEX
  8
0
 10
1572.311637
 20
3295.938158
 42
0.021916
  0
VERTEX
  8
0
 10
1541.059826
 20
3289.713248
 42
0.023485
  0
VERTEX
  8
0
 10
1512.476214
 20
3281.264470
 42
0.028041
  0
VERTEX
  8
0
 10
1486.500000
 20
3270.573874
 42
0.015490
  0
VERTEX
  8
0
 10
1470.205383
 20
3262.143025
 42
0.025373
  0
VERTEX
  8
0
 10
1457.034294
 20
3253.900367
 42
0.025704
  0
VERTEX
  8
0
 10
1444.884805
 20
3244.445428
 42
0.016435
  0
VERTEX
  8
0
 10
1431.738719
 20
3232.306672
 42
0.011884
  0
VERTEX
  8
0
 10
1423.412530
 20
3223.695640
 42
0.018216
  0
VERTEX
  8
0
 10
1416.660578
 20
3215.814558
 42
0.019669
  0
VERTEX
  8
0
 10
1410.892330
 20
3207.946779
 42
0.017854
  0
VERTEX
  8
0
 10
1405.560612
 20
3199.396874
 42
0.031948
  0
VERTEX
  8
0
 10
1396.315593
 20
3180.643382
 42
0.030214
  0
VERTEX
  8
0
 10
1389.337581
 20
3160.516233
 42
0.028788
  0
VERTEX
  8
0
 10
1384.570437
 20
3138.765531
 42
0.023708
  0
VERTEX
  8
0
 10
1381.943207
 20
3115.149931
 42
0.021486
  0
VERTEX
  8
0
 10
1381.476469
 20
3092.299608
 42
0.007807
  0
VERTEX
  8
0
 10
1382.712989
 20
3059.907176
 42
0.007926
  0
VERTEX
  8
0
 10
1385.083241
 20
3025.916546
 42
0.012733
  0
VERTEX
  8
0
 10
1388.299777
 20
2997.041222
 42
-0.193426
  0
VERTEX
  8
0
 10
1388.131051
 20
2996.368469
 42
-0.180530
  0
VERTEX
  8
0
 10
1387.537868
 20
2995.974967
 42
-0.069997
  0
VERTEX
  8
0
 10
1386.303254
 20
2995.865116
 42
-0.012645
  0
VERTEX
  8
0
 10
1384.000000
 20
2996.041222
 42
0.017859
  0
VERTEX
  8
0
 10
1377.262035
 20
2996.485800
 42
0.030324
  0
VERTEX
  8
0
 10
1371.616487
 20
2996.313796
 42
0.036563
  0
VERTEX
  8
0
 10
1366.948643
 20
2995.540467
 42
0.060334
  0
VERTEX
  8
0
 10
1363.208735
 20
2994.142159
 42
0.116416
  0
VERTEX
  8
0
 10
1352.415426
 20
2984.863025
 42
0.077701
  0
VERTEX
  8
0
 10
1344.946063
 20
2970.296402
 42
0.066413
  0
VERTEX
  8
0
 10
1341.470017
 20
2951.833291
 42
0.049911
  0
VERTEX
  8
0
 10
1342.427305
 20
2931.162971
 42
0.027961
  0
VERTEX
  8
0
 10
1345.492671
 20
2916.189213
 42
0.031906
  0
VERTEX
  8
0
 10
1350.115485
 20
2902.314890
 42
0.025983
  0
VERTEX
  8
0
 10
1357.269110
 20
2887.015227
 42
0.011050
  0
VERTEX
  8
0
 10
1368.344346
 20
2867.281165
 42
-0.032843
  0
VERTEX
  8
0
 10
1386.155921
 20
2832.029788
 42
-0.024548
  0
VERTEX
  8
0
 10
1401.214356
 20
2791.171672
 42
-0.020619
  0
VERTEX
  8
0
 10
1414.389154
 20
2742.196485
 42
-0.011703
  0
VERTEX
  8
0
 10
1426.475771
 20
2682.000000
 42
0.011790
  0
VERTEX
  8
0
 10
1432.845505
 20
2650.304392
 42
0.026572
  0
VERTEX
  8
0
 10
1439.498064
 20
2626.729183
 42
0.035257
  0
VERTEX
  8
0
 10
1446.830030
 20
2609.321951
 42
0.072224
  0
VERTEX
  8
0
 10
1455.334525
 20
2597.239806
 42
0.040727
  0
VERTEX
  8
0
 10
1461.235660
 20
2591.938993
 42
0.067515
  0
VERTEX
  8
0
 10
1467.048150
 20
2588.644675
 42
0.078887
  0
VERTEX
  8
0
 10
1472.833507
 20
2587.330582
 42
0.082420
  0
VERTEX
  8
0
 10
1478.649941
 20
2587.905739
 42
0.148410
  0
VERTEX
  8
0
 10
1492.514566
 20
2596.553851
 42
0.073570
  0
VERTEX
  8
0
 10
1503.835525
 20
2614.156073
 42
0.062886
  0
VERTEX
  8
0
 10
1511.050410
 20
2637.557276
 42
0.053445
  0
VERTEX
  8
0
 10
1512.773872
 20
2663.369724
 42
0.024691
  0
VERTEX
  8
0
 10
1511.843325
 20
2673.740181
 42
0.043420
  0
VERTEX
  8
0
 10
1509.918842
 20
2682.123664
 42
0.040190
  0
VERTEX
  8
0
 10
1506.459735
 20
2690.473021
 42
0.018067
  0
VERTEX
  8
0
 10
1500.669603
 20
2700.842946
 42
-0.008607
  0
VERTEX
  8
0
 10
1494.058275
 20
2712.174594
 42
-0.005005
  0
VERTEX
  8
0
 10
1486.495221
 20
2725.988172
 42
-0.004912
  0
VERTEX
  8
0
 10
1478.924244
 20
2740.491862
 42
-0.006287
  0
VERTEX
  8
0
 10
1472.253542
 20
2754.000000
 42
-0.017111
  0
VERTEX
  8
0
 10
1449.958382
 20
2805.030596
 42
-0.017918
  0
VERTEX
  8
0
 10
1431.574338
 20
2856.696678
 42
-0.017514
  0
VERTEX
  8
0
 10
1416.589315
 20
2910.632151
 42
-0.014889
  0
VERTEX
  8
0
 10
1404.489586
 20
2968.478529
 42
0.000000
  0
VERTEX
  8
0
 10
1403.958588
 20
2971.457058
 42
0.000000
  0
VERTEX
  8
0
 10
1408.576829
 20
2966.978529
 42
-0.031762
  0
VERTEX
  8
0
 10
1416.632718
 20
2958.107018
 42
-0.015074
  0
VERTEX
  8
0
 10
1425.900860
 20
2945.752110
 42
-0.014065
  0
VERTEX
  8
0
 10
1435.455317
 20
2931.337098
 42
-0.012921
  0
VERTEX
  8
0
 10
1444.469651
 20
2916.000000
 42
0.007375
  0
VERTEX
  8
0
 10
1448.935683
 20
2908.204773
 42
0.034992
  0
VERTEX
  8
0
 10
1451.859081
 20
2903.976936
 42
0.066922
  0
VERTEX
  8
0
 10
1454.204447
 20
2901.737846
 42
0.158450
  0
VERTEX
  8
0
 10
1456.474314
 20
2901.000000
 42
0.184455
  0
VERTEX
  8
0
 10
1459.334040
 20
2902.092143
 42
0.175375
  0
VERTEX
  8
0
 10
1460.812964
 20
2904.838610
 42
0.080127
  0
VERTEX
  8
0
 10
1460.746824
 20
2909.859484
 42
0.019227
  0
VERTEX
  8
0
 10
1458.991729
 20
2918.032394
 42
-0.027839
  0
VERTEX
  8
0
 10
1454.316977
 20
2941.786052
 42
-0.026736
  0
VERTEX
  8
0
 10
1452.228923
 20
2966.235738
 42
-0.027391
  0
VERTEX
  8
0
 10
1452.779046
 20
2990.117595
 42
-0.033722
  0
VERTEX
  8
0
 10
1456.003297
 20
3012.164319
 42
-0.087133
  0
VERTEX
  8
0
 10
1476.566518
 20
3062.697398
 42
-0.080547
  0
VERTEX
  8
0
 10
1513.562395
 20
3104.790523
 42
-0.074624
  0
VERTEX
  8
0
 10
1564.718073
 20
3135.457552
 42
-0.060291
  0
VERTEX
  8
0
 10
1626.500000
 20
3152.598334
 42
-0.026559
  0
VERTEX
  8
0
 10
1640.481561
 20
3153.960127
 42
-0.008937
  0
VERTEX
  8
0
 10
1660.973114
 20
3154.495377
 42
-0.008863
  0
VERTEX
  8
0
 10
1681.396743
 20
3154.301664
 42
-0.028164
  0
VERTEX
  8
0
 10
1695.000000
 20
3153.162837
 42
-0.041708
  0
VERTEX
  8
0
 10
1738.823293
 20
3143.215571
 42
-0.052526
  0
VERTEX
  8
0
 10
1776.934851
 20
3126.581864
 42
-0.056182
  0
VERTEX
  8
0
 10
1808.664760
 20
3103.508934
 42
-0.060496
  0
VERTEX
  8
0
 10
1833.577658
 20
3074.464636
 42
-0.058802
  0
VERTEX
  8
0
 10
1851.315844
 20
3039.602138
 42
-0.055266
  0
VERTEX
  8
0
 10
1860.917886
 20
3000.831689
 42
-0.050324
  0
VERTEX
  8
0
 10
1862.291021
 20
2957.661903
 42
-0.035764
  0
VERTEX
  8
0
 10
1855.516574
 20
2909.680992
 42
0.004371
  0
VERTEX
  8
0
 10
1854.249352
 20
2903.525107
 42
0.006554
  0
VERTEX
  8
0
 10
1853.260766
 20
2898.128252
 42
0.003038
  0
VERTEX
  8
0
 10
1852.510398
 20
2893.536522
 42
0.131326
  0
VERTEX
  8
0
 10
1852.612877
 20
2892.566442
 42
0.151506
  0
VERTEX
  8
0
 10
1853.642113
 20
2891.259635
 42
0.052197
  0
VERTEX
  8
0
 10
1855.778648
 20
2890.096208
 42
0.052134
  0
VERTEX
  8
0
 10
1858.158851
 20
2889.385491
 42
0.123960
  0
VERTEX
  8
0
 10
1859.989597
 20
2889.496698
 42
0.138401
  0
VERTEX
  8
0
 10
1860.779099
 20
2890.016652
 42
0.033390
  0
VERTEX
  8
0
 10
1861.731504
 20
2891.278362
 42
0.031748
  0
VERTEX
  8
0
 10
1862.668614
 20
2892.928924
 42
0.026894
  0
VERTEX
  8
0
 10
1863.448312
 20
2894.777615
 42
-0.022180
  0
VERTEX
  8
0
 10
1870.700606
 20
2912.435950
 42
-0.028234
  0
VERTEX
  8
0
 10
1878.995199
 20
2927.967943
 42
-0.028959
  0
VERTEX
  8
0
 10
1888.796071
 20
2942.145590
 42
-0.025536
  0
VERTEX
  8
0
 10
1900.565453
 20
2955.733096
 42
-0.010263
  0
VERTEX
  8
0
 10
1906.204139
 20
2961.371717
 42
-0.635144
  0
VERTEX
  8
0
 10
1907.219378
 20
2960.981614
 42
-0.081982
  0
VERTEX
  8
0
 10
1906.958117
 20
2958.130405
 42
-0.000835
  0
VERTEX
  8
0
 10
1901.810976
 20
2938.517187
 42
-0.008499
  0
VERTEX
  8
0
 10
1890.678649
 20
2899.108964
 42
-0.006428
  0
VERTEX
  8
0
 10
1877.170786
 20
2856.228016
 42
-0.006047
  0
VERTEX
  8
0
 10
1861.601803
 20
2810.792061
 42
-0.005292
  0
VERTEX
  8
0
 10
1844.251811
 20
2763.671144
 42
0.001992
  0
VERTEX
  8
0
 10
1838.524836
 20
2748.428306
 42
0.012254
  0
VERTEX
  8
0
 10
1835.800346
 20
2740.497652
 42
0.020140
  0
VERTEX
  8
0
 10
1834.468078
 20
2735.610222
 42
0.141435
  0
VERTEX
  8
0
 10
1834.602745
 20
2733.171144
 42
0.054370
  0
VERTEX
  8
0
 10
1835.223881
 20
2731.868022
 42
0.098647
  0
VERTEX
  8
0
 10
1836.025642
 20
2731.007537
 42
0.091028
  0
VERTEX
  8
0
 10
1837.143170
 20
2730.478014
 42
0.041055
  0
VERTEX
  8
0
 10
1838.745257
 20
2730.188342
 42
0.162708
  0
VERTEX
  8
0
 10
1841.552709
 20
2730.833196
 42
0.113624
  0
VERTEX
  8
0
 10
1843.892898
 20
2733.123582
 42
0.043595
  0
VERTEX
  8
0
 10
1846.516372
 20
2738.129257
 42
0.005454
  0
VERTEX
  8
0
 10
1851.120052
 20
2749.500000
 42
0.007869
  0
VERTEX
  8
0
 10
1871.129639
 20
2802.975744
 42
0.007064
  0
VERTEX
  8
0
 10
1890.207804
 20
2859.005746
 42
0.007290
  0
VERTEX
  8
0
 10
1906.890515
 20
2913.036323
 42
0.011197
  0
VERTEX
  8
0
 10
1919.595939
 20
2960.320127
 42
0.000000
  0
VERTEX
  8
0
 10
1923.469262
 20
2976.140254
 42
0.000000
  0
VERTEX
  8
0
 10
1928.984631
 20
2979.465828
 42
-0.024537
  0
VERTEX
  8
0
 10
1934.272117
 20
2982.310145
 42
-0.031870
  0
VERTEX
  8
0
 10
1939.378554
 20
2984.354153
 42
-0.034917
  0
VERTEX
  8
0
 10
1944.266926
 20
2985.587914
 42
-0.044384
  0
VERTEX
  8
0
 10
1948.900089
 20
2986.000000
 42
-0.121390
  0
VERTEX
  8
0
 10
1955.095147
 20
2984.473473
 42
-0.153512
  0
VERTEX
  8
0
 10
1959.234837
 20
2980.313515
 42
-0.094160
  0
VERTEX
  8
0
 10
1961.496232
 20
2972.750476
 42
-0.027633
  0
VERTEX
  8
0
 10
1962.074642
 20
2960.589365
 42
-0.037579
  0
VERTEX
  8
0
 10
1960.422961
 20
2940.698595
 42
-0.026801
  0
VERTEX
  8
0
 10
1955.727974
 20
2918.838364
 42
-0.015594
  0
VERTEX
  8
0
 10
1946.412166
 20
2888.327052
 42
-0.003337
  0
VERTEX
  8
0
 10
1928.243414
 20
2836.000000
 42
0.002900
  0
VERTEX
  8
0
 10
1914.126781
 20
2795.457735
 42
0.006089
  0
VERTEX
  8
0
 10
1903.724367
 20
2763.758688
 42
0.007537
  0
VERTEX
  8
0
 10
1896.401695
 20
2739.205433
 42
0.022386
  0
VERTEX
  8
0
 10
1892.397602
 20
2722.104411
 42
0.017061
  0
VERTEX
  8
0
 10
1891.774040
 20
2718.009476
 42
0.007995
  0
VERTEX
  8
0
 10
1891.233472
 20
2712.675874
 42
0.007911
  0
VERTEX
  8
0
 10
1890.844329
 20
2707.060975
 42
0.011004
  0
VERTEX
  8
0
 10
1890.686273
 20
2702.023645
 42
0.011146
  0
VERTEX
  8
0
 10
1890.775528
 20
2695.121868
 42
0.025645
  0
VERTEX
  8
0
 10
1891.224067
 20
2689.949481
 42
0.021666
  0
VERTEX
  8
0
 10
1892.248767
 20
2684.353437
 42
0.006015
  0
VERTEX
  8
0
 10
1894.339367
 20
2675.677632
 42
-0.016653
  0
VERTEX
  8
0
 10
1897.162300
 20
2662.762269
 42
-0.037937
  0
VERTEX
  8
0
 10
1898.218208
 20
2652.842559
 42
-0.046629
  0
VERTEX
  8
0
 10
1897.675506
 20
2644.237166
 42
-0.041949
  0
VERTEX
  8
0
 10
1895.551658
 20
2635.559150
 42
-0.018271
  0
VERTEX
  8
0
 10
1893.035553
 20
2628.882786
 42
-0.032185
  0
VERTEX
  8
0
 10
1890.412769
 20
2623.606184
 42
-0.037436
  0
VERTEX
  8
0
 10
1887.463258
 20
2619.299310
 42
-0.040214
  0
VERTEX
  8
0
 10
1883.968195
 20
2615.590231
 42
-0.033847
  0
VERTEX
  8
0
 10
1880.757212
 20
2613.061732
 42
-0.069452
  0
VERTEX
  8
0
 10
1877.894726
 20
2611.641046
 42
-0.076829
  0
VERTEX
  8
0
 10
1874.947980
 20
2611.139300
 42
-0.050228
  0
VERTEX
  8
0
 10
1871.506631
 20
2611.432778
 42
-0.180709
  0
VERTEX
  8
0
 10
1863.198975
 20
2616.446629
 42
-0.042173
  0
VERTEX
  8
0
 10
1854.042796
 20
2630.242561
 42
-0.036806
  0
VERTEX
  8
0
 10
1845.280638
 20
2649.446044
 42
-0.024599
  0
VERTEX
  8
0
 10
1838.015162
 20
2672.500000
 42
0.001895
  0
VERTEX
  8
0
 10
1836.700863
 20
2677.442539
 42
0.001901
  0
VERTEX
  8
0
 10
1835.350389
 20
2682.370154
 42
0.001856
  0
VERTEX
  8
0
 10
1834.140006
 20
2686.659903
 42
0.007592
  0
VERTEX
  8
0
 10
1833.356228
 20
2689.249462
 42
0.043978
  0
VERTEX
  8
0
 10
1831.854449
 20
2692.831555
 42
0.090214
  0
VERTEX
  8
0
 10
1829.983285
 20
2695.218641
 42
0.134893
  0
VERTEX
  8
0
 10
1827.924229
 20
2696.233319
 42
0.171938
  0
VERTEX
  8
0
 10
1825.845566
 20
2695.917349
 42
0.093306
  0
VERTEX
  8
0
 10
1824.732680
 20
2695.022049
 42
0.003957
  0
VERTEX
  8
0
 10
1821.464149
 20
2691.136308
 42
0.006681
  0
VERTEX
  8
0
 10
1817.670088
 20
2686.425912
 42
0.004693
  0
VERTEX
  8
0
 10
1813.521267
 20
2681.028213
 42
-0.023115
  0
VERTEX
  8
0
 10
1782.556627
 20
2643.674753
 42
-0.033384
  0
VERTEX
  8
0
 10
1751.640952
 20
2613.955066
 42
-0.037977
  0
VERTEX
  8
0
 10
1720.784905
 20
2591.785865
 42
-0.052534
  0
VERTEX
  8
0
 10
1690.000000
 20
2577.212819
 42
-0.037356
  0
VERTEX
  8
0
 10
1673.046326
 20
2572.657716
 42
-0.039133
  0
VERTEX
  8
0
 10
1655.866330
 20
2570.767610
 42
-0.040140
  0
VERTEX
  8
0
 10
1639.023447
 20
2571.591665
 42
-0.044130
  0
VERTEX
  8
0
 10
1623.072252
 20
2575.113925
 42
-0.047914
  0
VERTEX
  8
0
 10
1605.599882
 20
2582.527627
 42
-0.036742
  0
VERTEX
  8
0
 10
1588.134063
 20
2593.734790
 42
-0.033486
  0
VERTEX
  8
0
 10
1570.936218
 20
2608.543462
 42
-0.026033
  0
VERTEX
  8
0
 10
1554.269580
 20
2626.763337
 42
0.005738
  0
VERTEX
  8
0
 10
1550.893461
 20
2630.768952
 42
0.007723
  0
VERTEX
  8
0
 10
1547.740262
 20
2634.311986
 42
0.005533
  0
VERTEX
  8
0
 10
1545.031653
 20
2637.197659
 42
0.078807
  0
VERTEX
  8
0
 10
1543.909339
 20
2638.048520
 42
0.188899
  0
VERTEX
  8
0
 10
1540.990818
 20
2638.394508
 42
0.162994
  0
VERTEX
  8
0
 10
1538.391703
 20
2636.697042
 42
0.107900
  0
VERTEX
  8
0
 10
1536.597847
 20
2633.022346
 42
0.059863
  0
VERTEX
  8
0
 10
1536.000000
 20
2628.046767
 42
-0.077085
  0
VERTEX
  8
0
 10
1534.392376
 20
2617.681072
 42
-0.025238
  0
VERTEX
  8
0
 10
1528.957312
 20
2603.162172
 42
-0.023807
  0
VERTEX
  8
0
 10
1521.019905
 20
2586.990039
 42
-0.021242
  0
VERTEX
  8
0
 10
1511.296449
 20
2571.000000
 42
0.003512
  0
VERTEX
  8
0
 10
1507.794794
 20
2565.676300
 42
0.004868
  0
VERTEX
  8
0
 10
1504.735792
 20
2560.851352
 42
0.003090
  0
VERTEX
  8
0
 10
1502.233591
 20
2556.762160
 42
0.059688
  0
VERTEX
  8
0
 10
1501.623205
 20
2555.408857
 42
0.184021
  0
VERTEX
  8
0
 10
1501.756610
 20
2553.169077
 42
0.053006
  0
VERTEX
  8
0
 10
1503.539557
 20
2550.121699
 42
0.038506
  0
VERTEX
  8
0
 10
1506.754167
 20
2546.398779
 42
0.016900
  0
VERTEX
  8
0
 10
1511.533970
 20
2541.965831
 42
0.064899
  0
VERTEX
  8
0
 10
1532.548319
 20
2528.066784
 42
0.033232
  0
VERTEX
  8
0
 10
1561.851019
 20
2516.080063
 42
0.028326
  0
VERTEX
  8
0
 10
1598.213569
 20
2506.203277
 42
0.018573
  0
VERTEX
  8
0
 10
1641.000000
 20
2498.795117
 42
0.010383
  0
VERTEX
  8
0
 10
1651.677657
 20
2497.577578
 42
0.013447
  0
VERTEX
  8
0
 10
1661.513115
 20
2496.928685
 42
0.008148
  0
VERTEX
  8
0
 10
1674.551647
 20
2496.632760
 42
0.001517
  0
VERTEX
  8
0
 10
1698.500000
 20
2496.552213
 42
0.001372
  0
VERTEX
  8
0
 10
1722.676309
 20
2496.610572
 42
0.008496
  0
VERTEX
  8
0
 10
1735.089674
 20
2496.885568
 42
0.015481
  0
VERTEX
  8
0
 10
1743.943652
 20
2497.507257
 42
0.014153
  0
VERTEX
  8
0
 10
1753.012555
 20
2498.687032
 42
0.020082
  0
VERTEX
  8
0
 10
1785.330738
 20
2505.165123
 42
0.032107
  0
VERTEX
  8
0
 10
1812.198610
 20
2513.540426
 42
0.037277
  0
VERTEX
  8
0
 10
1834.509789
 20
2524.068307
 42
0.048389
  0
VERTEX
  8
0
 10
1853.005369
 20
2537.053377
 42
0.000000
  0
VERTEX
  8
0
 10
1858.510737
 20
2541.774033
 42
0.000000
  0
VERTEX
  8
0
 10
1864.838538
 20
2539.482792
 42
-0.062594
  0
VERTEX
  8
0
 10
1873.989936
 20
2534.806186
 42
-0.056827
  0
VERTEX
  8
0
 10
1882.035228
 20
2527.877213
 42
-0.055180
  0
VERTEX
  8
0
 10
1888.515726
 20
2519.100683
 42
-0.052501
  0
VERTEX
  8
0
 10
1893.048346
 20
2508.974707
 42
-0.022671
  0
VERTEX
  8
0
 10
1894.425426
 20
2504.011217
 42
-0.035530
  0
VERTEX
  8
0
 10
1895.105803
 20
2499.635965
 42
-0.019879
  0
VERTEX
  8
0
 10
1895.364025
 20
2493.701737
 42
-0.002825
  0
VERTEX
  8
0
 10
1895.340630
 20
2481.500000
 42
-0.033497
  0
VERTEX
  8
0
 10
1890.086436
 20
2411.139499
 42
-0.031276
  0
VERTEX
  8
0
 10
1875.458053
 20
2340.442233
 42
-0.032163
  0
VERTEX
  8
0
 10
1852.751947
 20
2274.339701
 42
-0.042287
  0
VERTEX
  8
0
 10
1823.327339
 20
2217.778737
 42
-0.019294
  0
VERTEX
  8
0
 10
1806.722775
 20
2193.653507
 42
-0.023717
  0
VERTEX
  8
0
 10
1789.348442
 20
2172.551431
 42
-0.023750
  0
VERTEX
  8
0
 10
1770.074980
 20
2153.213639
 42
-0.019444
  0
VERTEX
  8
0
 10
1747.761552
 20
2134.392983
 42
0.004476
  0
VERTEX
  8
0
 10
1742.038919
 20
2129.852143
 42
0.006378
  0
VERTEX
  8
0
 10
1737.045044
 20
2125.709789
 42
0.003740
  0
VERTEX
  8
0
 10
1732.920826
 20
2122.145497
 42
0.090047
  0
VERTEX
  8
0
 10
1731.976368
 20
2120.955843
 42
0.126560
  0
VERTEX
  8
0
 10
1731.494518
 20
2118.983544
 42
0.123048
  0
VERTEX
  8
0
 10
1732.015775
 20
2117.000420
 42
0.112683
  0
VERTEX
  8
0
 10
1733.466474
 20
2115.367314
 42
0.093813
  0
VERTEX
  8
0
 10
1735.579060
 20
2114.390801
 42
0.190228
  0
VERTEX
  8
0
 10
1743.824287
 20
2115.469257
 42
0.007924
  0
VERTEX
  8
0
 10
1770.040016
 20
2130.544569
 42
0.014403
  0
VERTEX
  8
0
 10
1797.550526
 20
2148.043275
 42
0.019012
  0
VERTEX
  8
0
 10
1821.500000
 20
2165.628234
 42
0.022315
  0
VERTEX
  8
0
 10
1834.607508
 20
2177.031682
 42
0.005952
  0
VERTEX
  8
0
 10
1854.427432
 20
2196.347345
 42
0.005695
  0
VERTEX
  8
0
 10
1873.678800
 20
2216.003798
 42
0.026703
  0
VERTEX
  8
0
 10
1883.994111
 20
2228.000000
 42
0.030143
  0
VERTEX
  8
0
 10
1908.473293
 20
2264.048009
 42
0.033854
  0
VERTEX
  8
0
 10
1927.402797
 20
2301.443558
 42
0.034030
  0
VERTEX
  8
0
 10
1941.035660
 20
2340.874160
 42
0.031080
  0
VERTEX
  8
0
 10
1949.693665
 20
2383.000000
 42
0.014252
  0
VERTEX
  8
0
 10
1950.562634
 20
2390.721791
 42
0.010564
  0
VERTEX
  8
0
 10
1951.098558
 20
2399.294494
 42
0.007550
  0
VERTEX
  8
0
 10
1951.387929
 20
2410.333542
 42
0.002624
  0
VERTEX
  8
0
 10
1951.481198
 20
2426.250130
 42
0.000000
  0
VERTEX
  8
0
 10
1951.500000
 20
2457.000261
 42
0.000000
  0
VERTEX
  8
0
 10
1953.811925
 20
2457.000130
 42
-0.099060
  0
VERTEX
  8
0
 10
1958.057343
 20
2456.150447
 42
-0.037906
  0
VERTEX
  8
0
 10
1963.451388
 20
2453.405147
 42
-0.033851
  0
VERTEX
  8
0
 10
1969.304243
 20
2449.277490
 42
-0.026824
  0
VERTEX
  8
0
 10
1975.045077
 20
2444.082329
 42
-0.014525
  0
VERTEX
  8
0
 10
1979.143069
 20
2439.706044
 42
-0.027597
  0
VERTEX
  8
0
 10
1982.132446
 20
2435.919904
 42
-0.026400
  0
VERTEX
  8
0
 10
1984.769483
 20
2431.717252
 42
-0.012125
  0
VERTEX
  8
0
 10
1987.775473
 20
2425.990005
 42
-0.017734
  0
VERTEX
  8
0
 10
1992.429267
 20
2415.669391
 42
-0.043749
  0
VERTEX
  8
0
 10
1994.887893
 20
2407.741354
 42
-0.040631
  0
VERTEX
  8
0
 10
1996.026755
 20
2399.167272
 42
-0.013546
  0
VERTEX
  8
0
 10
1996.327603
 20
2386.500000
 42
-0.022457
  0
VERTEX
  8
0
 10
1995.433313
 20
2367.980319
 42
-0.022848
  0
VERTEX
  8
0
 10
1992.881930
 20
2349.723037
 42
-0.021208
  0
VERTEX
  8
0
 10
1988.464858
 20
2330.595211
 42
-0.014789
  0
VERTEX
  8
0
 10
1981.940759
 20
2309.424545
 42
-0.036098
  0
VERTEX
  8
0
 10
1961.988711
 20
2262.321978
 42
-0.027494
  0
VERTEX
  8
0
 10
1933.762123
 20
2213.904290
 42
-0.024838
  0
VERTEX
  8
0
 10
1897.224774
 20
2164.049581
 42
-0.018394
  0
VERTEX
  8
0
 10
1852.210974
 20
2112.612747
 42
0.008710
  0
VERTEX
  8
0
 10
1848.883801
 20
2108.956176
 42
0.009748
  0
VERTEX
  8
0
 10
1845.811388
 20
2105.318476
 42
0.009134
  0
VERTEX
  8
0
 10
1843.316902
 20
2102.128080
 42
0.050130
  0
VERTEX
  8
0
 10
1842.184714
 20
2100.261159
 42
0.014288
  0
VERTEX
  8
0
 10
1841.205787
 20
2098.047685
 42
0.129434
  0
VERTEX
  8
0
 10
1841.069517
 20
2097.008503
 42
0.165109
  0
VERTEX
  8
0
 10
1841.486629
 20
2096.154440
 42
0.027147
  0
VERTEX
  8
0
 10
1842.868876
 20
2094.905094
 42
0.122760
  0
VERTEX
  8
0
 10
1845.329986
 20
2093.757378
 42
0.111346
  0
VERTEX
  8
0
 10
1848.138472
 20
2093.840862
 42
0.046775
  0
VERTEX
  8
0
 10
1852.405447
 20
2095.374183
 42
0.006051
  0
VERTEX
  8
0
 10
1861.140423
 20
2099.599693
 42
0.031014
  0
VERTEX
  8
0
 10
1898.637502
 20
2121.302201
 42
0.026082
  0
VERTEX
  8
0
 10
1935.493226
 20
2148.675937
 42
0.026236
  0
VERTEX
  8
0
 10
1969.048072
 20
2179.526964
 42
0.032685
  0
VERTEX
  8
0
 10
1996.637038
 20
2211.654018
 42
0.027260
  0
VERTEX
  8
0
 10
2015.121156
 20
2239.278681
 42
0.030102
  0
VERTEX
  8
0
 10
2029.826676
 20
2267.873192
 42
0.030699
  0
VERTEX
  8
0
 10
2040.754545
 20
2297.493412
 42
0.030845
  0
VERTEX
  8
0
 10
2047.952865
 20
2328.182251
 42
0.016535
  0
VERTEX
  8
0
 10
2049.264260
 20
2337.789824
 42
0.005123
  0
VERTEX
  8
0
 10
2050.609577
 20
2352.316792
 42
0.005209
  0
VERTEX
  8
0
 10
2051.662324
 20
2366.978203
 42
0.014672
  0
VERTEX
  8
0
 10
2051.990326
 20
2377.250000
 42
-0.025165
  0
VERTEX
  8
0
 10
2052.074433
 20
2378.838482
 42
-0.056831
  0
VERTEX
  8
0
 10
2052.333169
 20
2380.013404
 42
-0.088731
  0
VERTEX
  8
0
 10
2052.740114
 20
2380.745569
 42
-0.225327
  0
VERTEX
  8
0
 10
2053.276031
 20
2381.000000
 42
-0.129695
  0
VERTEX
  8
0
 10
2055.327703
 20
2380.458712
 42
-0.001994
  0
VERTEX
  8
0
 10
2066.039102
 20
2374.327353
 42
-0.006002
  0
VERTEX
  8
0
 10
2076.552705
 20
2368.083905
 42
-0.011328
  0
VERTEX
  8
0
 10
2084.854048
 20
2362.756679
 42
-0.028240
  0
VERTEX
  8
0
 10
2107.395966
 20
2345.632305
 42
-0.018405
  0
VERTEX
  8
0
 10
2131.472300
 20
2323.518753
 42
-0.017477
  0
VERTEX
  8
0
 10
2155.429130
 20
2298.115870
 42
-0.017263
  0
VERTEX
  8
0
 10
2177.655915
 20
2271.000000
 42
-0.038625
  0
VERTEX
  8
0
 10
2232.321695
 20
2186.626882
 42
-0.032422
  0
VERTEX
  8
0
 10
2277.041410
 20
2089.851126
 42
-0.032601
  0
VERTEX
  8
0
 10
2308.630403
 20
1988.759883
 42
-0.040504
  0
VERTEX
  8
0
 10
2324.000634
 20
1891.491649
 42
-0.013950
  0
VERTEX
  8
0
 10
2324.789091
 20
1875.030423
 42
-0.004957
  0
VERTEX
  8
0
 10
2325.025867
 20
1851.469355
 42
-0.004950
  0
VERTEX
  8
0
 10
2324.795987
 20
1827.929171
 42
-0.014132
  0
VERTEX
  8
0
 10
2324.011368
 20
1811.570437
 42
-0.030533
  0
VERTEX
  8
0
 10
2317.920270
 20
1767.464980
 42
-0.033763
  0
VERTEX
  8
0
 10
2306.612397
 20
1725.925764
 42
-0.035627
  0
VERTEX
  8
0
 10
2290.569360
 20
1688.451905
 42
-0.044522
  0
VERTEX
  8
0
 10
2270.326721
 20
1656.500000
 42
0.000000
  0
VERTEX
  8
0
 10
2263.432204
 20
1647.500000
 42
0.000000
  0
VERTEX
  8
0
 10
2258.966102
 20
1647.605228
 42
-0.002547
  0
VERTEX
  8
0
 10
2255.932996
 20
1647.692155
 42
-0.000139
  0
VERTEX
  8
0
 10
2246.397826
 20
1648.016703
 42
-0.000216
  0
VERTEX
  8
0
 10
2235.053474
 20
1648.410902
 42
-0.000158
  0
VERTEX
  8
0
 10
2222.452029
 20
1648.858226
 42
0.017365
  0
VERTEX
  8
0
 10
2157.424448
 20
1648.927906
 42
0.016646
  0
VERTEX
  8
0
 10
2091.620301
 20
1644.516051
 42
0.017270
  0
VERTEX
  8
0
 10
2029.211962
 20
1636.053896
 42
0.024462
  0
VERTEX
  8
0
 10
1974.500000
 20
1623.921337
 42
0.007089
  0
VERTEX
  8
0
 10
1961.846768
 20
1620.264854
 42
0.007108
  0
VERTEX
  8
0
 10
1949.313751
 20
1616.254257
 42
0.005816
  0
VERTEX
  8
0
 10
1934.886481
 20
1611.222889
 42
0.002649
  0
VERTEX
  8
0
 10
1916.141206
 20
1604.327585
 42
-0.002621
  0
VERTEX
  8
0
 10
1906.233087
 20
1600.682343
 42
-0.003816
  0
VERTEX
  8
0
 10
1897.455704
 20
1597.580808
 42
-0.001930
  0
VERTEX
  8
0
 10
1889.986512
 20
1595.037694
 42
-0.064781
  0
VERTEX
  8
0
 10
1888.141206
 20
1594.673368
 42
-0.097590
  0
VERTEX
  8
0
 10
1886.597737
 20
1594.873616
 42
-0.125673
  0
VERTEX
  8
0
 10
1885.400694
 20
1595.647009
 42
-0.062136
  0
VERTEX
  8
0
 10
1884.181533
 20
1597.343842
 42
-0.009774
  0
VERTEX
  8
0
 10
1882.281028
 20
1601.000000
 42
-0.032154
  0
VERTEX
  8
0
 10
1879.202839
 20
1608.372207
 42
-0.035631
  0
VERTEX
  8
0
 10
1877.218270
 20
1615.831894
 42
-0.034386
  0
VERTEX
  8
0
 10
1876.265964
 20
1623.727038
 42
-0.026473
  0
VERTEX
  8
0
 10
1876.280196
 20
1632.408061
 42
-0.042456
  0
VERTEX
  8
0
 10
1878.036206
 20
1644.920329
 42
-0.040340
  0
VERTEX
  8
0
 10
1881.895087
 20
1657.180701
 42
-0.037366
  0
VERTEX
  8
0
 10
1887.994657
 20
1669.483859
 42
-0.027508
  0
VERTEX
  8
0
 10
1896.461382
 20
1682.130303
 42
-0.024365
  0
VERTEX
  8
0
 10
1902.881472
 20
1689.851032
 42
-0.013318
  0
VERTEX
  8
0
 10
1911.446646
 20
1698.701252
 42
-0.013275
  0
VERTEX
  8
0
 10
1920.293692
 20
1706.919733
 42
-0.029738
  0
VERTEX
  8
0
 10
1927.522277
 20
1712.559783
 42
0.000000
  0
VERTEX
  8
0
 10
1933.158846
 20
1716.441837
 42
0.000000
  0
VERTEX
  8
0
 10
1969.329423
 20
1709.082989
 42
0.001400
  0
VERTEX
  8
0
 10
2015.757562
 20
1699.772574
 42
0.010927
  0
VERTEX
  8
0
 10
2037.487641
 20
1695.969585
 42
0.021402
  0
VERTEX
  8
0
 10
2053.015752
 20
1694.276480
 42
0.016637
  0
VERTEX
  8
0
 10
2070.000000
 20
1693.723637
 42
0.004967
  0
VERTEX
  8
0
 10
2079.011644
 20
1693.819747
 42
0.016766
  0
VERTEX
  8
0
 10
2084.892342
 20
1694.138360
 42
0.023390
  0
VERTEX
  8
0
 10
2089.611171
 20
1694.776545
 42
0.020077
  0
VERTEX
  8
0
 10
2094.500000
 20
1695.876701
 42
0.033068
  0
VERTEX
  8
0
 10
2113.728613
 20
1702.411627
 42
0.032980
  0
VERTEX
  8
0
 10
2131.945504
 20
1711.429350
 42
0.033526
  0
VERTEX
  8
0
 10
2148.528782
 20
1722.595782
 42
0.037077
  0
VERTEX
  8
0
 10
2162.884017
 20
1735.540208
 42
0.019561
  0
VERTEX
  8
0
 10
2169.613331
 20
1743.154276
 42
0.045640
  0
VERTEX
  8
0
 10
2173.863659
 20
1749.455028
 42
0.059519
  0
VERTEX
  8
0
 10
2176.204167
 20
1755.258507
 42
0.066208
  0
VERTEX
  8
0
 10
2177.000000
 20
1761.242294
 42
0.067844
  0
VERTEX
  8
0
 10
2176.242155
 20
1766.801776
 42
0.083450
  0
VERTEX
  8
0
 10
2174.026780
 20
1771.538519
 42
0.077936
  0
VERTEX
  8
0
 10
2170.242028
 20
1775.524197
 42
0.050930
  0
VERTEX
  8
0
 10
2164.839799
 20
1778.865542
 42
0.040375
  0
VERTEX
  8
0
 10
2158.362811
 20
1781.388470
 42
0.036803
  0
VERTEX
  8
0
 10
2151.361039
 20
1782.933349
 42
0.026721
  0
VERTEX
  8
0
 10
2142.418858
 20
1783.741771
 42
0.009336
  0
VERTEX
  8
0
 10
2129.500000
 20
1783.975117
 42
0.008748
  0
VERTEX
  8
0
 10
2116.539153
 20
1783.740421
 42
0.013733
  0
VERTEX
  8
0
 10
2105.420661
 20
1783.038308
 42
0.012905
  0
VERTEX
  8
0
 10
2093.875478
 20
1781.689081
 42
0.006649
  0
VERTEX
  8
0
 10
2079.500000
 20
1779.436320
 42
0.013840
  0
VERTEX
  8
0
 10
2036.006819
 20
1770.781806
 42
0.021927
  0
VERTEX
  8
0
 10
1999.373701
 20
1760.724304
 42
0.024880
  0
VERTEX
  8
0
 10
1967.500896
 20
1748.671161
 42
0.028652
  0
VERTEX
  8
0
 10
1938.500000
 20
1733.991434
 42
0.000000
  0
VERTEX
  8
0
 10
1929.500000
 20
1728.767990
 42
0.000000
  0
VERTEX
  8
0
 10
1914.500000
 20
1730.855285
 42
0.015122
  0
VERTEX
  8
0
 10
1884.836131
 20
1734.072192
 42
0.024439
  0
VERTEX
  8
0
 10
1859.460020
 20
1734.806096
 42
0.028584
  0
VERTEX
  8
0
 10
1837.548265
 20
1733.113156
 42
0.040516
  0
VERTEX
  8
0
 10
1818.453862
 20
1728.938414
 42
0.030638
  0
VERTEX
  8
0
 10
1807.695812
 20
1724.919789
 42
0.034634
  0
VERTEX
  8
0
 10
1797.959910
 20
1719.751857
 42
0.029686
  0
VERTEX
  8
0
 10
1787.891731
 20
1712.615857
 42
0.014826
  0
VERTEX
  8
0
 10
1776.000000
 20
1702.485416
 42
-0.038837
  0
VERTEX
  8
0
 10
1738.034875
 20
1673.165923
 42
-0.037551
  0
VERTEX
  8
0
 10
1695.575745
 20
1649.699381
 42
-0.035241
  0
VERTEX
  8
0
 10
1647.572724
 20
1631.664745
 42
-0.026933
  0
VERTEX
  8
0
 10
1593.000000
 20
1618.594323
 42
-0.004940
  0
VERTEX
  8
0
 10
1585.774029
 20
1617.343943
 42
-0.001309
  0
VERTEX
  8
0
 10
1574.212500
 20
1615.491850
 42
-0.001328
  0
VERTEX
  8
0
 10
1561.049997
 20
1613.454427
 42
-0.001366
  0
VERTEX
  8
0
 10
1548.000000
 20
1611.506353
 42
0.003005
  0
VERTEX
  8
0
 10
1524.392701
 20
1607.903134
 42
0.012722
  0
VERTEX
  8
0
 10
1510.328310
 20
1605.301463
 42
0.021012
  0
VERTEX
  8
0
 10
1501.021491
 20
1602.921330
 42
0.052949
  0
VERTEX
  8
0
 10
1494.581747
 20
1600.212379
 42
0.037667
  0
VERTEX
  8
0
 10
1490.285929
 20
1597.402270
 42
0.078137
  0
VERTEX
  8
0
 10
1487.532151
 20
1594.506404
 42
0.090287
  0
VERTEX
  8
0
 10
1486.038691
 20
1591.199600
 42
0.065390
  0
VERTEX
  8
0
 10
1485.579785
 20
1587.174813
 42
0.048670
  0
VERTEX
  8
0
 10
1486.037342
 20
1583.190119
 42
0.060316
  0
VERTEX
  8
0
 10
1487.253661
 20
1579.662991
 42
0.054924
  0
VERTEX
  8
0
 10
1489.383529
 20
1576.283097
 42
0.031991
  0
VERTEX
  8
0
 10
1492.604626
 20
1572.726927
 42
0.101758
  0
VERTEX
  8
0
 10
1507.084609
 20
1563.486096
 42
0.031281
  0
VERTEX
  8
0
 10
1531.951882
 20
1555.721176
 42
0.026949
  0
VERTEX
  8
0
 10
1564.070872
 20
1549.669357
 42
0.016770
  0
VERTEX
  8
0
 10
1602.225992
 20
1545.886783
 42
0.015192
  0
VERTEX
  8
0
 10
1625.783046
 20
1545.064434
 42
0.005556
  0
VERTEX
  8
0
 10
1659.132252
 20
1545.284515
 42
0.005563
  0
VERTEX
  8
0
 10
1692.496732
 20
1546.246864
 42
0.015015
  0
VERTEX
  8
0
 10
1716.142748
 20
1547.904509
 42
0.009114
  0
VERTEX
  8
0
 10
1756.567737
 20
1552.706860
 42
0.011174
  0
VERTEX
  8
0
 10
1794.119633
 20
1558.721385
 42
0.011715
  0
VERTEX
  8
0
 10
1829.759263
 20
1566.116498
 42
0.012304
  0
VERTEX
  8
0
 10
1864.430753
 20
1575.066794
 42
0.000000
  0
VERTEX
  8
0
 10
1881.361506
 20
1579.884711
 42
0.000000
  0
VERTEX
  8
0
 10
1886.930753
 20
1575.092308
 42
0.031599
  0
VERTEX
  8
0
 10
1899.442599
 20
1565.632226
 42
0.037138
  0
VERTEX
  8
0
 10
1912.411444
 20
1558.378556
 42
0.036927
  0
VERTEX
  8
0
 10
1926.375189
 20
1553.092202
 42
0.030628
  0
VERTEX
  8
0
 10
1941.864312
 20
1549.517043
 42
0.023641
  0
VERTEX
  8
0
 10
1965.818518
 20
1546.669125
 42
0.008154
  0
VERTEX
  8
0
 10
2000.644352
 20
1544.760320
 42
0.008284
  0
VERTEX
  8
0
 10
2035.944379
 20
1543.987811
 42
0.020076
  0
VERTEX
  8
0
 10
2062.000000
 20
1544.895773
 42
0.032395
  0
VERTEX
  8
0
 10
2122.460839
 20
1553.400429
 42
0.045205
  0
VERTEX
  8
0
 10
2174.688312
 20
1569.262752
 42
0.049255
  0
VERTEX
  8
0
 10
2219.642467
 20
1592.874790
 42
0.051576
  0
VERTEX
  8
0
 10
2258.357828
 20
1624.512327
 42
-0.003971
  0
VERTEX
  8
0
 10
2264.597034
 20
1630.687602
 42
-0.036714
  0
VERTEX
  8
0
 10
2267.504769
 20
1633.131344
 42
-0.089084
  0
VERTEX
  8
0
 10
2269.654012
 20
1634.163767
 42
-0.092402
  0
VERTEX
  8
0
 10
2272.000000
 20
1634.365639
 42
-0.015560
  0
VERTEX
  8
0
 10
2323.821826
 20
1627.613863
 42
-0.021577
  0
VERTEX
  8
0
 10
2369.689919
 20
1618.133248
 42
-0.023933
  0
VERTEX
  8
0
 10
2410.326586
 20
1605.792758
 42
-0.030473
  0
VERTEX
  8
0
 10
2446.348336
 20
1590.409372
 42
-0.042438
  0
VERTEX
  8
0
 10
2482.148344
 20
1568.491481
 42
-0.059459
  0
VERTEX
  8
0
 10
2509.481228
 20
1542.876336
 42
-0.065080
  0
VERTEX
  8
0
 10
2528.239877
 20
1513.550545
 42
-0.066743
  0
VERTEX
  8
0
 10
2538.631525
 20
1480.635688
 42
-0.035968
  0
VERTEX
  8
0
 10
2539.774923
 20
1469.309982
 42
-0.014246
  0
VERTEX
  8
0
 10
2539.778352
 20
1453.657906
 42
-0.014355
  0
VERTEX
  8
0
 10
2538.876867
 20
1437.853627
 42
-0.031565
  0
VERTEX
  8
0
 10
2537.083331
 20
1425.888916
 42
-0.026533
  0
VERTEX
  8
0
 10
2529.785517
 20
1398.993066
 42
-0.024396
  0
VERTEX
  8
0
 10
2519.506842
 20
1372.238128
 42
-0.023193
  0
VERTEX
  8
0
 10
2506.113063
 20
1345.336746
 42
-0.019215
  0
VERTEX
  8
0
 10
2489.474503
 20
1318.000000
 42
-0.030255
  0
VERTEX
  8
0
 10
2463.264303
 20
1283.210778
 42
-0.033531
  0
VERTEX
  8
0
 10
2433.871136
 20
1253.091813
 42
-0.033751
  0
VERTEX
  8
0
 10
2400.898339
 20
1227.338424
 42
-0.031462
  0
VERTEX
  8
0
 10
2364.000000
 20
1205.585065
 42
-0.025322
  0
VERTEX
  8
0
 10
2327.306063
 20
1189.235369
 42
-0.025835
  0
VERTEX
  8
0
 10
2289.389132
 20
1176.801593
 42
-0.024093
  0
VERTEX
  8
0
 10
2248.048695
 20
1167.685546
 42
-0.017112
  0
VERTEX
  8
0
 10
2201.000000
 20
1161.312247
 42
-0.019437
  0
VERTEX
  8
0
 10
2177.378337
 20
1159.856424
 42
-0.005743
  0
VERTEX
  8
0
 10
2141.128122
 20
1159.450503
 42
-0.005919
  0
VERTEX
  8
0
 10
2104.352474
 20
1159.896535
 42
-0.015527
  0
VERTEX
  8
0
 10
2078.000000
 20
1161.347844
 42
-0.014129
  0
VERTEX
  8
0
 10
2008.079998
 20
1169.376486
 42
-0.014406
  0
VERTEX
  8
0
 10
1939.178056
 20
1181.302710
 42
-0.012116
  0
VERTEX
  8
0
 10
1861.454497
 20
1199.045203
 42
-0.005968
  0
VERTEX
  8
0
 10
1763.500000
 20
1225.165917
 42
0.000872
  0
VERTEX
  8
0
 10
1727.485652
 20
1235.163831
 42
0.001625
  0
VERTEX
  8
0
 10
1698.264169
 20
1243.119054
 42
0.001914
  0
VERTEX
  8
0
 10
1672.618769
 20
1249.906163
 42
0.002112
  0
VERTEX
  8
0
 10
1647.750064
 20
1256.273923
 42
-0.003858
  0
VERTEX
  8
0
 10
1638.283339
 20
1258.733196
 42
-0.006458
  0
VERTEX
  8
0
 10
1630.367686
 20
1260.964840
 42
-0.001675
  0
VERTEX
  8
0
 10
1623.593488
 20
1262.994189
 42
-0.421653
  0
VERTEX
  8
0
 10
1623.331238
 20
1263.500000
 42
-0.163395
  0
VERTEX
  8
0
 10
1624.285833
 20
1264.772334
 42
-0.001375
  0
VERTEX
  8
0
 10
1634.605674
 20
1271.839271
 42
-0.005116
  0
VERTEX
  8
0
 10
1644.284350
 20
1278.284189
 42
-0.019316
  0
VERTEX
  8
0
 10
1650.534152
 20
1282.018656
 42
0.000000
  0
VERTEX
  8
0
 10
1654.910481
 20
1284.409327
 42
0.000000
  0
VERTEX
  8
0
 10
1723.705241
 20
1264.739982
 42
0.000724
  0
VERTEX
  8
0
 10
1774.377371
 20
1250.331427
 42
0.002938
  0
VERTEX
  8
0
 10
1805.288746
 20
1241.785992
 42
0.004553
  0
VERTEX
  8
0
 10
1828.771073
 20
1235.671478
 42
0.004715
  0
VERTEX
  8
0
 10
1852.088975
 20
1230.059133
 42
0.014459
  0
VERTEX
  8
0
 10
1907.480451
 20
1218.954681
 42
0.024831
  0
VERTEX
  8
0
 10
1954.220474
 20
1213.352897
 42
0.029399
  0
VERTEX
  8
0
 10
1994.811310
 20
1212.912613
 42
0.039252
  0
VERTEX
  8
0
 10
2031.357453
 20
1217.556775
 42
0.026079
  0
VERTEX
  8
0
 10
2045.440559
 20
1221.258119
 42
0.023451
  0
VERTEX
  8
0
 10
2059.581700
 20
1226.517202
 42
0.023230
  0
VERTEX
  8
0
 10
2073.308163
 20
1233.137619
 42
0.024295
  0
VERTEX
  8
0
 10
2086.150766
 20
1240.913389
 42
0.036040
  0
VERTEX
  8
0
 10
2107.627451
 20
1257.756326
 42
0.063746
  0
VERTEX
  8
0
 10
2122.221013
 20
1274.860132
 42
0.082114
  0
VERTEX
  8
0
 10
2129.609489
 20
1291.621124
 42
0.123946
  0
VERTEX
  8
0
 10
2129.684007
 20
1307.497335
 42
0.146866
  0
VERTEX
  8
0
 10
2117.019569
 20
1328.935368
 42
0.077677
  0
VERTEX
  8
0
 10
2091.137287
 20
1346.284480
 42
0.055824
  0
VERTEX
  8
0
 10
2052.339587
 20
1359.311743
 42
0.026921
  0
VERTEX
  8
0
 10
2000.500000
 20
1367.602383
 42
0.019564
  0
VERTEX
  8
0
 10
1982.346280
 20
1368.795597
 42
0.005526
  0
VERTEX
  8
0
 10
1953.998725
 20
1369.233868
 42
0.005788
  0
VERTEX
  8
0
 10
1924.890373
 20
1369.025223
 42
0.013295
  0
VERTEX
  8
0
 10
1903.000000
 20
1368.032208
 42
0.016899
  0
VERTEX
  8
0
 10
1861.842078
 20
1363.664961
 42
0.015017
  0
VERTEX
  8
0
 10
1819.407031
 20
1356.400805
 42
0.015151
  0
VERTEX
  8
0
 10
1777.925657
 20
1346.693838
 42
0.018249
  0
VERTEX
  8
0
 10
1739.639642
 20
1334.990306
 42
0.007080
  0
VERTEX
  8
0
 10
1723.047485
 20
1328.984043
 42
0.008881
  0
VERTEX
  8
0
 10
1707.850661
 20
1322.927613
 42
0.008534
  0
VERTEX
  8
0
 10
1692.397655
 20
1316.136365
 42
0.005763
  0
VERTEX
  8
0
 10
1675.000000
 20
1307.889232
 42
0.000000
  0
VERTEX
  8
0
 10
1652.500000
 20
1296.904013
 42
0.000000
  0
VERTEX
  8
0
 10
1630.500000
 20
1302.882428
 42
0.007225
  0
VERTEX
  8
0
 10
1568.689829
 20
1318.723713
 42
0.010760
  0
VERTEX
  8
0
 10
1514.145214
 20
1330.630343
 42
0.011896
  0
VERTEX
  8
0
 10
1463.732078
 20
1339.263798
 42
0.013054
  0
VERTEX
  8
0
 10
1414.500000
 20
1345.185705
 42
0.019231
  0
VERTEX
  8
0
 10
1393.684016
 20
1346.334782
 42
0.005361
  0
VERTEX
  8
0
 10
1361.034168
 20
1346.529564
 42
0.005161
  0
VERTEX
  8
0
 10
1328.589957
 20
1346.040298
 42
0.022707
  0
VERTEX
  8
0
 10
1309.500000
 20
1344.686302
 42
0.011048
  0
VERTEX
  8
0
 10
1285.390015
 20
1341.330210
 42
0.013408
  0
VERTEX
  8
0
 10
1262.970564
 20
1337.083078
 42
0.013978
  0
VERTEX
  8
0
 10
1241.649734
 20
1331.820523
 42
0.014348
  0
VERTEX
  8
0
 10
1220.843342
 20
1325.415384
 42
0.014036
  0
VERTEX
  8
0
 10
1200.691775
 20
1317.935884
 42
0.016820
  0
VERTEX
  8
0
 10
1182.192524
 20
1309.738712
 42
0.016299
  0
VERTEX
  8
0
 10
1163.811787
 20
1300.091338
 42
0.011855
  0
VERTEX
  8
0
 10
1144.000000
 20
1288.225182
 42
-0.005979
  0
VERTEX
  8
0
 10
1114.094007
 20
1269.832274
 42
-0.011834
  0
VERTEX
  8
0
 10
1089.862011
 20
1256.093789
 42
-0.014084
  0
VERTEX
  8
0
 10
1068.096224
 20
1245.203089
 42
-0.014582
  0
VERTEX
  8
0
 10
1046.000000
 20
1235.688420
 42
-0.019180
  0
VERTEX
  8
0
 10
1014.669454
 20
1224.637776
 42
-0.024002
  0
VERTEX
  8
0
 10
984.827392
 20
1216.930722
 42
-0.025221
  0
VERTEX
  8
0
 10
955.701095
 20
1212.400153
 42
-0.025901
  0
VERTEX
  8
0
 10
926.524982
 20
1210.878983
 42
-0.014685
  0
VERTEX
  8
0
 10
907.677290
 20
1211.426999
 42
-0.022813
  0
VERTEX
  8
0
 10
891.504218
 20
1213.115955
 42
-0.024067
  0
VERTEX
  8
0
 10
876.203364
 20
1216.182499
 42
-0.019187
  0
VERTEX
  8
0
 10
860.045190
 20
1220.904022
 42
-0.045325
  0
VERTEX
  8
0
 10
832.533077
 20
1232.968073
 42
-0.046597
  0
VERTEX
  8
0
 10
807.917618
 20
1249.698894
 42
-0.045872
  0
VERTEX
  8
0
 10
786.498686
 20
1270.962889
 42
-0.041375
  0
VERTEX
  8
0
 10
768.480713
 20
1296.489237
 42
-0.028527
  0
VERTEX
  8
0
 10
758.711076
 20
1315.490684
 42
-0.021953
  0
VERTEX
  8
0
 10
750.190258
 20
1337.203398
 42
-0.021126
  0
VERTEX
  8
0
 10
743.276286
 20
1360.557982
 42
-0.020890
  0
VERTEX
  8
0
 10
738.328110
 20
1384.500000
 42
-0.029076
  0
VERTEX
  8
0
 10
736.984116
 20
1397.389463
 42
-0.009420
  0
VERTEX
  8
0
 10
736.467831
 20
1416.562829
 42
-0.009021
  0
VERTEX
  8
0
 10
736.656708
 20
1435.526308
 42
-0.036668
  0
VERTEX
  8
0
 10
737.823038
 20
1447.000000
 42
-0.014031
  0
VERTEX
  8
0
 10
739.698199
 20
1456.125284
 42
-0.008578
  0
VERTEX
  8
0
 10
742.395450
 20
1466.782552
 42
-0.008557
  0
VERTEX
  8
0
 10
745.352019
 20
1476.981603
 42
-0.019718
  0
VERTEX
  8
0
 10
748.004693
 20
1484.511815
 42
-0.071806
  0
VERTEX
  8
0
 10
776.364687
 20
1533.872491
 42
-0.057243
  0
VERTEX
  8
0
 10
819.560568
 20
1577.605323
 42
-0.050083
  0
VERTEX
  8
0
 10
877.381296
 20
1615.251013
 42
-0.034205
  0
VERTEX
  8
0
 10
949.379062
 20
1646.429414
 42
-0.011511
  0
VERTEX
  8
0
 10
969.558856
 20
1653.055525
 42
-0.007207
  0
VERTEX
  8
0
 10
993.452050
 20
1659.921652
 42
-0.007100
  0
VERTEX
  8
0
 10
1018.200063
 20
1666.272882
 42
-0.009224
  0
VERTEX
  8
0
 10
1041.053095
 20
1671.348905
 42
-0.004612
  0
VERTEX
  8
0
 10
1053.523536
 20
1673.758812
 42
-0.069593
  0
VERTEX
  8
0
 10
1057.925052
 20
1673.946920
 42
-0.122348
  0
VERTEX
  8
0
 10
1061.338266
 20
1672.740550
 42
-0.024204
  0
VERTEX
  8
0
 10
1066.613649
 20
1668.881070
 42
0.035034
  0
VERTEX
  8
0
 10
1097.883314
 20
1647.027034
 42
0.034184
  0
VERTEX
  8
0
 10
1132.149095
 20
1629.552241
 42
0.032741
  0
VERTEX
  8
0
 10
1169.876922
 20
1616.299927
 42
0.027036
  0
VERTEX
  8
0
 10
1211.500000
 20
1607.067270
 42
0.008552
  0
VERTEX
  8
0
 10
1231.521722
 20
1604.100221
 42
0.016046
  0
VERTEX
  8
0
 10
1247.802898
 20
1602.500725
 42
0.012891
  0
VERTEX
  8
0
 10
1266.328287
 20
1601.758252
 42
0.003714
  0
VERTEX
  8
0
 10
1295.000000
 20
1601.561860
 42
0.006455
  0
VERTEX
  8
0
 10
1332.093091
 20
1602.062155
 42
0.019521
  0
VERTEX
  8
0
 10
1357.300329
 20
1603.713888
 42
0.028221
  0
VERTEX
  8
0
 10
1376.236405
 20
1606.787207
 42
0.040871
  0
VERTEX
  8
0
 10
1392.422119
 20
1611.776661
 42
0.029632
  0
VERTEX
  8
0
 10
1401.867454
 20
1616.222917
 42
0.027768
  0
VERTEX
  8
0
 10
1410.936414
 20
1621.842360
 42
0.027014
  0
VERTEX
  8
0
 10
1419.562663
 20
1628.596420
 42
0.024708
  0
VERTEX
  8
0
 10
1427.684125
 20
1636.435213
 42
0.000000
  0
VERTEX
  8
0
 10
1436.506097
 20
1645.834958
 42
0.000000
  0
VERTEX
  8
0
 10
1444.503048
 20
1643.960904
 42
0.015176
  0
VERTEX
  8
0
 10
1464.815339
 20
1639.846737
 42
0.020011
  0
VERTEX
  8
0
 10
1483.550116
 20
1637.407402
 42
0.017685
  0
VERTEX
  8
0
 10
1504.129519
 20
1636.293147
 42
0.008648
  0
VERTEX
  8
0
 10
1530.406023
 20
1636.255613
 42
0.002212
  0
VERTEX
  8
0
 10
1549.243164
 20
1636.637916
 42
0.012017
  0
VERTEX
  8
0
 10
1559.444223
 20
1637.135611
 42
0.017148
  0
VERTEX
  8
0
 10
1567.947410
 20
1638.049587
 42
0.007791
  0
VERTEX
  8
0
 10
1579.000000
 20
1639.798673
 42
0.016884
  0
VERTEX
  8
0
 10
1609.346268
 20
1646.149360
 42
0.017969
  0
VERTEX
  8
0
 10
1638.563002
 20
1654.424241
 42
0.018285
  0
VERTEX
  8
0
 10
1666.621980
 20
1664.618737
 42
0.018994
  0
VERTEX
  8
0
 10
1693.500000
 20
1676.719980
 42
0.013947
  0
VERTEX
  8
0
 10
1705.163425
 20
1682.924928
 42
0.007462
  0
VERTEX
  8
0
 10
1719.231906
 20
1691.200718
 42
0.007453
  0
VERTEX
  8
0
 10
1732.897100
 20
1699.797921
 42
0.015552
  0
VERTEX
  8
0
 10
1743.220180
 20
1706.975658
 42
0.022052
  0
VERTEX
  8
0
 10
1753.696300
 20
1715.495400
 42
0.014798
  0
VERTEX
  8
0
 10
1764.923620
 20
1726.091085
 42
0.014294
  0
VERTEX
  8
0
 10
1774.778988
 20
1736.540448
 42
0.048785
  0
VERTEX
  8
0
 10
1780.280806
 20
1744.085186
 42
0.051836
  0
VERTEX
  8
0
 10
1785.520244
 20
1755.539757
 42
0.108509
  0
VERTEX
  8
0
 10
1786.583321
 20
1765.231891
 42
0.139563
  0
VERTEX
  8
0
 10
1783.482167
 20
1772.901224
 42
0.114038
  0
VERTEX
  8
0
 10
1776.586821
 20
1778.501324
 42
0.025880
  0
VERTEX
  8
0
 10
1773.317405
 20
1779.896216
 42
0.045911
  0
VERTEX
  8
0
 10
1770.488302
 20
1780.648094
 42
0.033996
  0
VERTEX
  8
0
 10
1767.041291
 20
1780.994074
 42
0.008527
  0
VERTEX
  8
0
 10
1761.388574
 20
1781.078964
 42
0.020202
  0
VERTEX
  8
0
 10
1752.942089
 20
1780.720314
 42
0.017706
  0
VERTEX
  8
0
 10
1744.169049
 20
1779.678092
 42
0.011819
  0
VERTEX
  8
0
 10
1732.759014
 20
1777.633749
 42
0.003296
  0
VERTEX
  8
0
 10
1715.000000
 20
1773.894590
 42
-0.003746
  0
VERTEX
  8
0
 10
1676.475485
 20
1765.819458
 42
-0.013428
  0
VERTEX
  8
0
 10
1651.704088
 20
1761.509327
 42
-0.019141
  0
VERTEX
  8
0
 10
1631.697775
 20
1759.357624
 42
-0.016345
  0
VERTEX
  8
0
 10
1610.500000
 20
1758.590460
 42
-0.015664
  0
VERTEX
  8
0
 10
1591.650870
 20
1759.115295
 42
-0.026506
  0
VERTEX
  8
0
 10
1575.958115
 20
1760.882855
 42
-0.029701
  0
VERTEX
  8
0
 10
1561.879236
 20
1764.098475
 42
-0.028040
  0
VERTEX
  8
0
 10
1548.000000
 20
1769.008063
 42
0.002912
  0
VERTEX
  8
0
 10
1531.715682
 20
1775.706401
 42
0.008875
  0
VERTEX
  8
0
 10
1520.553005
 20
1779.993244
 42
0.012345
  0
VERTEX
  8
0
 10
1511.529824
 20
1783.025837
 42
0.013199
  0
VERTEX
  8
0
 10
1502.565860
 20
1785.537063
 42
0.013504
  0
VERTEX
  8
0
 10
1488.931622
 20
1788.582270
 42
0.017105
  0
VERTEX
  8
0
 10
1476.184983
 20
1790.620098
 42
0.014254
  0
VERTEX
  8
0
 10
1461.627769
 20
1792.019215
 42
0.006004
  0
VERTEX
  8
0
 10
1442.000000
 20
1793.105811
 42
0.000000
  0
VERTEX
  8
0
 10
1416.500000
 20
1794.210539
 42
0.000000
  0
VERTEX
  8
0
 10
1411.956593
 20
1797.990593
 42
0.044803
  0
VERTEX
  8
0
 10
1393.192265
 20
1810.949467
 42
0.035446
  0
VERTEX
  8
0
 10
1370.913705
 20
1821.546574
 42
0.032576
  0
VERTEX
  8
0
 10
1345.415812
 20
1829.658034
 42
0.025765
  0
VERTEX
  8
0
 10
1317.000000
 20
1835.162837
 42
0.031109
  0
VERTEX
  8
0
 10
1300.842334
 20
1836.419793
 42
0.005040
  0
VERTEX
  8
0
 10
1269.317540
 20
1836.588725
 42
0.005350
  0
VERTEX
  8
0
 10
1237.744449
 20
1836.101833
 42
0.026052
  0
VERTEX
  8
0
 10
1219.914475
 20
1834.704494
 42
0.018569
  0
VERTEX
  8
0
 10
1196.942236
 20
1830.821782
 42
0.040601
  0
VERTEX
  8
0
 10
1179.828675
 20
1825.794431
 42
0.054251
  0
VERTEX
  8
0
 10
1167.385410
 20
1819.390820
 42
0.091333
  0
VERTEX
  8
0
 10
1158.946106
 20
1811.275425
 42
0.066610
  0
VERTEX
  8
0
 10
1156.211862
 20
1806.146500
 42
0.070745
  0
VERTEX
  8
0
 10
1154.994096
 20
1800.583368
 42
0.070514
  0
VERTEX
  8
0
 10
1155.373840
 20
1794.885567
 42
0.065514
  0
VERTEX
  8
0
 10
1157.316193
 20
1789.362726
 42
0.104161
  0
VERTEX
  8
0
 10
1166.609185
 20
1777.790580
 42
0.054151
  0
VERTEX
  8
0
 10
1182.184878
 20
1767.620803
 42
0.049041
  0
VERTEX
  8
0
 10
1201.661160
 20
1760.016681
 42
0.045453
  0
VERTEX
  8
0
 10
1222.750000
 20
1756.105437
 42
0.028684
  0
VERTEX
  8
0
 10
1235.409003
 20
1755.659853
 42
0.025596
  0
VERTEX
  8
0
 10
1248.532186
 20
1756.624146
 42
0.013041
  0
VERTEX
  8
0
 10
1267.662628
 20
1759.527361
 42
0.001942
  0
VERTEX
  8
0
 10
1306.000000
 20
1766.526363
 42
-0.002841
  0
VERTEX
  8
0
 10
1341.768241
 20
1772.989930
 42
-0.006854
  0
VERTEX
  8
0
 10
1368.312548
 20
1777.256971
 42
-0.009135
  0
VERTEX
  8
0
 10
1389.007036
 20
1779.908020
 42
-0.016818
  0
VERTEX
  8
0
 10
1405.933535
 20
1781.188538
 42
0.000000
  0
VERTEX
  8
0
 10
1413.367069
 20
1781.500000
 42
0.000000
  0
VERTEX
  8
0
 10
1419.590361
 20
1774.101150
 42
-0.066600
  0
VERTEX
  8
0
 10
1434.562304
 20
1750.552000
 42
-0.069306
  0
VERTEX
  8
0
 10
1442.564635
 20
1724.208789
 42
-0.069559
  0
VERTEX
  8
0
 10
1443.048409
 20
1696.766672
 42
-0.067881
  0
VERTEX
  8
0
 10
1436.018890
 20
1670.000000
 42
-0.008889
  0
VERTEX
  8
0
 10
1434.723520
 20
1667.020876
 42
-0.010720
  0
VERTEX
  8
0
 10
1433.397870
 20
1664.272168
 42
-0.009475
  0
VERTEX
  8
0
 10
1432.193658
 20
1662.013197
 42
-0.068706
  0
VERTEX
  8
0
 10
1431.454758
 20
1661.032913
 42
-0.237471
  0
VERTEX
  8
0
 10
1429.446923
 20
1660.364435
 42
-0.034513
  0
VERTEX
  8
0
 10
1425.109787
 20
1661.306612
 42
-0.013499
  0
VERTEX
  8
0
 10
1417.046616
 20
1663.888629
 42
-0.001029
  0
VERTEX
  8
0
 10
1395.500000
 20
1671.485247
 42
0.020508
  0
VERTEX
  8
0
 10
1360.455047
 20
1682.326244
 42
0.021526
  0
VERTEX
  8
0
 10
1325.198820
 20
1690.060553
 42
0.019968
  0
VERTEX
  8
0
 10
1287.123650
 20
1695.153758
 42
0.013579
  0
VERTEX
  8
0
 10
1243.500000
 20
1698.032321
 42
0.012166
  0
VERTEX
  8
0
 10
1202.920528
 20
1698.616799
 42
0.010818
  0
VERTEX
  8
0
 10
1160.735849
 20
1697.284811
 42
0.010933
  0
VERTEX
  8
0
 10
1119.179807
 20
1694.159524
 42
0.013357
  0
VERTEX
  8
0
 10
1080.500000
 20
1689.352522
 42
0.000000
  0
VERTEX
  8
0
 10
1063.500000
 20
1686.777046
 42
0.000000
  0
VERTEX
  8
0
 10
1054.143712
 20
1696.638523
 42
-0.039531
  0
VERTEX
  8
0
 10
1030.268515
 20
1726.157131
 42
-0.040896
  0
VERTEX
  8
0
 10
1011.639479
 20
1758.744230
 42
-0.038520
  0
VERTEX
  8
0
 10
997.713263
 20
1795.677385
 42
-0.028509
  0
VERTEX
  8
0
 10
987.903786
 20
1838.228478
 42
-0.029799
  0
VERTEX
  8
0
 10
986.179076
 20
1853.845414
 42
-0.007073
  0
VERTEX
  8
0
 10
985.229244
 20
1880.023014
 42
-0.007653
  0
VERTEX
  8
0
 10
985.044230
 20
1907.157622
 42
-0.016965
  0
VERTEX
  8
0
 10
985.921312
 20
1927.824217
 42
-0.034848
  0
VERTEX
  8
0
 10
994.145681
 20
1983.751370
 42
-0.025446
  0
VERTEX
  8
0
 10
1010.692799
 20
2044.351416
 42
-0.024336
  0
VERTEX
  8
0
 10
1034.367520
 20
2106.103484
 42
-0.024020
  0
VERTEX
  8
0
 10
1064.022386
 20
2165.539944
 42
-0.039112
  0
VERTEX
  8
0
 10
1134.558204
 20
2271.113050
 42
-0.039492
  0
VERTEX
  8
0
 10
1220.466474
 20
2364.046440
 42
-0.039761
  0
VERTEX
  8
0
 10
1319.316704
 20
2441.757298
 42
-0.040859
  0
VERTEX
  8
0
 10
1428.354457
 20
2502.046759
 42
0.011700
  0
VERTEX
  8
0
 10
1436.981885
 20
2506.180387
 42
0.071289
  0
VERTEX
  8
0
 10
1441.018825
 20
2509.017197
 42
0.181386
  0
VERTEX
  8
0
 10
1442.299330
 20
2511.621038
 42
0.171198
  0
VERTEX
  8
0
 10
1441.591957
 20
2514.500000
 42
0.225636
  0
VERTEX
  8
0
 10
1438.272205
 20
2516.521307
 42
0.098005
  0
VERTEX
  8
0
 10
1433.000609
 20
2516.033320
 42
0.035566
  0
VERTEX
  8
0
 10
1423.836276
 20
2512.596447
 42
0.004391
  0
VERTEX
  8
0
 10
1404.500000
 20
2503.524465
 42
0.018070
  0
VERTEX
  8
0
 10
1357.988980
 20
2479.097188
 42
0.017119
  0
VERTEX
  8
0
 10
1312.497682
 20
2450.957177
 42
0.016823
  0
VERTEX
  8
0
 10
1268.258701
 20
2419.251068
 42
0.016016
  0
VERTEX
  8
0
 10
1225.500000
 20
2384.138879
 42
0.012898
  0
VERTEX
  8
0
 10
1210.746692
 20
2370.522615
 42
0.003922
  0
VERTEX
  8
0
 10
1189.100586
 20
2349.152637
 42
0.003934
  0
VERTEX
  8
0
 10
1167.770856
 20
2327.422676
 42
0.012660
  0
VERTEX
  8
0
 10
1154.065111
 20
2312.500000
 42
0.037710
  0
VERTEX
  8
0
 10
1076.034308
 20
2208.179248
 42
0.042665
  0
VERTEX
  8
0
 10
1018.143439
 20
2097.401220
 42
0.045727
  0
VERTEX
  8
0
 10
983.139366
 20
1986.169214
 42
0.060456
  0
VERTEX
  8
0
 10
973.312894
 20
1880.500000
 42
0.010824
  0
VERTEX
  8
0
 10
974.379514
 20
1859.050863
 42
0.016167
  0
VERTEX
  8
0
 10
976.321968
 20
1840.380373
 42
0.016612
  0
VERTEX
  8
0
 10
979.418267
 20
1822.257552
 42
0.012394
  0
VERTEX
  8
0
 10
983.986530
 20
1802.500000
 42
0.027102
  0
VERTEX
  8
0
 10
993.830190
 20
1771.363261
 42
0.031774
  0
VERTEX
  8
0
 10
1006.566542
 20
1743.140560
 42
0.031918
  0
VERTEX
  8
0
 10
1022.721076
 20
1716.866115
 42
0.027806
  0
VERTEX
  8
0
 10
1042.795750
 20
1691.562307
 42
-0.003992
  0
VERTEX
  8
0
 10
1045.138421
 20
1688.882021
 42
-0.006625
  0
VERTEX
  8
0
 10
1047.065551
 20
1686.580311
 42
-0.001760
  0
VERTEX
  8
0
 10
1048.690323
 20
1684.572260
 42
-0.382741
  0
VERTEX
  8
0
 10
1048.677946
 20
1684.344613
 42
-0.142702
  0
VERTEX
  8
0
 10
1048.413078
 20
1684.199258
 42
-0.000340
  0
VERTEX
  8
0
 10
1044.088935
 20
1683.242561
 42
-0.002156
  0
VERTEX
  8
0
 10
1039.200172
 20
1682.186517
 42
-0.001335
  0
VERTEX
  8
0
 10
1033.448973
 20
1680.986141
 42
0.026278
  0
VERTEX
  8
0
 10
959.541165
 20
1661.670031
 42
0.032640
  0
VERTEX
  8
0
 10
893.396931
 20
1635.753306
 42
0.035627
  0
VERTEX
  8
0
 10
836.572853
 20
1603.974521
 42
0.047924
  0
VERTEX
  8
0
 10
790.638872
 20
1567.063378
 42
0.058991
  0
VERTEX
  8
0
 10
753.854568
 20
1521.599880
 42
0.072334
  0
VERTEX
  8
0
 10
731.699276
 20
1471.720258
 42
0.071834
  0
VERTEX
  8
0
 10
724.577288
 20
1417.312540
 42
0.057141
  0
VERTEX
  8
0
 10
732.111971
 20
1358.500000
 42
0.022368
  0
VERTEX
  8
0
 10
739.238561
 20
1334.292290
 42
0.023849
  0
VERTEX
  8
0
 10
748.371114
 20
1311.342317
 42
0.024640
  0
VERTEX
  8
0
 10
759.314458
 20
1290.098716
 42
0.028166
  0
VERTEX
  8
0
 10
771.862018
 20
1271.000000
 42
0.027693
  0
VERTEX
  8
0
 10
779.389718
 20
1261.934004
 42
0.012128
  0
VERTEX
  8
0
 10
790.295843
 20
1250.744767
 42
0.012132
  0
VERTEX
  8
0
 10
801.738482
 20
1240.091381
 42
0.027512
  0
VERTEX
  8
0
 10
811.000000
 20
1232.747545
 42
0.029490
  0
VERTEX
  8
0
 10
826.172458
 20
1223.310083
 42
0.024598
  0
VERTEX
  8
0
 10
843.282343
 20
1215.080941
 42
0.023783
  0
VERTEX
  8
0
 10
861.752053
 20
1208.306409
 42
0.022954
  0
VERTEX
  8
0
 10
881.000000
 20
1203.225250
 42
0.013384
  0
VERTEX
  8
0
 10
889.395318
 20
1201.650415
 42
0.024838
  0
VERTEX
  8
0
 10
896.283687
 20
1200.896604
 42
0.013248
  0
VERTEX
  8
0
 10
905.557602
 20
1200.591955
 42
0.001511
  0
VERTEX
  8
0
 10
926.500000
 20
1200.522409
 42
0.006046
  0
VERTEX
  8
0
 10
950.853119
 20
1200.809648
 42
0.022718
  0
VERTEX
  8
0
 10
966.092332
 20
1201.867663
 42
0.025029
  0
VERTEX
  8
0
 10
980.435124
 20
1204.252892
 42
0.008515
  0
VERTEX
  8
0
 10
1001.000000
 20
1209.108623
 42
0.022633
  0
VERTEX
  8
0
 10
1036.227994
 20
1219.780860
 42
0.022910
  0
VERTEX
  8
0
 10
1070.201494
 20
1233.556727
 42
0.020833
  0
VERTEX
  8
0
 10
1105.501287
 20
1251.607874
 42
0.013483
  0
VERTEX
  8
0
 10
1144.827969
 20
1275.252315
 42
-0.018063
  0
VERTEX
  8
0
 10
1174.045488
 20
1292.456525
 42
-0.022917
  0
VERTEX
  8
0
 10
1202.237274
 20
1306.082339
 42
-0.023669
  0
VERTEX
  8
0
 10
1230.770202
 20
1316.726687
 42
-0.021734
  0
VERTEX
  8
0
 10
1261.000000
 20
1324.971899
 42
-0.010305
  0
VERTEX
  8
0
 10
1280.100610
 20
1328.887659
 42
-0.012997
  0
VERTEX
  8
0
 10
1297.925253
 20
1331.683842
 42
-0.012160
  0
VERTEX
  8
0
 10
1316.798087
 20
1333.678388
 42
-0.007409
  0
VERTEX
  8
0
 10
1339.169113
 20
1335.160563
 42
-0.026219
  0
VERTEX
  8
0
 10
1390.783517
 20
1335.104563
 42
-0.018665
  0
VERTEX
  8
0
 10
1448.389170
 20
1329.857503
 42
-0.016813
  0
VERTEX
  8
0
 10
1511.828900
 20
1319.503503
 42
-0.012492
  0
VERTEX
  8
0
 10
1581.110389
 20
1303.982488
 42
-0.001652
  0
VERTEX
  8
0
 10
1601.300194
 20
1298.855639
 42
-0.002413
  0
VERTEX
  8
0
 10
1619.047711
 20
1294.195045
 42
-0.000859
  0
VERTEX
  8
0
 10
1634.435216
 20
1290.046387
 42
-0.061361
  0
VERTEX
  8
0
 10
1636.873954
 20
1289.050663
 42
-0.461581
  0
VERTEX
  8
0
 10
1637.020331
 20
1288.312292
 42
-0.045771
  0
VERTEX
  8
0
 10
1635.603926
 20
1286.824011
 42
-0.024866
  0
VERTEX
  8
0
 10
1632.790869
 20
1284.600216
 42
-0.005966
  0
VERTEX
  8
0
 10
1627.902681
 20
1281.203493
 42
0.001538
  0
VERTEX
  8
0
 10
1623.524567
 20
1278.218355
 42
0.001351
  0
VERTEX
  8
0
 10
1618.971957
 20
1275.075553
 42
0.001358
  0
VERTEX
  8
0
 10
1614.879039
 20
1272.217222
 42
0.004088
  0
VERTEX
  8
0
 10
1612.108235
 20
1270.236963
 42
0.000000
  0
VERTEX
  8
0
 10
1606.716470
 20
1266.316547
 42
0.000000
  0
VERTEX
  8
0
 10
1596.108235
 20
1268.648998
 42
0.003774
  0
VERTEX
  8
0
 10
1573.331803
 20
1273.476949
 42
0.001975
  0
VERTEX
  8
0
 10
1544.906068
 20
1279.161690
 42
0.001942
  0
VERTEX
  8
0
 10
1517.239189
 20
1284.469650
 42
0.005214
  0
VERTEX
  8
0
 10
1497.500000
 20
1287.964560
 42
0.014330
  0
VERTEX
  8
0
 10
1430.726565
 20
1297.112500
 42
0.019777
  0
VERTEX
  8
0
 10
1370.362165
 20
1301.220274
 42
0.022330
  0
VERTEX
  8
0
 10
1317.249076
 20
1300.356761
 42
0.036386
  0
VERTEX
  8
0
 10
1272.593458
 20
1294.352763
 42
0.054605
  0
VERTEX
  8
0
 10
1228.899950
 20
1280.091531
 42
0.085842
  0
VERTEX
  8
0
 10
1196.300670
 20
1257.986888
 42
0.110454
  0
VERTEX
  8
0
 10
1178.349638
 20
1230.805244
 42
0.149776
  0
VERTEX
  8
0
 10
1176.412067
 20
1201.624342
 42
0.099872
  0
VERTEX
  8
0
 10
1186.250562
 20
1180.179067
 42
0.069513
  0
VERTEX
  8
0
 10
1204.810820
 20
1160.961990
 42
0.060661
  0
VERTEX
  8
0
 10
1230.663571
 20
1145.366285
 42
0.046120
  0
VERTEX
  8
0
 10
1262.000000
 20
1134.651709
 42
0.012454
  0
VERTEX
  8
0
 10
1275.944991
 20
1131.644761
 42
0.020357
  0
VERTEX
  8
0
 10
1287.906136
 20
1129.876605
 42
0.018577
  0
VERTEX
  8
0
 10
1300.714335
 20
1128.992674
 42
0.008457
  0
VERTEX
  8
0
 10
1317.500000
 20
1128.743563
 42
0.008910
  0
VERTEX
  8
0
 10
1335.538326
 20
1129.102467
 42
0.014978
  0
VERTEX
  8
0
 10
1350.650412
 20
1130.126635
 42
0.015705
  0
VERTEX
  8
0
 10
1365.160403
 20
1132.009325
 42
0.011150
  0
VERTEX
  8
0
 10
1381.297820
 20
1134.991509
 42
0.034488
  0
VERTEX
  8
0
 10
1433.953053
 20
1149.790504
 42
0.030190
  0
VERTEX
  8
0
 10
1486.552384
 20
1172.233885
 42
0.028092
  0
VERTEX
  8
0
 10
1539.606815
 20
1202.598792
 42
0.021966
  0
VERTEX
  8
0
 10
1593.632538
 20
1241.161987
 42
-0.005451
  0
VERTEX
  8
0
 10
1600.244117
 20
1246.218945
 42
-0.011912
  0
VERTEX
  8
0
 10
1605.441537
 20
1249.915497
 42
-0.010185
  0
VERTEX
  8
0
 10
1609.474089
 20
1252.523216
 42
-0.140271
  0
VERTEX
  8
0
 10
1611.132538
 20
1252.991029
 42
-0.061285
  0
VERTEX
  8
0
 10
1618.350526
 20
1252.075207
 42
-0.001097
  0
VERTEX
  8
0
 10
1656.172641
 20
1242.384758
 42
-0.002754
  0
VERTEX
  8
0
 10
1699.831139
 20
1230.839978
 42
-0.001917
  0
VERTEX
  8
0
 10
1749.000000
 20
1217.345449
 42
0.000504
  0
VERTEX
  8
0
 10
1789.359339
 20
1206.146009
 42
0.001746
  0
VERTEX
  8
0
 10
1815.514379
 20
1199.014749
 42
0.002482
  0
VERTEX
  8
0
 10
1836.412622
 20
1193.506153
 42
0.002268
  0
VERTEX
  8
0
 10
1858.000000
 20
1188.034675
 42
0.009105
  0
VERTEX
  8
0
 10
1926.477999
 20
1172.326791
 42
0.012425
  0
VERTEX
  8
0
 10
1988.741565
 20
1160.840463
 42
0.013445
  0
VERTEX
  8
0
 10
2047.195633
 20
1153.157271
 42
0.014788
  0
VERTEX
  8
0
 10
2104.152131
 20
1148.921769
 42
0.011394
  0
VERTEX
  8
0
 10
2129.228287
 20
1148.373382
 42
0.005782
  0
VERTEX
  8
0
 10
2160.790751
 20
1148.767494
 42
0.005613
  0
VERTEX
  8
0
 10
2191.309088
 20
1149.844477
 42
0.017056
  0
VERTEX
  8
0
 10
2212.000000
 20
1151.515992
 42
0.015961
  0
VERTEX
  8
0
 10
2251.669233
 20
1157.375092
 42
0.019402
  0
VERTEX
  8
0
 10
2288.352345
 20
1165.476415
 42
0.020379
  0
VERTEX
  8
0
 10
2322.668199
 20
1175.975462
 42
0.021814
  0
VERTEX
  8
0
 10
2355.229120
 20
1189.029184
 42
0.041926
  0
VERTEX
  8
0
 10
2405.158745
 20
1216.873062
 42
0.042029
  0
VERTEX
  8
0
 10
2449.699587
 20
1252.635802
 42
0.041847
  0
VERTEX
  8
0
 10
2487.802916
 20
1295.503662
 42
0.040804
  0
VERTEX
  8
0
 10
2518.596884
 20
1344.466604
 42
0.024118
  0
VERTEX
  8
0
 10
2535.058506
 20
1380.206811
 42
0.034295
  0
VERTEX
  8
0
 10
2545.884945
 20
1413.450414
 42
0.038484
  0
VERTEX
  8
0
 10
2551.189307
 20
1444.473156
 42
0.048812
  0
VERTEX
  8
0
 10
2551.040200
 20
1473.528420
 42
0.040100
  0
VERTEX
  8
0
 10
2546.489556
 20
1498.139669
 42
0.047764
  0
VERTEX
  8
0
 10
2538.209967
 20
1520.240191
 42
0.046756
  0
VERTEX
  8
0
 10
2525.714913
 20
1540.741881
 42
0.035955
  0
VERTEX
  8
0
 10
2508.567299
 20
1560.584359
 42
0.060423
  0
VERTEX
  8
0
 10
2472.403258
 20
1588.974238
 42
0.041673
  0
VERTEX
  8
0
 10
2425.731836
 20
1612.187738
 42
0.036220
  0
VERTEX
  8
0
 10
2368.994625
 20
1630.102657
 42
0.024676
  0
VERTEX
  8
0
 10
2302.447852
 20
1642.493865
 42
0.001618
  0
VERTEX
  8
0
 10
2295.190214
 20
1643.453908
 42
0.002246
  0
VERTEX
  8
0
 10
2288.680996
 20
1644.263823
 42
0.001383
  0
VERTEX
  8
0
 10
2283.199352
 20
1644.905521
 42
0.028450
  0
VERTEX
  8
0
 10
2281.540227
 20
1645.000000
 42
-0.030538
  0
VERTEX
  8
0
 10
2280.576713
 20
1645.058903
 42
-0.036452
  0
VERTEX
  8
0
 10
2279.684212
 20
1645.235167
 42
-0.039498
  0
VERTEX
  8
0
 10
2278.974315
 20
1645.491736
 42
-0.148951
  0
VERTEX
  8
0
 10
2278.623256
 20
1645.800567
 42
-0.274473
  0
VERTEX
  8
0
 10
2278.612399
 20
1646.409709
 42
-0.002970
  0
VERTEX
  8
0
 10
2280.784685
 20
1650.169863
 42
-0.008253
  0
VERTEX
  8
0
 10
2283.435048
 20
1654.528673
 42
-0.005151
  0
VERTEX
  8
0
 10
2286.676104
 20
1659.550567
 42
0.036108
  0
VERTEX
  8
0
 10
2305.395583
 20
1692.919219
 42
0.032777
  0
VERTEX
  8
0
 10
2319.816816
 20
1729.715060
 42
0.030912
  0
VERTEX
  8
0
 10
2329.983230
 20
1770.171928
 42
0.025094
  0
VERTEX
  8
0
 10
2335.968565
 20
1814.500000
 42
0.016100
  0
VERTEX
  8
0
 10
2336.730563
 20
1829.186707
 42
0.004808
  0
VERTEX
  8
0
 10
2336.955426
 20
1851.621460
 42
0.004882
  0
VERTEX
  8
0
 10
2336.744270
 20
1874.186048
 42
0.014587
  0
VERTEX
  8
0
 10
2335.999072
 20
1889.604783
 42
0.032001
  0
VERTEX
  8
0
 10
2324.282087
 20
1971.889791
 42
0.028292
  0
VERTEX
  8
0
 10
2301.849214
 20
2055.545699
 42
0.027708
  0
VERTEX
  8
0
 10
2269.522091
 20
2137.922265
 42
0.027546
  0
VERTEX
  8
0
 10
2228.228368
 20
2216.386689
 42
0.012467
  0
VERTEX
  8
0
 10
2208.585510
 20
2247.409564
 42
0.015627
  0
VERTEX
  8
0
 10
2188.784062
 20
2275.108766
 42
0.016185
  0
VERTEX
  8
0
 10
2167.916499
 20
2300.690296
 42
0.015348
  0
VERTEX
  8
0
 10
2145.077202
 20
2325.338712
 42
0.012248
  0
VERTEX
  8
0
 10
2122.088830
 20
2347.553508
 42
0.022140
  0
VERTEX
  8
0
 10
2102.062296
 20
2364.405168
 42
0.025003
  0
VERTEX
  8
0
 10
2082.439372
 20
2377.981739
 42
0.022348
  0
VERTEX
  8
0
 10
2060.824967
 20
2390.088005
 42
0.006845
  0
VERTEX
  8
0
 10
2052.577735
 20
2394.094147
 42
0.037141
  0
VERTEX
  8
0
 10
2047.934623
 20
2395.864396
 42
0.075749
  0
VERTEX
  8
0
 10
2044.848034
 20
2396.295570
 42
0.142867
  0
VERTEX
  8
0
 10
2042.462792
 20
2395.567577
 42
0.162658
  0
VERTEX
  8
0
 10
2041.141134
 20
2393.893394
 42
0.061216
  0
VERTEX
  8
0
 10
2040.470792
 20
2390.944136
 42
0.019112
  0
VERTEX
  8
0
 10
2040.109197
 20
2385.211748
 42
0.001286
  0
VERTEX
  8
0
 10
2039.744845
 20
2368.806156
 42
-0.008038
  0
VERTEX
  8
0
 10
2039.086263
 20
2350.371241
 42
-0.018687
  0
VERTEX
  8
0
 10
2037.855302
 20
2336.600824
 42
-0.020494
  0
VERTEX
  8
0
 10
2035.681912
 20
2323.747457
 42
-0.011757
  0
VERTEX
  8
0
 10
2032.066672
 20
2308.445154
 42
-0.047951
  0
VERTEX
  8
0
 10
2016.976488
 20
2267.276913
 42
-0.040259
  0
VERTEX
  8
0
 10
1993.564380
 20
2227.102207
 42
-0.038166
  0
VERTEX
  8
0
 10
1962.601703
 20
2189.157304
 42
-0.033735
  0
VERTEX
  8
0
 10
1925.000000
 20
2154.641025
 42
-0.012200
  0
VERTEX
  8
0
 10
1913.315526
 20
2145.743693
 42
-0.005235
  0
VERTEX
  8
0
 10
1897.308616
 20
2134.414245
 42
-0.001371
  0
VERTEX
  8
0
 10
1880.431673
 20
2122.800574
 42
-0.151130
  0
VERTEX
  8
0
 10
1877.843538
 20
2122.000000
 42
-0.603763
  0
VERTEX
  8
0
 10
1877.694281
 20
2122.283618
 42
-0.008391
  0
VERTEX
  8
0
 10
1879.113193
 20
2124.276563
 42
-0.012625
  0
VERTEX
  8
0
 10
1881.056273
 20
2126.776364
 42
-0.006879
  0
VERTEX
  8
0
 10
1883.559648
 20
2129.750000
 42
0.005616
  0
VERTEX
  8
0
 10
1901.374498
 20
2150.803196
 42
0.008191
  0
VERTEX
  8
0
 10
1916.554545
 20
2169.781348
 42
0.008954
  0
VERTEX
  8
0
 10
1929.994240
 20
2187.818217
 42
0.009462
  0
VERTEX
  8
0
 10
1942.527830
 20
2206.000000
 42
0.020034
  0
VERTEX
  8
0
 10
1965.497499
 20
2243.926356
 42
0.025071
  0
VERTEX
  8
0
 10
1983.551162
 20
2280.887828
 42
0.026727
  0
VERTEX
  8
0
 10
1996.868361
 20
2317.281238
 42
0.030053
  0
VERTEX
  8
0
 10
2005.626608
 20
2353.500000
 42
0.016854
  0
VERTEX
  8
0
 10
2006.478620
 20
2359.397890
 42
0.012685
  0
VERTEX
  8
0
 10
2007.031041
 20
2365.928009
 42
0.009889
  0
VERTEX
  8
0
 10
2007.345172
 20
2373.927270
 42
0.004375
  0
VERTEX
  8
0
 10
2007.458553
 20
2384.500000
 42
0.009224
  0
VERTEX
  8
0
 10
2007.191117
 20
2400.731755
 42
0.042218
  0
VERTEX
  8
0
 10
2006.069885
 20
2410.084800
 42
0.048099
  0
VERTEX
  8
0
 10
2003.455115
 20
2418.543004
 42
0.014315
  0
VERTEX
  8
0
 10
1997.878533
 20
2430.878681
 42
0.008950
  0
VERTEX
  8
0
 10
1994.193558
 20
2438.113303
 42
0.029651
  0
VERTEX
  8
0
 10
1991.409226
 20
2442.672178
 42
0.031633
  0
VERTEX
  8
0
 10
1988.200524
 20
2446.715484
 42
0.011288
  0
VERTEX
  8
0
 10
1983.139910
 20
2452.075910
 42
0.010261
  0
VERTEX
  8
0
 10
1978.413997
 20
2456.668254
 42
0.024609
  0
VERTEX
  8
0
 10
1974.683070
 20
2459.819303
 42
0.029598
  0
VERTEX
  8
0
 10
1971.109416
 20
2462.227364
 42
0.022959
  0
VERTEX
  8
0
 10
1966.964912
 20
2464.426630
 42
0.032062
  0
VERTEX
  8
0
 10
1960.957287
 20
2466.811200
 42
0.027163
  0
VERTEX
  8
0
 10
1954.353548
 20
2468.563958
 42
0.027960
  0
VERTEX
  8
0
 10
1948.183092
 20
2469.491604
 42
0.070666
  0
VERTEX
  8
0
 10
1943.659768
 20
2469.275293
 42
0.159743
  0
VERTEX
  8
0
 10
1940.990899
 20
2467.797492
 42
0.149937
  0
VERTEX
  8
0
 10
1939.631387
 20
2464.987657
 42
0.048767
  0
VERTEX
  8
0
 10
1939.320049
 20
2459.386031
 42
0.004645
  0
VERTEX
  8
0
 10
1940.022500
 20
2445.685025
 42
-0.048077
  0
VERTEX
  8
0
 10
1937.740453
 20
2381.544742
 42
-0.053920
  0
VERTEX
  8
0
 10
1923.099172
 20
2321.553921
 42
-0.053280
  0
VERTEX
  8
0
 10
1895.769854
 20
2265.490382
 42
-0.045138
  0
VERTEX
  8
0
 10
1855.845938
 20
2213.000000
 42
-0.012896
  0
VERTEX
  8
0
 10
1846.560011
 20
2203.351515
 42
-0.009151
  0
VERTEX
  8
0
 10
1835.676588
 20
2192.997993
 42
-0.008641
  0
VERTEX
  8
0
 10
1823.660030
 20
2182.354698
 42
-0.007943
  0
VERTEX
  8
0
 10
1810.944950
 20
2171.824026
 42
-0.002044
  0
VERTEX
  8
0
 10
1798.695094
 20
2162.084469
 42
-0.182214
  0
VERTEX
  8
0
 10
1796.516690
 20
2161.393455
 42
-0.613994
  0
VERTEX
  8
0
 10
1796.079272
 20
2162.383029
 42
-0.003603
  0
VERTEX
  8
0
 10
1804.205914
 20
2172.183568
 42
0.044659
  0
VERTEX
  8
0
 10
1839.717278
 20
2222.966059
 42
0.036708
  0
VERTEX
  8
0
 10
1868.361330
 20
2282.628262
 42
0.034360
  0
VERTEX
  8
0
 10
1889.584641
 20
2349.917268
 42
0.028884
  0
VERTEX
  8
0
 10
1902.904883
 20
2423.500000
 42
0.011839
  0
VERTEX
  8
0
 10
1905.581950
 20
2450.826228
 42
0.013933
  0
VERTEX
  8
0
 10
1906.780725
 20
2476.802822
 42
0.013678
  0
VERTEX
  8
0
 10
1906.581265
 20
2498.717551
 42
0.065710
  0
VERTEX
  8
0
 10
1904.502136
 20
2511.000000
 42
0.043467
  0
VERTEX
  8
0
 10
1900.527229
 20
2520.786775
 42
0.040107
  0
VERTEX
  8
0
 10
1894.828675
 20
2530.022245
 42
0.041062
  0
VERTEX
  8
0
 10
1887.895432
 20
2538.005918
 42
0.052159
  0
VERTEX
  8
0
 10
1880.244605
 20
2544.059830
 42
0.028528
  0
VERTEX
  8
0
 10
1875.523508
 20
2546.689060
 42
0.012806
  0
VERTEX
  8
0
 10
1869.053983
 20
2549.620821
 42
0.012302
  0
VERTEX
  8
0
 10
1862.627031
 20
2552.152640
 42
0.041865
  0
VERTEX
  8
0
 10
1858.289406
 20
2553.339044
 42
0.086608
  0
VERTEX
  8
0
 10
1856.192163
 20
2553.361105
 42
0.088915
  0
VERTEX
  8
0
 10
1854.232313
 20
2552.668651
 42
0.041870
  0
VERTEX
  8
0
 10
1851.641261
 20
2550.893416
 42
0.005829
  0
VERTEX
  8
0
 10
1846.642875
 20
2546.717119
 42
-0.019542
  0
VERTEX
  8
0
 10
1838.497576
 20
2540.282370
 42
-0.021925
  0
VERTEX
  8
0
 10
1830.173307
 20
2534.760636
 42
-0.021577
  0
VERTEX
  8
0
 10
1821.278582
 20
2529.916450
 42
-0.017819
  0
VERTEX
  8
0
 10
1811.419258
 20
2525.514533
 42
-0.033257
  0
VERTEX
  8
0
 10
1784.878342
 20
2516.784112
 42
-0.026829
  0
VERTEX
  8
0
 10
1755.439248
 20
2510.888280
 42
-0.024293
  0
VERTEX
  8
0
 10
1722.648409
 20
2507.749355
 42
-0.017666
  0
VERTEX
  8
0
 10
1686.000000
 20
2507.326811
 42
-0.015462
  0
VERTEX
  8
0
 10
1653.684196
 20
2509.096963
 42
-0.017985
  0
VERTEX
  8
0
 10
1623.139945
 20
2512.829867
 42
-0.018906
  0
VERTEX
  8
0
 10
1594.400059
 20
2518.517713
 42
-0.021736
  0
VERTEX
  8
0
 10
1567.500000
 20
2526.155637
 42
-0.020448
  0
VERTEX
  8
0
 10
1552.592812
 20
2531.783973
 42
-0.018506
  0
VERTEX
  8
0
 10
1537.680251
 20
2538.784687
 42
-0.018437
  0
VERTEX
  8
0
 10
1524.927367
 20
2545.964912
 42
-0.064854
  0
VERTEX
  8
0
 10
1517.615653
 20
2551.867800
 42
0.000000
  0
VERTEX
  8
0
 10
1514.731306
 20
2554.889894
 42
0.000000
  0
VERTEX
  8
0
 10
1522.038890
 20
2566.194947
 42
0.011950
  0
VERTEX
  8
0
 10
1528.801516
 20
2577.226515
 42
0.014111
  0
VERTEX
  8
0
 10
1534.646677
 20
2587.981596
 42
0.015222
  0
VERTEX
  8
0
 10
1539.434674
 20
2598.174097
 42
0.021787
  0
VERTEX
  8
0
 10
1543.000373
 20
2607.501120
 42
0.000000
  0
VERTEX
  8
0
 10
1546.213168
 20
2617.144800
 42
0.000000
  0
VERTEX
  8
0
 10
1560.356584
 20
2603.272518
 42
0.014901
  0
VERTEX
  8
0
 10
1575.891384
 20
2588.918290
 42
0.031215
  0
VERTEX
  8
0
 10
1588.946039
 20
2578.917439
 42
0.035811
  0
VERTEX
  8
0
 10
1601.914999
 20
2571.496916
 42
0.027470
  0
VERTEX
  8
0
 10
1617.000000
 20
2565.239795
 42
0.021477
  0
VERTEX
  8
0
 10
1625.792366
 20
2562.565032
 42
0.026423
  0
VERTEX
  8
0
 10
1634.196962
 20
2560.865381
 42
0.024033
  0
VERTEX
  8
0
 10
1643.354014
 20
2559.959114
 42
0.013610
  0
VERTEX
  8
0
 10
1654.500000
 20
2559.698561
 42
0.025800
  0
VERTEX
  8
0
 10
1669.564322
 20
2560.534523
 42
0.035635
  0
VERTEX
  8
0
 10
1682.887401
 20
2562.935032
 42
0.032973
  0
VERTEX
  8
0
 10
1696.489796
 20
2567.373761
 42
0.018136
  0
VERTEX
  8
0
 10
1712.500000
 20
2574.477713
 42
0.038542
  0
VERTEX
  8
0
 10
1739.676003
 20
2590.434482
 42
0.029161
  0
VERTEX
  8
0
 10
1766.880942
 20
2611.823430
 42
0.027013
  0
VERTEX
  8
0
 10
1793.510179
 20
2638.092949
 42
0.022412
  0
VERTEX
  8
0
 10
1818.958109
 20
2668.715694
 42
-0.003556
  0
VERTEX
  8
0
 10
1821.068677
 20
2671.459617
 42
-0.005973
  0
VERTEX
  8
0
 10
1822.884768
 20
2673.729828
 42
-0.001444
  0
VERTEX
  8
0
 10
1824.479682
 20
2675.664026
 42
-0.441709
  0
VERTEX
  8
0
 10
1824.660880
 20
2675.672454
 42
-0.119853
  0
VERTEX
  8
0
 10
1824.799466
 20
2675.444797
 42
-0.000329
  0
VERTEX
  8
0
 10
1825.898518
 20
2671.985267
 42
-0.001964
  0
VERTEX
  8
0
 10
1827.123221
 20
2668.068048
 42
-0.001222
  0
VERTEX
  8
0
 10
1828.530549
 20
2663.463896
 42
0.011082
  0
VERTEX
  8
0
 10
1832.325298
 20
2651.871937
 42
0.011418
  0
VERTEX
  8
0
 10
1836.594850
 20
2640.575627
 42
0.012116
  0
VERTEX
  8
0
 10
1840.991705
 20
2630.415685
 42
0.021756
  0
VERTEX
  8
0
 10
1845.155762
 20
2622.341805
 42
0.079140
  0
VERTEX
  8
0
 10
1858.289156
 20
2606.021592
 42
0.168027
  0
VERTEX
  8
0
 10
1873.025144
 20
2599.751644
 42
0.182285
  0
VERTEX
  8
0
 10
1887.628478
 20
2604.129732
 42
0.095016
  0
VERTEX
  8
0
 10
1900.474430
 20
2618.500000
 42
0.032172
  0
VERTEX
  8
0
 10
1904.489847
 20
2626.295231
 42
0.037679
  0
VERTEX
  8
0
 10
1907.232114
 20
2634.146764
 42
0.036402
  0
VERTEX
  8
0
 10
1908.829791
 20
2642.548083
 42
0.026865
  0
VERTEX
  8
0
 10
1909.411216
 20
2652.000000
 42
0.011470
  0
VERTEX
  8
0
 10
1909.306063
 20
2658.908918
 42
0.025477
  0
VERTEX
  8
0
 10
1908.837762
 20
2664.150912
 42
0.021027
  0
VERTEX
  8
0
 10
1907.779990
 20
2669.895600
 42
0.005676
  0
VERTEX
  8
0
 10
1905.618987
 20
2678.901899
 42
-0.004805
  0
VERTEX
  8
0
 10
1903.297615
 20
2688.502834
 42
-0.026217
  0
VERTEX
  8
0
 10
1902.366240
 20
2693.764367
 42
-0.032553
  0
VERTEX
  8
0
 10
1902.087255
 20
2698.594395
 42
-0.009983
  0
VERTEX
  8
0
 10
1902.287182
 20
2705.901899
 42
-0.042467
  0
VERTEX
  8
0
 10
1904.742255
 20
2724.364351
 42
-0.017197
  0
VERTEX
  8
0
 10
1911.065392
 20
2748.976199
 42
-0.010693
  0
VERTEX
  8
0
 10
1922.343180
 20
2784.519134
 42
-0.002679
  0
VERTEX
  8
0
 10
1942.288787
 20
2842.000000
 42
0.003721
  0
VERTEX
  8
0
 10
1959.355610
 20
2891.517470
 42
0.017729
  0
VERTEX
  8
0
 10
1967.886372
 20
2920.207741
 42
0.030027
  0
VERTEX
  8
0
 10
1972.033462
 20
2941.368957
 42
0.033951
  0
VERTEX
  8
0
 10
1973.390326
 20
2962.019760
 42
0.004208
  0
VERTEX
  8
0
 10
1973.295295
 20
2970.915525
 42
0.028808
  0
VERTEX
  8
0
 10
1972.959676
 20
2975.282757
 42
0.048345
  0
VERTEX
  8
0
 10
1972.181985
 20
2978.590575
 42
0.025457
  0
VERTEX
  8
0
 10
1970.620933
 20
2982.516815
 42
0.022752
  0
VERTEX
  8
0
 10
1968.211039
 20
2987.204805
 42
0.049080
  0
VERTEX
  8
0
 10
1965.861054
 20
2990.507630
 42
0.055460
  0
VERTEX
  8
0
 10
1963.111094
 20
2993.036297
 42
0.037721
  0
VERTEX
  8
0
 10
1959.500000
 20
2995.286642
 42
0.078877
  0
VERTEX
  8
0
 10
1954.530916
 20
2996.957927
 42
0.046355
  0
VERTEX
  8
0
 10
1948.263772
 20
2997.424931
 42
0.042427
  0
VERTEX
  8
0
 10
1941.345282
 20
2996.709311
 42
0.038390
  0
VERTEX
  8
0
 10
1934.403091
 20
2994.828186
 42
0.000000
  0
VERTEX
  8
0
 10
1927.306183
 20
2992.306897
 42
0.000000
  0
VERTEX
  8
0
 10
1929.160088
 20
3002.403448
 42
0.004790
  0
VERTEX
  8
0
 10
1934.909405
 20
3035.496463
 42
0.014052
  0
VERTEX
  8
0
 10
1938.007739
 20
3058.422196
 42
0.016809
  0
VERTEX
  8
0
 10
1939.513699
 20
3079.124924
 42
0.009750
  0
VERTEX
  8
0
 10
1940.000000
 20
3104.061241
 42
0.011410
  0
VERTEX
  8
0
 10
1939.514093
 20
3125.351033
 42
0.022689
  0
VERTEX
  8
0
 10
1937.981252
 20
3142.147157
 42
0.023352
  0
VERTEX
  8
0
 10
1934.968122
 20
3158.421209
 42
0.012882
  0
VERTEX
  8
0
 10
1929.853254
 20
3178.000000
 42
0.048709
  0
VERTEX
  8
0
 10
1915.345546
 20
3214.466894
 42
0.052230
  0
VERTEX
  8
0
 10
1894.325381
 20
3246.526543
 42
0.051977
  0
VERTEX
  8
0
 10
1867.016530
 20
3273.662772
 42
0.047405
  0
VERTEX
  8
0
 10
1833.880529
 20
3295.544704
 42
-0.003538
  0
VERTEX
  8
0
 10
1829.058055
 20
3298.154025
 42
-0.005045
  0
VERTEX
  8
0
 10
1824.816476
 20
3300.544052
 42
-0.002877
  0
VERTEX
  8
0
 10
1821.276141
 20
3302.613515
 42
-0.073150
  0
VERTEX
  8
0
 10
1820.409603
 20
3303.315348
 42
-0.090957
  0
VERTEX
  8
0
 10
1819.873435
 20
3304.165670
 42
-0.008394
  0
VERTEX
  8
0
 10
1818.982342
 20
3306.502008
 42
-0.010604
  0
VERTEX
  8
0
 10
1818.018454
 20
3309.349667
 42
-0.008123
  0
VERTEX
  8
0
 10
1817.082038
 20
3312.500000
 42
0.061136
  0
VERTEX
  8
0
 10
1807.017941
 20
3336.653253
 42
0.053623
  0
VERTEX
  8
0
 10
1791.036893
 20
3358.847321
 42
0.051492
  0
VERTEX
  8
0
 10
1769.996629
 20
3377.931956
 42
0.047680
  0
VERTEX
  8
0
 10
1744.971948
 20
3392.882144
 42
0.013571
  0
VERTEX
  8
0
 10
1735.794564
 20
3396.937569
 42
0.010564
  0
VERTEX
  8
0
 10
1725.614587
 20
3400.860560
 42
0.010567
  0
VERTEX
  8
0
 10
1715.282208
 20
3404.348536
 42
0.013613
  0
VERTEX
  8
0
 10
1705.644945
 20
3407.090654
 42
-0.003490
  0
VERTEX
  8
0
 10
1702.481617
 20
3407.921885
 42
-0.004899
  0
VERTEX
  8
0
 10
1699.670636
 20
3408.711178
 42
-0.002970
  0
VERTEX
  8
0
 10
1697.318910
 20
3409.411629
 42
-0.064629
  0
VERTEX
  8
0
 10
1696.664158
 20
3409.707562
 42
-0.442658
  0
VERTEX
  8
0
 10
1696.592723
 20
3410.091919
 42
-0.041468
  0
VERTEX
  8
0
 10
1697.315512
 20
3410.895380
 42
-0.032378
  0
VERTEX
  8
0
 10
1698.524582
 20
3411.894458
 42
-0.017272
  0
VERTEX
  8
0
 10
1700.135567
 20
3412.976163
 42
0.038453
  0
VERTEX
  8
0
 10
1705.240922
 20
3416.727082
 42
0.031212
  0
VERTEX
  8
0
 10
1710.104660
 20
3421.470848
 42
0.031496
  0
VERTEX
  8
0
 10
1714.287848
 20
3426.723831
 42
0.041930
  0
VERTEX
  8
0
 10
1717.349022
 20
3432.000000
 42
0.020780
  0
VERTEX
  8
0
 10
1719.071471
 20
3436.069897
 42
0.043341
  0
VERTEX
  8
0
 10
1719.996254
 20
3439.383293
 42
0.031432
  0
VERTEX
  8
0
 10
1720.494138
 20
3443.420408
 42
0.006631
  0
VERTEX
  8
0
 10
1720.825173
 20
3450.518711
 42
0.051511
  0
VERTEX
  8
0
 10
1719.465143
 20
3470.030780
 42
0.040076
  0
VERTEX
  8
0
 10
1714.145455
 20
3490.638268
 42
0.028855
  0
VERTEX
  8
0
 10
1703.821728
 20
3515.722734
 42
0.010522
  0
VERTEX
  8
0
 10
1686.445901
 20
3550.000000
 42
-0.001633
  0
VERTEX
  8
0
 10
1681.030699
 20
3560.227601
 42
-0.001220
  0
VERTEX
  8
0
 10
1675.124528
 20
3571.538096
 42
-0.001233
  0
VERTEX
  8
0
 10
1669.611614
 20
3582.222901
 42
-0.002811
  0
VERTEX
  8
0
 10
1665.515822
 20
3590.321179
 42
0.002096
  0
VERTEX
  8
0
 10
1662.215444
 20
3596.869973
 42
0.003041
  0
VERTEX
  8
0
 10
1659.242702
 20
3602.620852
 42
0.001547
  0
VERTEX
  8
0
 10
1656.677696
 20
3607.473272
 42
0.050885
  0
VERTEX
  8
0
 10
1655.940927
 20
3608.571179
 42
0.137696
  0
VERTEX
  8
0
 10
1654.001757
 20
3609.910402
 42
0.175852
  0
VERTEX
  8
0
 10
1651.845720
 20
3609.872852
 42
0.117544
  0
VERTEX
  8
0
 10
1649.556317
 20
3608.308024
 42
0.047018
  0
SEQEND
  0
POLYLINE
  8
0
 66
1
 70
1
  0
VERTEX
  8
0
 10
1669.056047
 20
3558.491143
 42
-0.005281
  0
VERTEX
  8
0
 10
1683.885787
 20
3530.070822
 42
-0.011436
  0
VERTEX
  8
0
 10
1694.549394
 20
3507.853963
 42
-0.014698
  0
VERTEX
  8
0
 10
1702.133620
 20
3489.674740
 42
-0.025106
  0
VERTEX
  8
0
 10
1707.238258
 20
3474.043277
 42
-0.020196
  0
VERTEX
  8
0
 10
1708.198148
 20
3469.850395
 42
-0.018698
  0
VERTEX
  8
0
 10
1708.845807
 20
3465.484679
 42
-0.016143
  0
VERTEX
  8
0
 10
1709.231399
 20
3460.525841
 42
-0.009132
  0
VERTEX
  8
0
 10
1709.394475
 20
3454.500000
 42
-0.006042
  0
VERTEX
  8
0
 10
1709.371733
 20
3447.588784
 42
-0.028686
  0
VERTEX
  8
0
 10
1709.084393
 20
3443.645073
 42
-0.043941
  0
VERTEX
  8
0
 10
1708.411027
 20
3440.604070
 42
-0.029741
  0
VERTEX
  8
0
 10
1707.142444
 20
3437.286236
 42
-0.098996
  0
VERTEX
  8
0
 10
1700.389493
 20
3427.867266
 42
-0.077566
  0
VERTEX
  8
0
 10
1689.965704
 20
3420.787689
 42
-0.065844
  0
VERTEX
  8
0
 10
1676.240951
 20
3416.386853
 42
-0.043921
  0
VERTEX
  8
0
 10
1659.778201
 20
3414.884449
 42
-0.041000
  0
VERTEX
  8
0
 10
1642.570084
 20
3416.242072
 42
-0.056133
  0
VERTEX
  8
0
 10
1627.617666
 20
3420.425942
 42
-0.064538
  0
VERTEX
  8
0
 10
1615.690067
 20
3427.158666
 42
-0.091484
  0
VERTEX
  8
0
 10
1607.442538
 20
3436.091025
 42
-0.088266
  0
VERTEX
  8
0
 10
1603.314677
 20
3446.218821
 42
-0.053209
  0
VERTEX
  8
0
 10
1601.956694
 20
3459.150643
 42
-0.045296
  0
VERTEX
  8
0
 10
1603.355336
 20
3474.273825
 42
-0.031082
  0
VERTEX
  8
0
 10
1607.535404
 20
3491.000000
 42
-0.015504
  0
VERTEX
  8
0
 10
1612.359362
 20
3504.722350
 42
-0.010658
  0
VERTEX
  8
0
 10
1618.635428
 20
3519.974623
 42
-0.007686
  0
VERTEX
  8
0
 10
1627.434941
 20
3539.311669
 42
-0.002783
  0
VERTEX
  8
0
 10
1640.501128
 20
3566.500000
 42
0.000000
  0
VERTEX
  8
0
 10
1652.199948
 20
3590.500000
 42
0.000000
  0
VERTEX
  8
0
 10
1654.201855
 20
3586.500000
 42
0.005507
  0
VERTEX
  8
0
 10
1655.550515
 20
3583.877811
 42
0.000392
  0
VERTEX
  8
0
 10
1659.391061
 20
3576.622398
 42
0.000552
  0
VERTEX
  8
0
 10
1663.987474
 20
3567.978540
 42
0.000417
  0
SEQEND
  0
POLYLINE
  8
0
 66
1
 70
1
  0
VERTEX
  8
0
 10
1681.871662
 20
3400.449518
 42
-0.049051
  0
VERTEX
  8
0
 10
1725.015134
 20
3389.759685
 42
-0.067265
  0
VERTEX
  8
0
 10
1760.533021
 20
3371.483327
 42
-0.074728
  0
VERTEX
  8
0
 10
1787.143190
 20
3346.255299
 42
-0.082227
  0
VERTEX
  8
0
 10
1804.122202
 20
3315.085923
 42
-0.005956
  0
VERTEX
  8
0
 10
1804.823322
 20
3312.989869
 42
-0.009461
  0
VERTEX
  8
0
 10
1805.367868
 20
3311.178044
 42
-0.003905
  0
VERTEX
  8
0
 10
1805.786547
 20
3309.636688
 42
-0.266777
  0
VERTEX
  8
0
 10
1805.718585
 20
3309.385252
 42
-0.272766
  0
VERTEX
  8
0
 10
1805.452052
 20
3309.316393
 42
-0.000800
  0
VERTEX
  8
0
 10
1801.854292
 20
3310.356219
 42
-0.004207
  0
VERTEX
  8
0
 10
1797.766050
 20
3311.582291
 42
-0.002578
  0
VERTEX
  8
0
 10
1792.965996
 20
3313.093124
 42
0.012318
  0
VERTEX
  8
0
 10
1775.724089
 20
3318.153146
 42
0.012500
  0
VERTEX
  8
0
 10
1758.337562
 20
3322.331053
 42
0.012030
  0
VERTEX
  8
0
 10
1740.151043
 20
3325.767737
 42
0.009750
  0
VERTEX
  8
0
 10
1720.500000
 20
3328.601305
 42
0.022031
  0
VERTEX
  8
0
 10
1703.204030
 20
3329.981908
 42
0.005050
  0
VERTEX
  8
0
 10
1673.892788
 20
3330.729493
 42
0.005377
  0
VERTEX
  8
0
 10
1644.128936
 20
3330.867806
 42
0.015979
  0
VERTEX
  8
0
 10
1623.742493
 20
3330.091491
 42
0.007957
  0
VERTEX
  8
0
 10
1601.994171
 20
3328.218022
 42
0.007018
  0
VERTEX
  8
0
 10
1579.383482
 20
3325.586109
 42
0.007044
  0
VERTEX
  8
0
 10
1556.953582
 20
3322.333656
 42
0.008215
  0
VERTEX
  8
0
 10
1535.750000
 20
3318.595229
 42
-0.005686
  0
VERTEX
  8
0
 10
1526.491331
 20
3316.914500
 42
-0.221649
  0
VERTEX
  8
0
 10
1524.524841
 20
3317.454599
 42
-0.297460
  0
VERTEX
  8
0
 10
1524.005316
 20
3319.206691
 42
-0.009558
  0
VERTEX
  8
0
 10
1526.358285
 20
3326.574848
 42
-0.083614
  0
VERTEX
  8
0
 10
1540.920323
 20
3353.546196
 42
-0.075745
  0
VERTEX
  8
0
 10
1563.948614
 20
3375.332608
 42
-0.067631
  0
VERTEX
  8
0
 10
1594.898198
 20
3391.109909
 42
-0.048212
  0
VERTEX
  8
0
 10
1632.736683
 20
3400.370806
 42
-0.022600
  0
VERTEX
  8
0
 10
1643.906184
 20
3401.474434
 42
-0.012924
  0
VERTEX
  8
0
 10
1657.454203
 20
3401.846404
 42
-0.012934
  0
VERTEX
  8
0
 10
1670.934274
 20
3401.519254
 42
-0.023687
  0
SEQEND
  0
POLYLINE
  8
0
 66
1
 70
1
  0
VERTEX
  8
0
 10
1690.500000
 20
3288.974501
 42
-0.012645
  0
VERTEX
  8
0
 10
1718.770067
 20
3286.199992
 42
-0.014045
  0
VERTEX
  8
0
 10
1745.885016
 20
3282.068522
 42
-0.012792
  0
VERTEX
  8
0
 10
1774.791096
 20
3276.062104
 42
-0.007790
  0
VERTEX
  8
0
 10
1808.625480
 20
3267.565477
 42
0.021471
  0
VERTEX
  8
0
 10
1817.632849
 20
3265.563737
 42
0.221754
  0
VERTEX
  8
0
 10
1821.214671
 20
3266.519271
 42
0.212267
  0
VERTEX
  8
0
 10
1822.874780
 20
3269.909761
 42
0.019617
  0
VERTEX
  8
0
 10
1822.853431
 20
3279.480313
 42
-0.009940
  0
VERTEX
  8
0
 10
1822.782923
 20
3282.747090
 42
-0.016557
  0
VERTEX
  8
0
 10
1822.869341
 20
3285.497504
 42
-0.010529
  0
VERTEX
  8
0
 10
1823.057320
 20
3287.688733
 42
-0.383361
  0
VERTEX
  8
0
 10
1823.403900
 20
3288.000145
 42
-0.126677
  0
VERTEX
  8
0
 10
1825.125598
 20
3287.556538
 42
-0.003751
  0
VERTEX
  8
0
 10
1831.687295
 20
3283.871661
 42
-0.007966
  0
VERTEX
  8
0
 10
1838.782334
 20
3279.665621
 42
-0.008379
  0
VERTEX
  8
0
 10
1845.619765
 20
3275.304146
 42
-0.041618
  0
VERTEX
  8
0
 10
1869.088306
 20
3256.796708
 42
-0.042544
  0
VERTEX
  8
0
 10
1888.979436
 20
3234.784270
 42
-0.042208
  0
VERTEX
  8
0
 10
1904.990250
 20
3209.551281
 42
-0.039669
  0
VERTEX
  8
0
 10
1916.921373
 20
3181.468829
 42
-0.012057
  0
VERTEX
  8
0
 10
1918.710183
 20
3175.651952
 42
-0.005303
  0
VERTEX
  8
0
 10
1920.809165
 20
3167.875218
 42
-0.005244
  0
VERTEX
  8
0
 10
1922.862454
 20
3159.575726
 42
-0.007009
  0
VERTEX
  8
0
 10
1924.540814
 20
3152.000000
 42
-0.006438
  0
VERTEX
  8
0
 10
1926.635710
 20
3141.173149
 42
-0.018996
  0
VERTEX
  8
0
 10
1927.695249
 20
3133.668938
 42
-0.016115
  0
VERTEX
  8
0
 10
1928.270280
 20
3125.473688
 42
-0.003628
  0
VERTEX
  8
0
 10
1928.697580
 20
3111.500000
 42
-0.005043
  0
VERTEX
  8
0
 10
1928.831436
 20
3101.380670
 42
-0.004730
  0
VERTEX
  8
0
 10
1928.766105
 20
3091.041615
 42
-0.004917
  0
VERTEX
  8
0
 10
1928.524854
 20
3081.624056
 42
-0.011099
  0
VERTEX
  8
0
 10
1928.113748
 20
3074.500000
 42
-0.011738
  0
VERTEX
  8
0
 10
1926.275816
 20
3056.773727
 42
-0.007461
  0
VERTEX
  8
0
 10
1923.344904
 20
3036.230019
 42
-0.007245
  0
VERTEX
  8
0
 10
1919.649088
 20
3014.843608
 42
-0.008269
  0
VERTEX
  8
0
 10
1915.479701
 20
2994.500000
 42
0.000000
  0
VERTEX
  8
0
 10
1913.035045
 20
2983.500000
 42
0.000000
  0
VERTEX
  8
0
 10
1902.000054
 20
2973.140489
 42
0.009942
  0
VERTEX
  8
0
 10
1897.184600
 20
2968.436209
 42
0.006551
  0
VERTEX
  8
0
 10
1891.827032
 20
2962.845316
 42
0.006592
  0
VERTEX
  8
0
 10
1886.756351
 20
2957.267452
 42
0.012648
  0
VERTEX
  8
0
 10
1882.864433
 20
2952.640489
 42
-0.000487
  0
VERTEX
  8
0
 10
1879.709406
 20
2948.698863
 42
-0.000723
  0
VERTEX
  8
0
 10
1876.937072
 20
2945.252473
 42
-0.000312
  0
VERTEX
  8
0
 10
1874.560311
 20
2942.310328
 42
-0.014768
  0
VERTEX
  8
0
 10
1874.061533
 20
2941.729632
 42
-0.678249
  0
VERTEX
  8
0
 10
1873.785742
 20
2941.833551
 42
-0.001633
  0
VERTEX
  8
0
 10
1873.697505
 20
2947.629499
 42
-0.005172
  0
VERTEX
  8
0
 10
1873.686369
 20
2954.536421
 42
-0.002935
  0
VERTEX
  8
0
 10
1873.808452
 20
2962.896078
 42
0.005004
  0
VERTEX
  8
0
 10
1873.909615
 20
2972.562736
 42
0.005541
  0
VERTEX
  8
0
 10
1873.810323
 20
2981.906441
 42
0.005901
  0
VERTEX
  8
0
 10
1873.534731
 20
2990.127652
 42
0.014425
  0
VERTEX
  8
0
 10
1873.086087
 20
2996.166446
 42
0.084159
  0
VERTEX
  8
0
 10
1855.863472
 20
3058.172897
 42
0.092071
  0
VERTEX
  8
0
 10
1819.478576
 20
3108.873253
 42
0.087738
  0
VERTEX
  8
0
 10
1765.681132
 20
3144.868281
 42
0.068653
  0
VERTEX
  8
0
 10
1698.000000
 20
3164.151267
 42
0.028881
  0
VERTEX
  8
0
 10
1685.181776
 20
3165.213975
 42
0.006033
  0
VERTEX
  8
0
 10
1662.627948
 20
3165.505028
 42
0.005841
  0
VERTEX
  8
0
 10
1640.108494
 20
3165.260837
 42
0.032036
  0
VERTEX
  8
0
 10
1628.000000
 20
3164.209930
 42
0.032098
  0
VERTEX
  8
0
 10
1586.073400
 20
3155.063087
 42
0.042031
  0
VERTEX
  8
0
 10
1549.428656
 20
3141.144893
 42
0.044681
  0
VERTEX
  8
0
 10
1517.450900
 20
3122.136946
 42
0.045096
  0
VERTEX
  8
0
 10
1489.465813
 20
3097.802584
 42
0.052009
  0
VERTEX
  8
0
 10
1466.531820
 20
3068.313936
 42
0.054962
  0
VERTEX
  8
0
 10
1450.672163
 20
3035.252014
 42
0.053841
  0
VERTEX
  8
0
 10
1442.168369
 20
2998.913993
 42
0.046505
  0
VERTEX
  8
0
 10
1441.017429
 20
2959.726255
 42
-0.001818
  0
VERTEX
  8
0
 10
1441.365659
 20
2953.924118
 42
-0.002955
  0
VERTEX
  8
0
 10
1441.614374
 20
2948.993425
 42
-0.000468
  0
VERTEX
  8
0
 10
1441.804409
 20
2944.632914
 42
-0.210012
  0
VERTEX
  8
0
 10
1441.701171
 20
2944.367838
 42
-0.450683
  0
VERTEX
  8
0
 10
1441.498201
 20
2944.380325
 42
-0.001064
  0
VERTEX
  8
0
 10
1439.460712
 20
2947.003550
 42
-0.005114
  0
VERTEX
  8
0
 10
1437.152024
 20
2950.052976
 42
-0.003044
  0
VERTEX
  8
0
 10
1434.462340
 20
2953.728738
 42
0.021404
  0
VERTEX
  8
0
 10
1428.357209
 20
2961.459793
 42
0.009174
  0
VERTEX
  8
0
 10
1419.584719
 20
2971.270850
 42
0.008882
  0
VERTEX
  8
0
 10
1410.658017
 20
2980.556720
 42
0.028889
  0
VERTEX
  8
0
 10
1404.296544
 20
2986.245042
 42
-0.054890
  0
VERTEX
  8
0
 10
1402.402149
 20
2988.124726
 42
-0.090981
  0
VERTEX
  8
0
 10
1401.329528
 20
2990.096742
 42
-0.042874
  0
VERTEX
  8
0
 10
1400.595248
 20
2993.218617
 42
-0.004521
  0
VERTEX
  8
0
 10
1399.576781
 20
3000.646276
 42
-0.010360
  0
VERTEX
  8
0
 10
1395.809873
 20
3035.880091
 42
-0.010424
  0
VERTEX
  8
0
 10
1393.515086
 20
3071.167749
 42
-0.010910
  0
VERTEX
  8
0
 10
1392.811765
 20
3102.740310
 42
-0.027186
  0
VERTEX
  8
0
 10
1394.055412
 20
3125.789414
 42
-0.049531
  0
VERTEX
  8
0
 10
1401.658157
 20
3161.947719
 42
-0.056399
  0
VERTEX
  8
0
 10
1416.044662
 20
3194.258167
 42
-0.057517
  0
VERTEX
  8
0
 10
1436.995166
 20
3222.018953
 42
-0.055091
  0
VERTEX
  8
0
 10
1464.000000
 20
3244.733868
 42
-0.048832
  0
VERTEX
  8
0
 10
1492.992597
 20
3260.260550
 42
-0.028473
  0
VERTEX
  8
0
 10
1530.246016
 20
3273.319403
 42
-0.026311
  0
VERTEX
  8
0
 10
1572.680496
 20
3283.148473
 42
-0.023571
  0
VERTEX
  8
0
 10
1617.500000
 20
3288.911012
 42
-0.015505
  0
VERTEX
  8
0
 10
1631.627808
 20
3289.614148
 42
-0.004463
  0
VERTEX
  8
0
 10
1653.510403
 20
3289.828498
 42
-0.004548
  0
VERTEX
  8
0
 10
1675.535818
 20
3289.647316
 42
-0.013806
  0
SEQEND
  0
POLYLINE
  8
0
 66
1
 70
1
  0
VERTEX
  8
0
 10
1386.750000
 20
2983.026930
 42
-0.015044
  0
VERTEX
  8
0
 10
1388.378352
 20
2982.227873
 42
-0.022186
  0
VERTEX
  8
0
 10
1389.751563
 20
2981.422099
 42
-0.018668
  0
VERTEX
  8
0
 10
1390.792480
 20
2980.690952
 42
-0.234440
  0
VERTEX
  8
0
 10
1391.000000
 20
2980.272690
 42
0.044559
  0
VERTEX
  8
0
 10
1391.238478
 20
2977.602051
 42
0.000513
  0
VERTEX
  8
0
 10
1394.418604
 20
2960.040686
 42
0.001711
  0
VERTEX
  8
0
 10
1397.469337
 20
2943.610867
 42
0.006260
  0
VERTEX
  8
0
 10
1399.568587
 20
2933.230104
 42
0.012721
  0
VERTEX
  8
0
 10
1409.624848
 20
2891.686321
 42
0.011929
  0
VERTEX
  8
0
 10
1421.978200
 20
2849.799854
 42
0.012095
  0
VERTEX
  8
0
 10
1436.106776
 20
2809.193723
 42
0.014241
  0
VERTEX
  8
0
 10
1451.491327
 20
2771.500000
 42
0.008717
  0
VERTEX
  8
0
 10
1460.546820
 20
2751.932030
 42
0.006155
  0
VERTEX
  8
0
 10
1471.371053
 20
2730.257594
 42
0.006223
  0
VERTEX
  8
0
 10
1482.351981
 20
2709.567159
 42
0.011689
  0
VERTEX
  8
0
 10
1491.817715
 20
2693.177660
 42
-0.016480
  0
VERTEX
  8
0
 10
1495.559497
 20
2686.553194
 42
-0.032070
  0
VERTEX
  8
0
 10
1498.018513
 20
2681.003484
 42
-0.032636
  0
VERTEX
  8
0
 10
1499.721416
 20
2675.249203
 42
-0.017728
  0
VERTEX
  8
0
 10
1501.093221
 20
2668.000000
 42
-0.061987
  0
VERTEX
  8
0
 10
1501.568118
 20
2650.894830
 42
-0.044721
  0
VERTEX
  8
0
 10
1498.045178
 20
2632.115609
 42
-0.045899
  0
VERTEX
  8
0
 10
1491.514516
 20
2615.104649
 42
-0.090365
  0
VERTEX
  8
0
 10
1482.910445
 20
2603.513001
 42
-0.015210
  0
VERTEX
  8
0
 10
1480.163713
 20
2601.096120
 42
-0.055416
  0
VERTEX
  8
0
 10
1478.224411
 20
2599.824252
 42
-0.074137
  0
VERTEX
  8
0
 10
1476.363897
 20
2599.204088
 42
-0.043463
  0
VERTEX
  8
0
 10
1474.020498
 20
2599.000000
 42
-0.120008
  0
VERTEX
  8
0
 10
1469.791362
 20
2600.029896
 42
-0.069078
  0
VERTEX
  8
0
 10
1465.487519
 20
2603.074500
 42
-0.054081
  0
VERTEX
  8
0
 10
1461.239315
 20
2608.025809
 42
-0.030847
  0
VERTEX
  8
0
 10
1457.185894
 20
2614.797352
 42
-0.029227
  0
VERTEX
  8
0
 10
1451.423137
 20
2627.726989
 42
-0.023710
  0
VERTEX
  8
0
 10
1446.742178
 20
2642.169638
 42
-0.016288
  0
VERTEX
  8
0
 10
1442.168688
 20
2661.404281
 42
-0.005041
  0
VERTEX
  8
0
 10
1436.525248
 20
2690.624701
 42
0.011686
  0
VERTEX
  8
0
 10
1423.925418
 20
2751.506406
 42
0.021975
  0
VERTEX
  8
0
 10
1410.465814
 20
2799.877806
 42
0.026098
  0
VERTEX
  8
0
 10
1394.746704
 20
2840.705584
 42
0.029006
  0
VERTEX
  8
0
 10
1375.331660
 20
2878.209023
 42
-0.011072
  0
VERTEX
  8
0
 10
1368.806279
 20
2889.778295
 42
-0.015026
  0
VERTEX
  8
0
 10
1363.467695
 20
2900.516943
 42
-0.016727
  0
VERTEX
  8
0
 10
1359.301155
 20
2910.430988
 42
-0.023882
  0
VERTEX
  8
0
 10
1356.329481
 20
2919.500000
 42
-0.013046
  0
VERTEX
  8
0
 10
1354.822594
 20
2925.583794
 42
-0.026915
  0
VERTEX
  8
0
 10
1354.027966
 20
2930.418729
 42
-0.021229
  0
VERTEX
  8
0
 10
1353.656644
 20
2935.983642
 42
-0.005449
  0
VERTEX
  8
0
 10
1353.536911
 20
2945.000000
 42
-0.005260
  0
VERTEX
  8
0
 10
1353.601681
 20
2952.957632
 42
-0.015464
  0
VERTEX
  8
0
 10
1353.873134
 20
2958.427630
 42
-0.022081
  0
VERTEX
  8
0
 10
1354.392351
 20
2962.570952
 42
-0.032872
  0
VERTEX
  8
0
 10
1355.241289
 20
2966.123944
 42
-0.038872
  0
VERTEX
  8
0
 10
1357.366865
 20
2971.477316
 42
-0.036938
  0
VERTEX
  8
0
 10
1360.326412
 20
2976.534118
 42
-0.039258
  0
VERTEX
  8
0
 10
1363.682255
 20
2980.668488
 42
-0.081669
  0
VERTEX
  8
0
 10
1366.984398
 20
2983.165852
 42
-0.080392
  0
VERTEX
  8
0
 10
1371.122118
 20
2984.555883
 42
-0.042697
  0
VERTEX
  8
0
 10
1376.525781
 20
2984.979933
 42
-0.042060
  0
VERTEX
  8
0
 10
1382.090262
 20
2984.471611
 42
-0.062817
  0
SEQEND
  0
POLYLINE
  8
0
 66
1
 70
1
  0
VERTEX
  8
0
 10
1319.796855
 20
1823.039982
 42
-0.015122
  0
VERTEX
  8
0
 10
1336.842052
 20
1820.008395
 42
-0.020639
  0
VERTEX
  8
0
 10
1351.966890
 20
1816.186191
 42
-0.022074
  0
VERTEX
  8
0
 10
1365.873442
 20
1811.377126
 42
-0.022363
  0
VERTEX
  8
0
 10
1379.240191
 20
1805.379042
 42
-0.011904
  0
VERTEX
  8
0
 10
1385.686269
 20
1801.938091
 42
-0.010225
  0
VERTEX
  8
0
 10
1392.301074
 20
1798.021538
 42
-0.003641
  0
VERTEX
  8
0
 10
1398.438040
 20
1794.154154
 42
-0.255661
  0
VERTEX
  8
0
 10
1399.000000
 20
1793.126958
 42
-0.368369
  0
VERTEX
  8
0
 10
1398.734969
 20
1792.816037
 42
-0.001721
  0
VERTEX
  8
0
 10
1394.226562
 20
1792.108915
 42
-0.006537
  0
VERTEX
  8
0
 10
1388.980693
 20
1791.374677
 42
-0.003952
  0
VERTEX
  8
0
 10
1382.750000
 20
1790.635496
 42
0.007347
  0
VERTEX
  8
0
 10
1367.168287
 20
1788.679569
 42
0.005253
  0
VERTEX
  8
0
 10
1349.795342
 20
1786.052583
 42
0.004372
  0
VERTEX
  8
0
 10
1329.410052
 20
1782.567490
 42
0.002397
  0
VERTEX
  8
0
 10
1304.500000
 20
1777.960921
 42
-0.003230
  0
VERTEX
  8
0
 10
1265.533625
 20
1770.822006
 42
-0.017039
  0
VERTEX
  8
0
 10
1244.019422
 20
1767.775618
 42
-0.030657
  0
VERTEX
  8
0
 10
1228.965204
 20
1767.093290
 42
-0.039231
  0
VERTEX
  8
0
 10
1215.153697
 20
1768.401323
 42
-0.031611
  0
VERTEX
  8
0
 10
1202.086294
 20
1771.544438
 42
-0.035389
  0
VERTEX
  8
0
 10
1190.020479
 20
1776.224264
 42
-0.038268
  0
VERTEX
  8
0
 10
1179.710205
 20
1782.089842
 42
-0.058669
  0
VERTEX
  8
0
 10
1171.931073
 20
1788.789016
 42
-0.035104
  0
VERTEX
  8
0
 10
1168.326535
 20
1793.315742
 42
-0.082474
  0
VERTEX
  8
0
 10
1166.500492
 20
1797.217634
 42
-0.114001
  0
VERTEX
  8
0
 10
1166.341029
 20
1800.673135
 42
-0.114696
  0
VERTEX
  8
0
 10
1167.714759
 20
1803.839873
 42
-0.091525
  0
VERTEX
  8
0
 10
1174.345490
 20
1810.024004
 42
-0.048274
  0
VERTEX
  8
0
 10
1184.407960
 20
1815.154999
 42
-0.037713
  0
VERTEX
  8
0
 10
1197.956373
 20
1819.341317
 42
-0.019541
  0
VERTEX
  8
0
 10
1215.378403
 20
1822.605587
 42
-0.024389
  0
VERTEX
  8
0
 10
1238.171798
 20
1824.832078
 42
-0.011112
  0
VERTEX
  8
0
 10
1268.102223
 20
1825.621900
 42
-0.011065
  0
VERTEX
  8
0
 10
1297.826833
 20
1825.087700
 42
-0.026425
  0
SEQEND
  0
POLYLINE
  8
0
 66
1
 70
1
  0
VERTEX
  8
0
 10
1476.000000
 20
1779.503358
 42
-0.008872
  0
VERTEX
  8
0
 10
1480.952955
 20
1778.630754
 42
-0.004292
  0
VERTEX
  8
0
 10
1487.259749
 20
1777.347609
 42
-0.004254
  0
VERTEX
  8
0
 10
1493.809733
 20
1775.897984
 42
-0.006102
  0
VERTEX
  8
0
 10
1499.586378
 20
1774.493405
 42
-0.010275
  0
VERTEX
  8
0
 10
1508.319625
 20
1772.064443
 42
-0.013770
  0
VERTEX
  8
0
 10
1516.122858
 20
1769.484075
 42
-0.009062
  0
VERTEX
  8
0
 10
1525.900330
 20
1765.747640
 42
-0.002007
  0
VERTEX
  8
0
 10
1542.500000
 20
1758.979336
 42
0.027319
  0
VERTEX
  8
0
 10
1559.438343
 20
1753.053342
 42
0.031057
  0
VERTEX
  8
0
 10
1576.216304
 20
1749.304486
 42
0.028453
  0
VERTEX
  8
0
 10
1594.527511
 20
1747.451618
 42
0.017562
  0
VERTEX
  8
0
 10
1616.178192
 20
1747.260370
 42
0.013528
  0
VERTEX
  8
0
 10
1636.756980
 20
1748.359132
 42
0.019195
  0
VERTEX
  8
0
 10
1654.955984
 20
1750.531053
 42
0.010788
  0
VERTEX
  8
0
 10
1679.320826
 20
1754.933024
 42
0.001619
  0
VERTEX
  8
0
 10
1728.000000
 20
1764.981029
 42
-0.012132
  0
VERTEX
  8
0
 10
1748.351895
 20
1768.737665
 42
-0.037772
  0
VERTEX
  8
0
 10
1762.238077
 20
1769.889497
 42
-0.062143
  0
VERTEX
  8
0
 10
1771.085861
 20
1768.850664
 42
-0.277805
  0
VERTEX
  8
0
 10
1774.634753
 20
1765.319125
 42
-0.121148
  0
VERTEX
  8
0
 10
1774.663302
 20
1759.351344
 42
-0.066422
  0
VERTEX
  8
0
 10
1772.011290
 20
1752.493247
 42
-0.047637
  0
VERTEX
  8
0
 10
1766.578725
 20
1744.498380
 42
-0.020940
  0
VERTEX
  8
0
 10
1758.000000
 20
1734.987531
 42
-0.049902
  0
VERTEX
  8
0
 10
1730.167682
 20
1711.768131
 42
-0.030691
  0
VERTEX
  8
0
 10
1693.401513
 20
1690.018220
 42
-0.029012
  0
VERTEX
  8
0
 10
1651.363657
 20
1671.505290
 42
-0.029084
  0
VERTEX
  8
0
 10
1607.500000
 20
1658.000468
 42
-0.012121
  0
VERTEX
  8
0
 10
1584.378272
 20
1652.920267
 42
-0.018699
  0
VERTEX
  8
0
 10
1564.156867
 20
1649.767964
 42
-0.018371
  0
VERTEX
  8
0
 10
1543.497893
 20
1648.101030
 42
-0.011171
  0
VERTEX
  8
0
 10
1519.000000
 20
1647.575858
 42
-0.003151
  0
VERTEX
  8
0
 10
1504.363446
 20
1647.681379
 42
-0.010179
  0
VERTEX
  8
0
 10
1494.643099
 20
1648.010715
 42
-0.013446
  0
VERTEX
  8
0
 10
1486.493518
 20
1648.673222
 42
-0.009871
  0
VERTEX
  8
0
 10
1477.500000
 20
1649.828403
 42
-0.004083
  0
VERTEX
  8
0
 10
1465.518370
 20
1651.708604
 42
-0.005260
  0
VERTEX
  8
0
 10
1454.543119
 20
1653.641654
 42
-0.001685
  0
VERTEX
  8
0
 10
1444.769109
 20
1655.503451
 42
-0.149550
  0
VERTEX
  8
0
 10
1443.475953
 20
1656.190714
 42
-0.279547
  0
VERTEX
  8
0
 10
1443.366539
 20
1656.637389
 42
-0.003721
  0
VERTEX
  8
0
 10
1444.277997
 20
1659.459483
 42
-0.009321
  0
VERTEX
  8
0
 10
1445.443117
 20
1662.769235
 42
-0.005831
  0
VERTEX
  8
0
 10
1446.923897
 20
1666.600859
 42
0.044571
  0
VERTEX
  8
0
 10
1452.756927
 20
1686.051011
 42
0.044562
  0
VERTEX
  8
0
 10
1455.051109
 20
1706.228419
 42
0.044788
  0
VERTEX
  8
0
 10
1453.730991
 20
1726.395091
 42
0.046026
  0
VERTEX
  8
0
 10
1448.837262
 20
1745.813742
 42
0.009861
  0
VERTEX
  8
0
 10
1446.094271
 20
1753.132631
 42
0.022284
  0
VERTEX
  8
0
 10
1443.666023
 20
1758.528607
 42
0.021176
  0
VERTEX
  8
0
 10
1440.691063
 20
1763.850010
 42
0.008107
  0
VERTEX
  8
0
 10
1436.125007
 20
1771.000000
 42
-0.000309
  0
VERTEX
  8
0
 10
1433.906934
 20
1774.356716
 42
-0.000412
  0
VERTEX
  8
0
 10
1431.895498
 20
1777.410280
 42
-0.000289
  0
VERTEX
  8
0
 10
1430.212117
 20
1779.973631
 42
-0.004192
  0
VERTEX
  8
0
 10
1429.624549
 20
1780.886060
 42
-0.519107
  0
VERTEX
  8
0
 10
1429.921130
 20
1781.599646
 42
-0.042982
  0
VERTEX
  8
0
 10
1432.279653
 20
1781.916043
 42
-0.017197
  0
VERTEX
  8
0
 10
1437.006001
 20
1781.977737
 42
-0.002217
  0
VERTEX
  8
0
 10
1447.124167
 20
1781.716921
 42
-0.006286
  0
VERTEX
  8
0
 10
1454.929231
 20
1781.382845
 42
-0.005290
  0
VERTEX
  8
0
 10
1463.186474
 20
1780.837668
 42
-0.005340
  0
VERTEX
  8
0
 10
1470.714341
 20
1780.179653
 42
-0.014695
  0
SEQEND
  0
POLYLINE
  8
0
 66
1
 70
1
  0
VERTEX
  8
0
 10
2155.803455
 20
1770.462381
 42
-0.050157
  0
VERTEX
  8
0
 10
2159.632782
 20
1768.717491
 42
-0.053537
  0
VERTEX
  8
0
 10
2162.947709
 20
1766.276290
 42
-0.060322
  0
VERTEX
  8
0
 10
2165.253006
 20
1763.586464
 42
-0.148086
  0
VERTEX
  8
0
 10
2166.000000
 20
1761.119619
 42
-0.077781
  0
VERTEX
  8
0
 10
2165.846258
 20
1760.137301
 42
-0.012500
  0
VERTEX
  8
0
 10
2165.205665
 20
1758.300111
 42
-0.013558
  0
VERTEX
  8
0
 10
2164.331176
 20
1756.158149
 42
-0.011531
  0
VERTEX
  8
0
 10
2163.295881
 20
1753.946344
 42
-0.074773
  0
VERTEX
  8
0
 10
2157.236140
 20
1745.278274
 42
-0.030428
  0
VERTEX
  8
0
 10
2146.683910
 20
1735.436475
 42
-0.028553
  0
VERTEX
  8
0
 10
2133.541529
 20
1725.800747
 42
-0.027731
  0
VERTEX
  8
0
 10
2119.261467
 20
1717.622436
 42
-0.018070
  0
VERTEX
  8
0
 10
2105.402633
 20
1711.291185
 42
-0.036370
  0
VERTEX
  8
0
 10
2093.999092
 20
1707.516200
 42
-0.038621
  0
VERTEX
  8
0
 10
2082.622586
 20
1705.566055
 42
-0.023261
  0
VERTEX
  8
0
 10
2068.940509
 20
1704.935526
 42
-0.020372
  0
VERTEX
  8
0
 10
2055.030886
 20
1705.508913
 42
-0.016473
  0
VERTEX
  8
0
 10
2040.183492
 20
1707.222124
 42
-0.010468
  0
VERTEX
  8
0
 10
2020.241050
 20
1710.619874
 42
-0.002649
  0
VERTEX
  8
0
 10
1987.982055
 20
1716.990980
 42
0.000150
  0
VERTEX
  8
0
 10
1972.832110
 20
1720.061813
 42
0.000247
  0
VERTEX
  8
0
 10
1960.024087
 20
1722.647350
 42
0.000012
  0
VERTEX
  8
0
 10
1948.468032
 20
1724.973907
 42
0.049703
  0
VERTEX
  8
0
 10
1948.206185
 20
1725.000000
 42
-0.416753
  0
VERTEX
  8
0
 10
1948.129835
 20
1725.077014
 42
-0.071622
  0
VERTEX
  8
0
 10
1948.164342
 20
1725.302794
 42
-0.043199
  0
VERTEX
  8
0
 10
1948.297465
 20
1725.635116
 42
-0.021559
  0
VERTEX
  8
0
 10
1948.519028
 20
1726.030787
 42
-0.149432
  0
VERTEX
  8
0
 10
1952.103688
 20
1729.178288
 42
-0.003887
  0
VERTEX
  8
0
 10
1971.822406
 20
1737.892285
 42
-0.009041
  0
VERTEX
  8
0
 10
1991.626580
 20
1746.038763
 42
-0.020266
  0
VERTEX
  8
0
 10
2007.000000
 20
1751.332818
 42
-0.013755
  0
VERTEX
  8
0
 10
2030.251692
 20
1757.608243
 42
-0.009103
  0
VERTEX
  8
0
 10
2057.259133
 20
1763.587993
 42
-0.008973
  0
VERTEX
  8
0
 10
2085.116193
 20
1768.707338
 42
-0.011404
  0
VERTEX
  8
0
 10
2111.000000
 20
1772.381099
 42
-0.025447
  0
VERTEX
  8
0
 10
2113.235419
 20
1772.531772
 42
-0.002374
  0
VERTEX
  8
0
 10
2118.759375
 20
1772.596234
 42
-0.003046
  0
VERTEX
  8
0
 10
2125.350990
 20
1772.601690
 42
-0.002389
  0
VERTEX
  8
0
 10
2132.500000
 20
1772.529892
 42
-0.004172
  0
VERTEX
  8
0
 10
2141.836684
 20
1772.313584
 42
-0.014247
  0
VERTEX
  8
0
 10
2147.902072
 20
1771.949235
 42
-0.021723
  0
VERTEX
  8
0
 10
2152.270588
 20
1771.369536
 42
-0.038007
  0
SEQEND
  0
POLYLINE
  8
0
 66
1
 70
1
  0
VERTEX
  8
0
 10
1903.773370
 20
1720.988456
 42
-0.004309
  0
VERTEX
  8
0
 10
1907.054804
 20
1720.535614
 42
-0.005497
  0
VERTEX
  8
0
 10
1910.071027
 20
1720.058918
 42
-0.004332
  0
VERTEX
  8
0
 10
1912.587283
 20
1719.610373
 42
-0.045366
  0
VERTEX
  8
0
 10
1913.594280
 20
1719.325448
 42
-0.486975
  0
VERTEX
  8
0
 10
1913.845337
 20
1718.508183
 42
-0.021795
  0
VERTEX
  8
0
 10
1911.784922
 20
1715.808446
 42
-0.016621
  0
VERTEX
  8
0
 10
1908.124002
 20
1711.707040
 42
-0.003927
  0
VERTEX
  8
0
 10
1901.735186
 20
1705.115800
 42
0.009941
  0
VERTEX
  8
0
 10
1891.512549
 20
1694.312251
 42
0.024751
  0
VERTEX
  8
0
 10
1884.603720
 20
1685.914051
 42
0.029148
  0
VERTEX
  8
0
 10
1879.239912
 20
1677.738417
 42
0.019706
  0
VERTEX
  8
0
 10
1874.060998
 20
1667.861835
 42
0.015867
  0
VERTEX
  8
0
 10
1869.437267
 20
1657.276035
 42
0.041665
  0
VERTEX
  8
0
 10
1867.015588
 20
1649.357717
 42
0.039686
  0
VERTEX
  8
0
 10
1865.877747
 20
1640.929171
 42
0.013302
  0
VERTEX
  8
0
 10
1865.526462
 20
1628.500000
 42
0.009822
  0
VERTEX
  8
0
 10
1865.727286
 20
1617.337934
 42
0.038081
  0
VERTEX
  8
0
 10
1866.512197
 20
1610.467944
 42
0.044518
  0
VERTEX
  8
0
 10
1868.267035
 20
1604.339024
 42
0.017014
  0
VERTEX
  8
0
 10
1871.741526
 20
1596.163529
 42
-0.016978
  0
VERTEX
  8
0
 10
1872.676875
 20
1593.963086
 42
-0.029424
  0
VERTEX
  8
0
 10
1873.281085
 20
1592.071321
 42
-0.031526
  0
VERTEX
  8
0
 10
1873.560901
 20
1590.594761
 42
-0.231416
  0
VERTEX
  8
0
 10
1873.334231
 20
1589.934231
 42
-0.137218
  0
VERTEX
  8
0
 10
1868.738038
 20
1587.347200
 42
-0.001958
  0
VERTEX
  8
0
 10
1837.766608
 20
1579.898576
 42
-0.006078
  0
VERTEX
  8
0
 10
1806.677837
 20
1572.948308
 42
-0.010333
  0
VERTEX
  8
0
 10
1780.500000
 20
1567.991813
 42
-0.020622
  0
VERTEX
  8
0
 10
1710.510253
 20
1559.181496
 42
-0.021059
  0
VERTEX
  8
0
 10
1640.521696
 20
1556.249250
 42
-0.022393
  0
VERTEX
  8
0
 10
1577.262427
 20
1559.099020
 42
-0.045928
  0
VERTEX
  8
0
 10
1528.500000
 20
1568.052346
 42
-0.024259
  0
VERTEX
  8
0
 10
1515.952437
 20
1572.236791
 42
-0.039834
  0
VERTEX
  8
0
 10
1505.877653
 20
1577.103759
 42
-0.048062
  0
VERTEX
  8
0
 10
1498.997333
 20
1582.075126
 42
-0.215508
  0
VERTEX
  8
0
 10
1497.000000
 20
1586.493918
 42
-0.282033
  0
VERTEX
  8
0
 10
1499.281534
 20
1590.216980
 42
-0.056000
  0
VERTEX
  8
0
 10
1506.920933
 20
1593.086716
 42
-0.023227
  0
VERTEX
  8
0
 10
1521.766419
 20
1596.111673
 42
-0.002858
  0
VERTEX
  8
0
 10
1554.500000
 20
1601.020377
 42
0.010777
  0
VERTEX
  8
0
 10
1604.548993
 20
1609.338189
 42
0.021228
  0
VERTEX
  8
0
 10
1643.816525
 20
1618.478216
 42
0.024878
  0
VERTEX
  8
0
 10
1677.768222
 20
1629.762823
 42
0.023467
  0
VERTEX
  8
0
 10
1711.116458
 20
1644.557551
 42
0.015087
  0
VERTEX
  8
0
 10
1732.050782
 20
1655.849088
 42
0.020419
  0
VERTEX
  8
0
 10
1750.196597
 20
1667.369113
 42
0.019527
  0
VERTEX
  8
0
 10
1767.947241
 20
1680.738682
 42
0.012156
  0
VERTEX
  8
0
 10
1787.730842
 20
1697.705397
 42
-0.010739
  0
VERTEX
  8
0
 10
1795.137976
 20
1704.094393
 42
-0.025519
  0
VERTEX
  8
0
 10
1800.975054
 20
1708.433364
 42
-0.029294
  0
VERTEX
  8
0
 10
1806.711406
 20
1711.791548
 42
-0.019147
  0
VERTEX
  8
0
 10
1813.672929
 20
1715.007613
 42
-0.021194
  0
VERTEX
  8
0
 10
1823.401868
 20
1718.582104
 42
-0.030761
  0
VERTEX
  8
0
 10
1832.267682
 20
1720.829061
 42
-0.026773
  0
VERTEX
  8
0
 10
1842.211848
 20
1722.161296
 42
-0.011710
  0
VERTEX
  8
0
 10
1855.500000
 20
1722.909237
 42
-0.007983
  0
VERTEX
  8
0
 10
1868.727242
 20
1723.132048
 42
-0.010162
  0
VERTEX
  8
0
 10
1880.928970
 20
1722.894751
 42
-0.010761
  0
VERTEX
  8
0
 10
1892.486832
 20
1722.185489
 42
-0.011427
  0
SEQEND
  0
POLYLINE
  8
0
 66
1
 70
1
  0
VERTEX
  8
0
 10
1265.500000
 20
1686.034083
 42
-0.008575
  0
VERTEX
  8
0
 10
1290.767558
 20
1683.480677
 42
-0.009728
  0
VERTEX
  8
0
 10
1314.887576
 20
1680.147605
 42
-0.010258
  0
VERTEX
  8
0
 10
1337.567171
 20
1676.084133
 42
-0.012681
  0
VERTEX
  8
0
 10
1358.500000
 20
1671.333581
 42
-0.017737
  0
VERTEX
  8
0
 10
1373.985760
 20
1666.813536
 42
-0.005476
  0
VERTEX
  8
0
 10
1396.976881
 20
1658.927805
 42
-0.000981
  0
VERTEX
  8
0
 10
1421.866981
 20
1650.029906
 42
-0.316336
  0
VERTEX
  8
0
 10
1423.000000
 20
1648.418268
 42
-0.201114
  0
VERTEX
  8
0
 10
1422.299302
 20
1646.746688
 42
-0.004793
  0
VERTEX
  8
0
 10
1416.091057
 20
1640.758670
 42
-0.011219
  0
VERTEX
  8
0
 10
1409.789084
 20
1635.058264
 42
-0.027917
  0
VERTEX
  8
0
 10
1404.868897
 20
1631.262789
 42
-0.030234
  0
VERTEX
  8
0
 10
1397.218971
 20
1626.668955
 42
-0.023616
  0
VERTEX
  8
0
 10
1388.421083
 20
1622.600804
 42
-0.023306
  0
VERTEX
  8
0
 10
1379.131190
 20
1619.322032
 42
-0.026831
  0
VERTEX
  8
0
 10
1370.000000
 20
1617.096791
 42
-0.024784
  0
VERTEX
  8
0
 10
1353.770683
 20
1614.878717
 42
-0.008234
  0
VERTEX
  8
0
 10
1329.813768
 20
1613.203701
 42
-0.008349
  0
VERTEX
  8
0
 10
1303.896406
 20
1612.253661
 42
-0.011358
  0
VERTEX
  8
0
 10
1280.500000
 20
1612.318546
 42
-0.021343
  0
VERTEX
  8
0
 10
1233.835712
 20
1615.504491
 42
-0.027866
  0
VERTEX
  8
0
 10
1191.651301
 20
1622.596663
 42
-0.030061
  0
VERTEX
  8
0
 10
1153.323362
 20
1633.717210
 42
-0.034092
  0
VERTEX
  8
0
 10
1118.241353
 20
1648.992050
 42
-0.016249
  0
VERTEX
  8
0
 10
1104.631909
 20
1656.627898
 42
-0.011774
  0
VERTEX
  8
0
 10
1089.972391
 20
1665.969359
 42
-0.004119
  0
VERTEX
  8
0
 10
1076.163870
 20
1675.398602
 42
-0.471927
  0
VERTEX
  8
0
 10
1076.006394
 20
1677.325213
 42
-0.166112
  0
VERTEX
  8
0
 10
1078.819490
 20
1678.653890
 42
-0.000898
  0
VERTEX
  8
0
 10
1109.105801
 20
1682.006378
 42
-0.004392
  0
VERTEX
  8
0
 10
1138.914937
 20
1684.987206
 42
-0.006963
  0
VERTEX
  8
0
 10
1164.500000
 20
1686.960067
 42
-0.015055
  0
VERTEX
  8
0
 10
1182.684577
 20
1687.559018
 42
-0.002997
  0
VERTEX
  8
0
 10
1215.205445
 20
1687.455771
 42
-0.002960
  0
VERTEX
  8
0
 10
1247.705535
 20
1686.965347
 42
-0.015640
  0
SEQEND
  0
POLYLINE
  8
0
 66
1
 70
1
  0
VERTEX
  8
0
 10
2231.400926
 20
1636.997779
 42
-0.002383
  0
VERTEX
  8
0
 10
2239.068447
 20
1636.588836
 42
-0.003810
  0
VERTEX
  8
0
 10
2245.612847
 20
1636.158440
 42
-0.000866
  0
VERTEX
  8
0
 10
2251.333545
 20
1635.728452
 42
-0.179038
  0
VERTEX
  8
0
 10
2251.835950
 20
1635.497384
 42
-0.431005
  0
VERTEX
  8
0
 10
2251.780728
 20
1633.559881
 42
-0.004077
  0
VERTEX
  8
0
 10
2239.950076
 20
1623.178231
 42
-0.011926
  0
VERTEX
  8
0
 10
2227.495078
 20
1612.935217
 42
-0.018040
  0
VERTEX
  8
0
 10
2216.141215
 20
1604.686024
 42
-0.027132
  0
VERTEX
  8
0
 10
2192.044785
 20
1590.307334
 42
-0.026913
  0
VERTEX
  8
0
 10
2166.468976
 20
1578.579643
 42
-0.026068
  0
VERTEX
  8
0
 10
2139.006401
 20
1569.356732
 42
-0.022278
  0
VERTEX
  8
0
 10
2109.259631
 20
1562.475527
 42
-0.018507
  0
VERTEX
  8
0
 10
2078.290548
 20
1557.928943
 42
-0.018022
  0
VERTEX
  8
0
 10
2046.794027
 20
1555.634480
 42
-0.016652
  0
VERTEX
  8
0
 10
2012.984581
 20
1555.520237
 42
-0.011714
  0
VERTEX
  8
0
 10
1975.000000
 20
1557.548624
 42
-0.007545
  0
VERTEX
  8
0
 10
1952.583078
 20
1559.613808
 42
-0.024149
  0
VERTEX
  8
0
 10
1937.756444
 20
1561.934238
 42
-0.033467
  0
VERTEX
  8
0
 10
1926.070020
 20
1565.174120
 42
-0.030211
  0
VERTEX
  8
0
 10
1914.500000
 20
1570.035270
 42
-0.023914
  0
VERTEX
  8
0
 10
1907.819785
 20
1573.736721
 42
-0.021037
  0
VERTEX
  8
0
 10
1901.222151
 20
1578.210471
 42
-0.013134
  0
VERTEX
  8
0
 10
1895.701451
 20
1582.532372
 42
-0.448358
  0
VERTEX
  8
0
 10
1895.646139
 20
1584.012290
 42
-0.100770
  0
VERTEX
  8
0
 10
1897.540447
 20
1585.211352
 42
-0.000655
  0
VERTEX
  8
0
 10
1916.115645
 20
1592.248691
 42
-0.003016
  0
VERTEX
  8
0
 10
1934.179167
 20
1598.940943
 42
-0.005518
  0
VERTEX
  8
0
 10
1949.000000
 20
1604.145908
 42
-0.032702
  0
VERTEX
  8
0
 10
2008.742152
 20
1620.123079
 42
-0.020035
  0
VERTEX
  8
0
 10
2080.801179
 20
1631.447144
 42
-0.019347
  0
VERTEX
  8
0
 10
2157.456311
 20
1637.370638
 42
-0.021741
  0
SEQEND
  0
POLYLINE
  8
0
 66
1
 70
1
  0
VERTEX
  8
0
 10
2001.000000
 20
1356.507893
 42
-0.014012
  0
VERTEX
  8
0
 10
2027.624633
 20
1352.861747
 42
-0.019843
  0
VERTEX
  8
0
 10
2051.044989
 20
1348.021457
 42
-0.022420
  0
VERTEX
  8
0
 10
2071.325945
 20
1342.006600
 42
-0.033146
  0
VERTEX
  8
0
 10
2088.415593
 20
1334.793051
 42
-0.029534
  0
VERTEX
  8
0
 10
2102.634270
 20
1326.562437
 42
-0.067922
  0
VERTEX
  8
0
 10
2111.914396
 20
1318.432709
 42
-0.089240
  0
VERTEX
  8
0
 10
2117.138293
 20
1309.672991
 42
-0.089367
  0
VERTEX
  8
0
 10
2118.978038
 20
1299.646233
 42
-0.065379
  0
VERTEX
  8
0
 10
2118.009392
 20
1292.082303
 42
-0.064200
  0
VERTEX
  8
0
 10
2115.119539
 20
1284.974558
 42
-0.048593
  0
VERTEX
  8
0
 10
2109.762556
 20
1277.334279
 42
-0.019435
  0
VERTEX
  8
0
 10
2101.067022
 20
1267.952843
 42
-0.043469
  0
VERTEX
  8
0
 10
2081.175324
 20
1251.280643
 42
-0.045581
  0
VERTEX
  8
0
 10
2059.001916
 20
1238.597047
 42
-0.044405
  0
VERTEX
  8
0
 10
2034.365705
 20
1229.889535
 42
-0.037524
  0
VERTEX
  8
0
 10
2007.144045
 20
1225.049135
 42
-0.019392
  0
VERTEX
  8
0
 10
1993.614142
 20
1224.206706
 42
-0.007613
  0
VERTEX
  8
0
 10
1974.923458
 20
1224.053845
 42
-0.007693
  0
VERTEX
  8
0
 10
1955.938385
 20
1224.479810
 42
-0.016164
  0
VERTEX
  8
0
 10
1941.221560
 20
1225.513786
 42
-0.018815
  0
VERTEX
  8
0
 10
1904.608224
 20
1230.676913
 42
-0.011649
  0
VERTEX
  8
0
 10
1862.036609
 20
1239.351698
 42
-0.009186
  0
VERTEX
  8
0
 10
1809.985317
 20
1252.237766
 42
-0.004378
  0
VERTEX
  8
0
 10
1743.500000
 20
1270.624709
 42
-0.000440
  0
VERTEX
  8
0
 10
1699.622713
 20
1283.215659
 42
-0.004531
  0
VERTEX
  8
0
 10
1681.550904
 20
1288.596570
 42
-0.004020
  0
VERTEX
  8
0
 10
1670.896814
 20
1291.968253
 42
-0.559903
  0
VERTEX
  8
0
 10
1670.639777
 20
1293.039777
 42
-0.073362
  0
VERTEX
  8
0
 10
1671.359677
 20
1293.574585
 42
-0.001731
  0
VERTEX
  8
0
 10
1675.077021
 20
1295.552656
 42
-0.003783
  0
VERTEX
  8
0
 10
1679.468298
 20
1297.827554
 42
-0.002555
  0
VERTEX
  8
0
 10
1684.509798
 20
1300.358768
 42
-0.029447
  0
VERTEX
  8
0
 10
1734.996840
 20
1321.782910
 42
-0.023990
  0
VERTEX
  8
0
 10
1791.206823
 20
1338.830697
 42
-0.023027
  0
VERTEX
  8
0
 10
1851.315798
 20
1351.043782
 42
-0.021695
  0
VERTEX
  8
0
 10
1913.500000
 20
1357.976306
 42
-0.016123
  0
VERTEX
  8
0
 10
1931.172894
 20
1358.602179
 42
-0.004984
  0
VERTEX
  8
0
 10
1957.801039
 20
1358.420796
 42
-0.004889
  0
VERTEX
  8
0
 10
1984.277426
 20
1357.717479
 42
-0.017938
  0
SEQEND
  0
POLYLINE
  8
0
 66
1
 70
1
  0
VERTEX
  8
0
 10
1415.500000
 20
1287.578457
 42
-0.004751
  0
VERTEX
  8
0
 10
1442.228751
 20
1284.642508
 42
-0.005987
  0
VERTEX
  8
0
 10
1466.907980
 20
1281.393923
 42
-0.005775
  0
VERTEX
  8
0
 10
1492.210567
 20
1277.455782
 42
-0.003944
  0
VERTEX
  8
0
 10
1520.870943
 20
1272.422654
 42
-0.003614
  0
VERTEX
  8
0
 10
1543.998246
 20
1267.999877
 42
-0.003199
  0
VERTEX
  8
0
 10
1568.019608
 20
1263.065940
 42
-0.000583
  0
VERTEX
  8
0
 10
1591.436729
 20
1258.071203
 42
-0.141722
  0
VERTEX
  8
0
 10
1593.325215
 20
1257.056909
 42
-0.458558
  0
VERTEX
  8
0
 10
1593.192123
 20
1254.965410
 42
-0.002234
  0
VERTEX
  8
0
 10
1573.990678
 20
1240.582861
 42
-0.008613
  0
VERTEX
  8
0
 10
1553.924182
 20
1226.221152
 42
-0.010903
  0
VERTEX
  8
0
 10
1534.874083
 20
1213.681308
 42
-0.023237
  0
VERTEX
  8
0
 10
1482.933207
 20
1184.362227
 42
-0.028404
  0
VERTEX
  8
0
 10
1431.799670
 20
1162.099950
 42
-0.030640
  0
VERTEX
  8
0
 10
1382.253598
 20
1147.175883
 42
-0.038962
  0
VERTEX
  8
0
 10
1335.075974
 20
1139.880287
 42
-0.049848
  0
VERTEX
  8
0
 10
1288.426436
 20
1141.003484
 42
-0.058683
  0
VERTEX
  8
0
 10
1245.535283
 20
1151.541345
 42
-0.067067
  0
VERTEX
  8
0
 10
1211.537393
 20
1169.766424
 42
-0.122041
  0
VERTEX
  8
0
 10
1191.308102
 20
1193.691103
 42
-0.057374
  0
VERTEX
  8
0
 10
1187.908472
 20
1203.168982
 42
-0.056436
  0
VERTEX
  8
0
 10
1186.726307
 20
1213.224942
 42
-0.056682
  0
VERTEX
  8
0
 10
1187.823099
 20
1223.249856
 42
-0.058881
  0
VERTEX
  8
0
 10
1191.141856
 20
1232.636585
 42
-0.060779
  0
VERTEX
  8
0
 10
1197.404539
 20
1242.218946
 42
-0.035100
  0
VERTEX
  8
0
 10
1207.010654
 20
1252.116509
 42
-0.033139
  0
VERTEX
  8
0
 10
1218.748576
 20
1261.300232
 42
-0.034001
  0
VERTEX
  8
0
 10
1231.500000
 20
1268.766130
 42
-0.030255
  0
VERTEX
  8
0
 10
1247.631937
 20
1275.609803
 42
-0.024006
  0
VERTEX
  8
0
 10
1265.761433
 20
1281.073735
 42
-0.020090
  0
VERTEX
  8
0
 10
1287.312595
 20
1285.544510
 42
-0.011022
  0
VERTEX
  8
0
 10
1314.000000
 20
1289.368761
 42
-0.032844
  0
VERTEX
  8
0
 10
1325.328545
 20
1289.988151
 42
-0.001648
  0
VERTEX
  8
0
 10
1362.449062
 20
1289.455797
 42
-0.002334
  0
VERTEX
  8
0
 10
1398.665409
 20
1288.647839
 42
-0.018234
  0
SEQEND
  0
POLYLINE
  8
0
 66
1
 70
1
  0
VERTEX
  8
0
 10
778.372467
 20
1001.234687
 42
0.201480
  0
VERTEX
  8
0
 10
777.261267
 20
999.595263
 42
0.019373
  0
VERTEX
  8
0
 10
776.480608
 20
994.736003
 42
0.012257
  0
VERTEX
  8
0
 10
775.682501
 20
986.451330
 42
0.001768
  0
VERTEX
  8
0
 10
774.528171
 20
969.500000
 42
0.002854
  0
VERTEX
  8
0
 10
769.827535
 20
889.580289
 42
0.002361
  0
VERTEX
  8
0
 10
765.707777
 20
804.388513
 42
0.002342
  0
VERTEX
  8
0
 10
762.691881
 20
726.931934
 42
0.007339
  0
VERTEX
  8
0
 10
761.673256
 20
674.848979
 42
0.001823
  0
VERTEX
  8
0
 10
761.642146
 20
649.565359
 42
0.030102
  0
VERTEX
  8
0
 10
762.169620
 20
641.150325
 42
0.128157
  0
VERTEX
  8
0
 10
763.645641
 20
637.430129
 42
0.238938
  0
VERTEX
  8
0
 10
766.467457
 20
636.000000
 42
0.185193
  0
VERTEX
  8
0
 10
769.520197
 20
637.170849
 42
0.118724
  0
VERTEX
  8
0
 10
771.695512
 20
640.337025
 42
0.037872
  0
VERTEX
  8
0
 10
773.739362
 20
647.187825
 42
0.003508
  0
VERTEX
  8
0
 10
777.378788
 20
664.500000
 42
-0.011422
  0
VERTEX
  8
0
 10
786.617028
 20
705.231978
 42
-0.014971
  0
VERTEX
  8
0
 10
797.007366
 20
741.943334
 42
-0.016268
  0
VERTEX
  8
0
 10
807.638221
 20
772.160922
 42
-0.049609
  0
VERTEX
  8
0
 10
817.475910
 20
791.529795
 42
-0.012049
  0
VERTEX
  8
0
 10
818.888920
 20
793.625664
 42
-0.017637
  0
VERTEX
  8
0
 10
820.239704
 20
795.393127
 42
-0.013177
  0
VERTEX
  8
0
 10
821.423522
 20
796.758819
 42
-0.210598
  0
VERTEX
  8
0
 10
821.970733
 20
797.000000
 42
-0.281464
  0
VERTEX
  8
0
 10
823.408265
 20
796.121147
 42
-0.011407
  0
VERTEX
  8
0
 10
826.175244
 20
790.400646
 42
-0.013473
  0
VERTEX
  8
0
 10
829.712148
 20
782.052827
 42
-0.004261
  0
VERTEX
  8
0
 10
834.547488
 20
769.410174
 42
0.004883
  0
VERTEX
  8
0
 10
839.661232
 20
756.089274
 42
0.016084
  0
VERTEX
  8
0
 10
843.399349
 20
747.452497
 42
0.023602
  0
VERTEX
  8
0
 10
846.771085
 20
741.097974
 42
0.029244
  0
VERTEX
  8
0
 10
850.515717
 20
735.547353
 42
0.040295
  0
VERTEX
  8
0
 10
856.207700
 20
729.219114
 42
0.076541
  0
VERTEX
  8
0
 10
861.829592
 20
725.331977
 42
0.081019
  0
VERTEX
  8
0
 10
868.136034
 20
723.446750
 42
0.050157
  0
VERTEX
  8
0
 10
875.883766
 20
723.225368
 42
0.055137
  0
VERTEX
  8
0
 10
882.890216
 20
724.513560
 42
0.056917
  0
VERTEX
  8
0
 10
889.366143
 20
727.295172
 42
0.042542
  0
VERTEX
  8
0
 10
896.445594
 20
732.184840
 42
0.015733
  0
VERTEX
  8
0
 10
905.559215
 20
740.193313
 42
0.000000
  0
VERTEX
  8
0
 10
910.618431
 20
744.929242
 42
0.000000
  0
VERTEX
  8
0
 10
910.182541
 20
730.440575
 42
0.004704
  0
VERTEX
  8
0
 10
910.019676
 20
722.561958
 42
0.019743
  0
VERTEX
  8
0
 10
910.153273
 20
717.829066
 42
0.032311
  0
VERTEX
  8
0
 10
910.603962
 20
714.442404
 42
0.042002
  0
VERTEX
  8
0
 10
911.471115
 20
711.436463
 42
0.131833
  0
VERTEX
  8
0
 10
918.101150
 20
702.284958
 42
0.147372
  0
VERTEX
  8
0
 10
928.150441
 20
698.165408
 42
0.099782
  0
VERTEX
  8
0
 10
942.030591
 20
699.593133
 42
0.039400
  0
VERTEX
  8
0
 10
959.939043
 20
706.749416
 42
0.035259
  0
VERTEX
  8
0
 10
977.422149
 20
716.979303
 42
0.013029
  0
VERTEX
  8
0
 10
1000.570046
 20
733.713998
 42
0.013225
  0
VERTEX
  8
0
 10
1023.723033
 20
752.378298
 42
0.022915
  0
VERTEX
  8
0
 10
1041.787796
 20
769.232268
 42
0.022298
  0
VERTEX
  8
0
 10
1045.145245
 20
772.986611
 42
0.116399
  0
VERTEX
  8
0
 10
1046.351971
 20
775.463799
 42
0.222915
  0
VERTEX
  8
0
 10
1045.934436
 20
777.356627
 42
0.106305
  0
VERTEX
  8
0
 10
1043.989224
 20
779.005767
 42
0.200753
  0
VERTEX
  8
0
 10
1042.193909
 20
779.177122
 42
0.078505
  0
VERTEX
  8
0
 10
1039.916174
 20
778.054936
 42
0.018776
  0
VERTEX
  8
0
 10
1035.794016
 20
774.908172
 42
0.000835
  0
VERTEX
  8
0
 10
1021.963991
 20
763.465225
 42
-0.012101
  0
VERTEX
  8
0
 10
992.337328
 20
740.056200
 42
-0.023740
  0
VERTEX
  8
0
 10
967.489359
 20
723.165076
 42
-0.028958
  0
VERTEX
  8
0
 10
947.241776
 20
712.322195
 42
-0.099477
  0
VERTEX
  8
0
 10
932.812541
 20
708.860595
 42
-0.067668
  0
VERTEX
  8
0
 10
926.554890
 20
709.475677
 42
-0.193850
  0
VERTEX
  8
0
 10
923.055095
 20
711.953440
 42
-0.123406
  0
VERTEX
  8
0
 10
921.330036
 20
717.052569
 42
-0.021363
  0
VERTEX
  8
0
 10
920.940828
 20
727.309388
 42
-0.009732
  0
VERTEX
  8
0
 10
921.053375
 20
731.948847
 42
-0.009398
  0
VERTEX
  8
0
 10
921.346694
 20
736.634945
 42
-0.009354
  0
VERTEX
  8
0
 10
921.759610
 20
740.749726
 42
-0.033633
  0
VERTEX
  8
0
 10
922.247219
 20
743.341487
 42
0.000000
  0
VERTEX
  8
0
 10
923.500000
 20
748.182973
 42
0.000000
  0
VERTEX
  8
0
 10
932.110252
 20
751.499869
 42
0.008583
  0
VERTEX
  8
0
 10
939.531397
 20
754.505978
 42
0.017966
  0
VERTEX
  8
0
 10
945.172334
 20
757.147627
 42
0.019008
  0
VERTEX
  8
0
 10
950.406403
 20
760.088468
 42
0.010885
  0
VERTEX
  8
0
 10
956.500000
 20
764.008796
 42
0.045548
  0
VERTEX
  8
0
 10
968.990689
 20
774.202622
 42
0.057667
  0
VERTEX
  8
0
 10
978.354353
 20
785.780257
 42
0.063000
  0
VERTEX
  8
0
 10
984.213073
 20
798.256492
 42
0.074252
  0
VERTEX
  8
0
 10
986.353832
 20
811.116150
 42
0.025624
  0
VERTEX
  8
0
 10
986.154445
 20
816.891445
 42
0.074279
  0
VERTEX
  8
0
 10
985.229739
 20
820.770221
 42
0.095690
  0
VERTEX
  8
0
 10
983.379577
 20
823.637015
 42
0.063411
  0
VERTEX
  8
0
 10
980.325640
 20
826.107760
 42
0.031815
  0
VERTEX
  8
0
 10
978.288892
 20
827.194047
 42
0.080880
  0
VERTEX
  8
0
 10
976.676681
 20
827.631482
 42
0.063171
  0
VERTEX
  8
0
 10
974.782380
 20
827.588594
 42
0.013971
  0
VERTEX
  8
0
 10
971.579713
 20
827.016548
 42
0.093054
  0
VERTEX
  8
0
 10
961.402714
 20
822.830090
 42
0.043159
  0
VERTEX
  8
0
 10
950.087644
 20
814.010208
 42
0.037715
  0
VERTEX
  8
0
 10
938.625460
 20
801.632958
 42
0.028546
  0
VERTEX
  8
0
 10
927.945686
 20
786.500000
 42
-0.016738
  0
VERTEX
  8
0
 10
915.947871
 20
768.617974
 42
-0.021708
  0
VERTEX
  8
0
 10
903.723090
 20
753.118889
 42
-0.023302
  0
VERTEX
  8
0
 10
892.433568
 20
741.189399
 42
-0.082092
  0
VERTEX
  8
0
 10
883.760898
 20
735.223696
 42
-0.054157
  0
VERTEX
  8
0
 10
879.355462
 20
733.712182
 42
-0.044647
  0
VERTEX
  8
0
 10
874.429193
 20
733.052728
 42
-0.046464
  0
VERTEX
  8
0
 10
869.745492
 20
733.282518
 42
-0.084039
  0
VERTEX
  8
0
 10
866.098784
 20
734.448917
 42
-0.098913
  0
VERTEX
  8
0
 10
860.756228
 20
738.720270
 42
-0.047079
  0
VERTEX
  8
0
 10
855.727524
 20
745.991004
 42
-0.032368
  0
VERTEX
  8
0
 10
850.504001
 20
756.907767
 42
-0.011693
  0
VERTEX
  8
0
 10
844.471926
 20
773.021740
 42
0.009256
  0
VERTEX
  8
0
 10
837.541110
 20
791.815054
 42
0.050797
  0
VERTEX
  8
0
 10
832.618313
 20
801.426732
 42
0.107138
  0
VERTEX
  8
0
 10
827.754729
 20
806.262137
 42
0.143225
  0
VERTEX
  8
0
 10
821.812290
 20
808.000000
 42
0.239785
  0
VERTEX
  8
0
 10
812.293917
 20
803.156812
 42
0.043300
  0
VERTEX
  8
0
 10
801.713250
 20
785.620467
 42
0.032826
  0
VERTEX
  8
0
 10
790.534885
 20
758.480852
 42
0.013710
  0
VERTEX
  8
0
 10
778.923716
 20
720.631829
 42
-0.004670
  0
VERTEX
  8
0
 10
777.024958
 20
714.018292
 42
-0.013743
  0
VERTEX
  8
0
 10
775.552087
 20
709.519668
 42
-0.021083
  0
VERTEX
  8
0
 10
774.477891
 20
706.876751
 42
-0.713762
  0
VERTEX
  8
0
 10
774.013964
 20
706.921995
 42
-0.066603
  0
VERTEX
  8
0
 10
773.407161
 20
712.923432
 42
-0.000551
  0
VERTEX
  8
0
 10
774.984003
 20
760.197715
 42
-0.001602
  0
VERTEX
  8
0
 10
777.301062
 20
821.712652
 42
-0.000555
  0
VERTEX
  8
0
 10
781.027594
 20
910.464118
 42
0.000638
  0
VERTEX
  8
0
 10
783.253555
 20
963.687974
 42
0.006308
  0
VERTEX
  8
0
 10
783.878463
 20
986.074421
 42
0.006794
  0
VERTEX
  8
0
 10
783.900940
 20
999.263109
 42
0.307284
  0
VERTEX
  8
0
 10
782.418213
 20
1001.393011
 42
0.023501
  0
VERTEX
  8
0
 10
781.079688
 20
1001.835714
 42
0.078041
  0
VERTEX
  8
0
 10
780.161606
 20
1001.943300
 42
0.092782
  0
VERTEX
  8
0
 10
779.343484
 20
1001.756785
 42
0.042102
  0
SEQEND
  0
POLYLINE
  8
0
 66
1
 70
1
  0
VERTEX
  8
0
 10
976.392440
 20
810.473225
 42
-0.095839
  0
VERTEX
  8
0
 10
973.605952
 20
797.172841
 42
-0.071825
  0
VERTEX
  8
0
 10
965.881346
 20
784.315859
 42
-0.062414
  0
VERTEX
  8
0
 10
953.631985
 20
772.633489
 42
-0.045256
  0
VERTEX
  8
0
 10
937.512426
 20
762.825898
 42
-0.007654
  0
VERTEX
  8
0
 10
933.661712
 20
761.009120
 42
-0.012921
  0
VERTEX
  8
0
 10
930.373636
 20
759.620149
 42
-0.006611
  0
VERTEX
  8
0
 10
927.650489
 20
758.593200
 42
-0.421747
  0
VERTEX
  8
0
 10
927.235268
 20
758.794195
 42
-0.194450
  0
VERTEX
  8
0
 10
927.437765
 20
762.037375
 42
-0.007570
  0
VERTEX
  8
0
 10
932.876753
 20
772.971166
 42
-0.014366
  0
VERTEX
  8
0
 10
939.036958
 20
784.102134
 42
-0.024263
  0
VERTEX
  8
0
 10
944.904092
 20
793.004396
 42
-0.034419
  0
VERTEX
  8
0
 10
952.393701
 20
801.895516
 42
-0.028524
  0
VERTEX
  8
0
 10
961.494988
 20
810.288027
 42
-0.024431
  0
VERTEX
  8
0
 10
970.216034
 20
816.767945
 42
-0.197758
  0
VERTEX
  8
0
 10
975.000000
 20
817.736156
 42
-0.213835
  0
VERTEX
  8
0
 10
975.728547
 20
817.224667
 42
-0.087205
  0
VERTEX
  8
0
 10
976.168429
 20
816.067927
 42
-0.042211
  0
VERTEX
  8
0
 10
976.383095
 20
814.031947
 42
-0.009025
  0
SEQEND
  0
POLYLINE
  8
0
 66
1
 70
1
  0
VERTEX
  8
0
 10
1327.000000
 20
985.103173
 42
0.038223
  0
VERTEX
  8
0
 10
1304.196772
 20
978.258037
 42
0.028161
  0
VERTEX
  8
0
 10
1280.156616
 20
967.396929
 42
0.026223
  0
VERTEX
  8
0
 10
1255.667232
 20
952.946595
 42
0.022536
  0
VERTEX
  8
0
 10
1231.507799
 20
935.310090
 42
0.007484
  0
VERTEX
  8
0
 10
1222.142043
 20
927.570511
 42
0.011341
  0
VERTEX
  8
0
 10
1214.254458
 20
920.536396
 42
0.008530
  0
VERTEX
  8
0
 10
1208.075735
 20
914.568974
 42
0.120174
  0
VERTEX
  8
0
 10
1206.485913
 20
911.955617
 42
0.114907
  0
VERTEX
  8
0
 10
1206.338837
 20
910.086380
 42
0.086300
  0
VERTEX
  8
0
 10
1206.994873
 20
908.122939
 42
0.085231
  0
VERTEX
  8
0
 10
1208.286166
 20
906.475137
 42
0.107593
  0
VERTEX
  8
0
 10
1209.961166
 20
905.512325
 42
0.154432
  0
VERTEX
  8
0
 10
1212.299216
 20
905.510251
 42
0.066825
  0
VERTEX
  8
0
 10
1215.147563
 20
906.847748
 42
0.028119
  0
VERTEX
  8
0
 10
1219.526344
 20
910.031561
 42
0.003638
  0
VERTEX
  8
0
 10
1228.439138
 20
917.420368
 42
-0.023843
  0
VERTEX
  8
0
 10
1255.555911
 20
938.110999
 42
-0.028656
  0
VERTEX
  8
0
 10
1282.953315
 20
954.788480
 42
-0.031342
  0
VERTEX
  8
0
 10
1309.423154
 20
966.827380
 42
-0.047921
  0
VERTEX
  8
0
 10
1333.720188
 20
973.510436
 42
-0.040042
  0
VERTEX
  8
0
 10
1350.226320
 20
975.043433
 42
-0.042110
  0
VERTEX
  8
0
 10
1366.484119
 20
973.877336
 42
-0.045552
  0
VERTEX
  8
0
 10
1380.874161
 20
970.251747
 42
-0.078598
  0
VERTEX
  8
0
 10
1391.717038
 20
964.402254
 42
-0.323123
  0
VERTEX
  8
0
 10
1398.573590
 20
941.766817
 42
-0.072027
  0
VERTEX
  8
0
 10
1378.989116
 20
903.660996
 42
-0.044534
  0
VERTEX
  8
0
 10
1336.190642
 20
853.621471
 42
-0.018480
  0
VERTEX
  8
0
 10
1270.260115
 20
793.750000
 42
-0.001726
  0
VERTEX
  8
0
 10
1264.419817
 20
788.862016
 42
-0.002786
  0
VERTEX
  8
0
 10
1259.409895
 20
784.745312
 42
-0.000484
  0
VERTEX
  8
0
 10
1254.964545
 20
781.140968
 42
-0.171742
  0
VERTEX
  8
0
 10
1254.566245
 20
781.000000
 42
-0.427916
  0
VERTEX
  8
0
 10
1253.520434
 20
782.095668
 42
-0.001685
  0
VERTEX
  8
0
 10
1254.465960
 20
801.019150
 42
-0.004491
  0
VERTEX
  8
0
 10
1256.142928
 20
827.912519
 42
-0.000981
  0
VERTEX
  8
0
 10
1259.537543
 20
874.192407
 42
0.001284
  0
VERTEX
  8
0
 10
1260.480596
 20
887.156962
 42
0.001656
  0
VERTEX
  8
0
 10
1261.276653
 20
899.068109
 42
0.001255
  0
VERTEX
  8
0
 10
1261.885741
 20
909.055337
 42
0.014601
  0
VERTEX
  8
0
 10
1262.000000
 20
912.967158
 42
0.009864
  0
VERTEX
  8
0
 10
1261.928654
 20
916.583284
 42
0.075666
  0
VERTEX
  8
0
 10
1261.608176
 20
918.245189
 42
0.146437
  0
VERTEX
  8
0
 10
1260.883367
 20
919.234390
 42
0.071199
  0
VERTEX
  8
0
 10
1259.500000
 20
920.000000
 42
0.092887
  0
VERTEX
  8
0
 10
1257.375647
 20
920.382352
 42
0.054644
  0
VERTEX
  8
0
 10
1254.804291
 20
920.081833
 42
0.057471
  0
VERTEX
  8
0
 10
1252.650494
 20
919.319133
 42
0.279473
  0
VERTEX
  8
0
 10
1251.980191
 20
918.274751
 42
-0.025194
  0
VERTEX
  8
0
 10
1251.939215
 20
917.736195
 42
-0.001043
  0
VERTEX
  8
0
 10
1251.691579
 20
915.818208
 42
-0.001808
  0
VERTEX
  8
0
 10
1251.385094
 20
913.546506
 42
-0.001282
  0
VERTEX
  8
0
 10
1251.025496
 20
911.000000
 42
0.018823
  0
VERTEX
  8
0
 10
1248.936245
 20
891.214877
 42
0.001616
  0
VERTEX
  8
0
 10
1245.663859
 20
840.419026
 42
0.002364
  0
VERTEX
  8
0
 10
1242.684343
 20
787.622300
 42
0.004775
  0
VERTEX
  8
0
 10
1240.931175
 20
746.000000
 42
-0.002352
  0
VERTEX
  8
0
 10
1240.419228
 20
732.263060
 42
-0.003633
  0
VERTEX
  8
0
 10
1239.834684
 20
720.397013
 42
-0.001195
  0
VERTEX
  8
0
 10
1239.230766
 20
710.151716
 42
-0.106456
  0
VERTEX
  8
0
 10
1238.821450
 20
708.691958
 42
-0.045390
  0
VERTEX
  8
0
 10
1238.080531
 20
707.551671
 42
-0.002867
  0
VERTEX
  8
0
 10
1235.586765
 20
704.421140
 42
-0.004199
  0
VERTEX
  8
0
 10
1232.558225
 20
700.727613
 42
-0.003107
  0
VERTEX
  8
0
 10
1229.149335
 20
696.691958
 42
0.007019
  0
VERTEX
  8
0
 10
1216.100862
 20
680.996915
 42
0.014826
  0
VERTEX
  8
0
 10
1206.523387
 20
668.395611
 42
0.018512
  0
VERTEX
  8
0
 10
1199.233051
 20
657.346089
 42
0.023201
  0
VERTEX
  8
0
 10
1193.350110
 20
646.572580
 42
0.009536
  0
VERTEX
  8
0
 10
1190.926400
 20
641.347826
 42
0.036853
  0
VERTEX
  8
0
 10
1189.729798
 20
637.982223
 42
0.045942
  0
VERTEX
  8
0
 10
1189.174328
 20
634.860778
 42
0.021076
  0
VERTEX
  8
0
 10
1189.000000
 20
630.726872
 42
0.033108
  0
VERTEX
  8
0
 10
1189.363472
 20
625.243743
 42
0.082581
  0
VERTEX
  8
0
 10
1190.535849
 20
621.415453
 42
0.094378
  0
VERTEX
  8
0
 10
1192.768509
 20
618.479492
 42
0.053048
  0
VERTEX
  8
0
 10
1196.409929
 20
615.844256
 42
0.039103
  0
VERTEX
  8
0
 10
1199.081319
 20
614.579159
 42
0.053154
  0
VERTEX
  8
0
 10
1201.658573
 20
613.899321
 42
0.032504
  0
VERTEX
  8
0
 10
1205.152949
 20
613.595543
 42
0.006282
  0
VERTEX
  8
0
 10
1211.500000
 20
613.537360
 42
0.024746
  0
VERTEX
  8
0
 10
1220.681824
 20
614.023337
 42
0.028588
  0
VERTEX
  8
0
 10
1229.332084
 20
615.415069
 42
0.025217
  0
VERTEX
  8
0
 10
1238.611208
 20
617.954257
 42
0.013520
  0
VERTEX
  8
0
 10
1249.792351
 20
621.966998
 42
0.037246
  0
VERTEX
  8
0
 10
1277.888139
 20
635.402679
 42
0.040442
  0
VERTEX
  8
0
 10
1302.868980
 20
652.542986
 42
0.043355
  0
VERTEX
  8
0
 10
1323.073196
 20
672.089603
 42
0.062763
  0
VERTEX
  8
0
 10
1336.872972
 20
692.703414
 42
0.043137
  0
VERTEX
  8
0
 10
1341.728731
 20
704.919497
 42
0.041079
  0
VERTEX
  8
0
 10
1344.514503
 20
717.988952
 42
0.043481
  0
VERTEX
  8
0
 10
1345.023973
 20
730.410944
 42
0.073147
  0
VERTEX
  8
0
 10
1343.036963
 20
740.635156
 42
0.104557
  0
VERTEX
  8
0
 10
1335.117764
 20
753.658353
 42
0.077507
  0
VERTEX
  8
0
 10
1321.786006
 20
764.034961
 42
0.065404
  0
VERTEX
  8
0
 10
1303.682384
 20
771.183322
 42
0.044215
  0
VERTEX
  8
0
 10
1281.733798
 20
774.659468
 42
-0.005271
  0
VERTEX
  8
0
 10
1278.063077
 20
774.950955
 42
-0.006634
  0
VERTEX
  8
0
 10
1274.671158
 20
775.301748
 42
-0.005391
  0
VERTEX
  8
0
 10
1271.839701
 20
775.663590
 42
-0.051431
  0
VERTEX
  8
0
 10
1270.657378
 20
775.953749
 42
-0.514949
  0
VERTEX
  8
0
 10
1270.396953
 20
776.872197
 42
-0.031178
  0
VERTEX
  8
0
 10
1272.661152
 20
779.366352
 42
-0.016756
  0
VERTEX
  8
0
 10
1277.169178
 20
783.464782
 42
-0.002828
  0
VERTEX
  8
0
 10
1286.088081
 20
790.956927
 42
0.005579
  0
VERTEX
  8
0
 10
1303.553986
 20
805.793488
 42
0.006832
  0
VERTEX
  8
0
 10
1319.528245
 20
820.060453
 42
0.007005
  0
VERTEX
  8
0
 10
1334.762824
 20
834.444089
 42
0.006473
  0
VERTEX
  8
0
 10
1350.000000
 20
849.627502
 42
0.009642
  0
VERTEX
  8
0
 10
1368.894164
 20
869.709354
 42
0.018158
  0
VERTEX
  8
0
 10
1383.221799
 20
886.742562
 42
0.021903
  0
VERTEX
  8
0
 10
1394.263009
 20
902.233705
 42
0.027666
  0
VERTEX
  8
0
 10
1403.006124
 20
917.500000
 42
0.014346
  0
VERTEX
  8
0
 10
1407.444539
 20
927.023968
 42
0.032322
  0
VERTEX
  8
0
 10
1410.120435
 20
934.522028
 42
0.038560
  0
VERTEX
  8
0
 10
1411.527250
 20
941.423561
 42
0.031335
  0
VERTEX
  8
0
 10
1411.990231
 20
948.960099
 42
0.041021
  0
VERTEX
  8
0
 10
1411.457193
 20
955.344977
 42
0.054136
  0
VERTEX
  8
0
 10
1409.881248
 20
960.963734
 42
0.053167
  0
VERTEX
  8
0
 10
1407.108181
 20
966.189688
 42
0.037674
  0
VERTEX
  8
0
 10
1402.985186
 20
971.400245
 42
0.034175
  0
VERTEX
  8
0
 10
1398.944992
 20
975.223071
 42
0.038232
  0
VERTEX
  8
0
 10
1394.563386
 20
978.305137
 42
0.033272
  0
VERTEX
  8
0
 10
1389.266518
 20
980.996207
 42
0.017610
  0
VERTEX
  8
0
 10
1382.390149
 20
983.650104
 42
0.020622
  0
VERTEX
  8
0
 10
1377.209506
 20
985.206674
 42
0.035215
  0
VERTEX
  8
0
 10
1372.767379
 20
986.016102
 42
0.020653
  0
VERTEX
  8
0
 10
1366.876655
 20
986.420467
 42
0.003084
  0
VERTEX
  8
0
 10
1355.000000
 20
986.670721
 42
0.003947
  0
VERTEX
  8
0
 10
1344.425047
 20
986.744804
 42
0.013760
  0
VERTEX
  8
0
 10
1337.600908
 20
986.550899
 42
0.019972
  0
VERTEX
  8
0
 10
1332.276836
 20
986.038937
 42
0.019855
  0
SEQEND
  0
POLYLINE
  8
0
 66
1
 70
1
  0
VERTEX
  8
0
 10
1299.810476
 20
760.073425
 42
-0.021462
  0
VERTEX
  8
0
 10
1307.623886
 20
757.765051
 42
-0.032704
  0
VERTEX
  8
0
 10
1314.149060
 20
755.040282
 42
-0.036272
  0
VERTEX
  8
0
 10
1319.734940
 20
751.741369
 42
-0.037735
  0
VERTEX
  8
0
 10
1324.707249
 20
747.708827
 42
-0.042209
  0
VERTEX
  8
0
 10
1329.033132
 20
742.870927
 42
-0.070022
  0
VERTEX
  8
0
 10
1331.678642
 20
738.089890
 42
-0.064251
  0
VERTEX
  8
0
 10
1333.036570
 20
732.474279
 42
-0.030184
  0
VERTEX
  8
0
 10
1333.399986
 20
725.000000
 42
-0.027848
  0
VERTEX
  8
0
 10
1332.903573
 20
717.651105
 42
-0.034847
  0
VERTEX
  8
0
 10
1331.594437
 20
710.945080
 42
-0.033719
  0
VERTEX
  8
0
 10
1329.323481
 20
704.312252
 42
-0.023592
  0
VERTEX
  8
0
 10
1325.924909
 20
697.175984
 42
-0.058639
  0
VERTEX
  8
0
 10
1312.778257
 20
678.316942
 42
-0.042432
  0
VERTEX
  8
0
 10
1294.194016
 20
660.651334
 42
-0.039416
  0
VERTEX
  8
0
 10
1271.304048
 20
645.110192
 42
-0.034702
  0
VERTEX
  8
0
 10
1245.283399
 20
632.595548
 42
-0.028807
  0
VERTEX
  8
0
 10
1232.756853
 20
628.426039
 42
-0.027984
  0
VERTEX
  8
0
 10
1219.712779
 20
625.676221
 42
-0.027129
  0
VERTEX
  8
0
 10
1208.280200
 20
624.557185
 42
-0.134483
  0
VERTEX
  8
0
 10
1202.038424
 20
625.979436
 42
-0.058192
  0
VERTEX
  8
0
 10
1200.849127
 20
626.806505
 42
-0.134828
  0
VERTEX
  8
0
 10
1200.259278
 20
627.709063
 42
-0.092575
  0
VERTEX
  8
0
 10
1200.094381
 20
629.008884
 42
-0.018726
  0
VERTEX
  8
0
 10
1200.318103
 20
631.334969
 42
-0.068005
  0
VERTEX
  8
0
 10
1201.713115
 20
636.392546
 42
-0.018937
  0
VERTEX
  8
0
 10
1205.242720
 20
643.835656
 42
-0.018363
  0
VERTEX
  8
0
 10
1210.003928
 20
652.201753
 42
-0.016375
  0
VERTEX
  8
0
 10
1215.542137
 20
660.529599
 42
-0.009898
  0
VERTEX
  8
0
 10
1222.015873
 20
669.235262
 42
-0.006582
  0
VERTEX
  8
0
 10
1229.764196
 20
678.967943
 42
-0.001262
  0
VERTEX
  8
0
 10
1237.755040
 20
688.688330
 42
-0.442266
  0
VERTEX
  8
0
 10
1238.604691
 20
688.728642
 42
-0.175229
  0
VERTEX
  8
0
 10
1238.800920
 20
688.310157
 42
-0.001844
  0
VERTEX
  8
0
 10
1239.087086
 20
685.060726
 42
-0.005594
  0
VERTEX
  8
0
 10
1239.363256
 20
681.282393
 42
-0.003574
  0
VERTEX
  8
0
 10
1239.603696
 20
676.885307
 42
0.008108
  0
VERTEX
  8
0
 10
1239.926996
 20
671.816425
 42
0.016285
  0
VERTEX
  8
0
 10
1240.376973
 20
667.832690
 42
0.018644
  0
VERTEX
  8
0
 10
1240.927476
 20
664.846891
 42
0.088499
  0
VERTEX
  8
0
 10
1241.595389
 20
663.250000
 42
0.115475
  0
VERTEX
  8
0
 10
1243.096739
 20
661.799482
 42
0.100319
  0
VERTEX
  8
0
 10
1245.164531
 20
661.072032
 42
0.107048
  0
VERTEX
  8
0
 10
1247.240670
 20
661.227982
 42
0.150125
  0
VERTEX
  8
0
 10
1248.779421
 20
662.250000
 42
0.160357
  0
VERTEX
  8
0
 10
1249.255513
 20
663.483026
 42
0.001006
  0
VERTEX
  8
0
 10
1249.837440
 20
675.481628
 42
0.003608
  0
VERTEX
  8
0
 10
1250.411133
 20
690.096001
 42
0.001694
  0
VERTEX
  8
0
 10
1250.952532
 20
709.000000
 42
-0.000662
  0
VERTEX
  8
0
 10
1251.419796
 20
726.584583
 42
-0.001033
  0
VERTEX
  8
0
 10
1251.873388
 20
741.721875
 42
-0.000269
  0
VERTEX
  8
0
 10
1252.303960
 20
754.940418
 42
-0.037817
  0
VERTEX
  8
0
 10
1252.474155
 20
756.500000
 42
0.013546
  0
VERTEX
  8
0
 10
1252.622684
 20
757.437007
 42
0.007021
  0
VERTEX
  8
0
 10
1252.759936
 20
758.614142
 42
0.006975
  0
VERTEX
  8
0
 10
1252.867164
 20
759.828360
 42
0.010528
  0
VERTEX
  8
0
 10
1252.923489
 20
760.888569
 42
0.000000
  0
VERTEX
  8
0
 10
1253.000000
 20
763.277138
 42
0.000000
  0
VERTEX
  8
0
 10
1272.250000
 20
762.711308
 42
-0.004645
  0
VERTEX
  8
0
 10
1282.058451
 20
762.331773
 42
-0.011865
  0
VERTEX
  8
0
 10
1289.152704
 20
761.822287
 42
-0.015909
  0
VERTEX
  8
0
 10
1294.775654
 20
761.102951
 42
-0.021327
  0
SEQEND
  0
POLYLINE
  8
0
 66
1
 70
1
  0
VERTEX
  8
0
 10
1550.378419
 20
981.961563
 42
0.074662
  0
VERTEX
  8
0
 10
1549.523985
 20
981.483059
 42
0.050081
  0
VERTEX
  8
0
 10
1548.710786
 20
980.710719
 42
0.049578
  0
VERTEX
  8
0
 10
1548.057800
 20
979.780424
 42
0.067719
  0
VERTEX
  8
0
 10
1547.680611
 20
978.829729
 42
0.046407
  0
VERTEX
  8
0
 10
1546.804793
 20
973.023886
 42
0.000380
  0
VERTEX
  8
0
 10
1544.207994
 20
926.878052
 42
0.001452
  0
VERTEX
  8
0
 10
1541.556616
 20
876.471087
 42
0.001218
  0
VERTEX
  8
0
 10
1539.030248
 20
823.000000
 42
-0.000604
  0
VERTEX
  8
0
 10
1537.971605
 20
799.994372
 42
-0.004988
  0
VERTEX
  8
0
 10
1537.373478
 20
789.542926
 42
-0.004762
  0
VERTEX
  8
0
 10
1536.884719
 20
783.180306
 42
-0.191510
  0
VERTEX
  8
0
 10
1536.270199
 20
781.954276
 42
-0.136679
  0
VERTEX
  8
0
 10
1535.613088
 20
781.631933
 42
-0.002610
  0
VERTEX
  8
0
 10
1531.840173
 20
780.948649
 42
-0.006124
  0
VERTEX
  8
0
 10
1527.396448
 20
780.223808
 42
-0.004039
  0
VERTEX
  8
0
 10
1522.270815
 20
779.494357
 42
-0.004476
  0
VERTEX
  8
0
 10
1515.566073
 20
778.656402
 42
-0.018771
  0
VERTEX
  8
0
 10
1511.516941
 20
778.340557
 42
-0.028406
  0
VERTEX
  8
0
 10
1508.906464
 20
778.383601
 42
-0.156110
  0
VERTEX
  8
0
 10
1507.616468
 20
778.903340
 42
0.156255
  0
VERTEX
  8
0
 10
1506.025332
 20
779.543884
 42
0.064986
  0
VERTEX
  8
0
 10
1503.686620
 20
779.410261
 42
0.023492
  0
VERTEX
  8
0
 10
1499.558953
 20
778.427068
 42
0.002182
  0
VERTEX
  8
0
 10
1489.500000
 20
775.478092
 42
-0.012102
  0
VERTEX
  8
0
 10
1481.155839
 20
773.210577
 42
-0.010568
  0
VERTEX
  8
0
 10
1472.327185
 20
771.236284
 42
-0.003960
  0
VERTEX
  8
0
 10
1463.996224
 20
769.625870
 42
-0.247958
  0
VERTEX
  8
0
 10
1462.610926
 20
770.059075
 42
-0.205668
  0
VERTEX
  8
0
 10
1462.458505
 20
770.445250
 42
-0.004416
  0
VERTEX
  8
0
 10
1462.538753
 20
772.523853
 42
-0.009415
  0
VERTEX
  8
0
 10
1462.702318
 20
774.989210
 42
-0.006121
  0
VERTEX
  8
0
 10
1462.979722
 20
777.830639
 42
0.042084
  0
VERTEX
  8
0
 10
1463.253959
 20
788.606794
 42
0.058258
  0
VERTEX
  8
0
 10
1461.571606
 20
798.118540
 42
0.062741
  0
VERTEX
  8
0
 10
1457.888081
 20
806.439206
 42
0.060904
  0
VERTEX
  8
0
 10
1452.225625
 20
813.679137
 42
0.057438
  0
VERTEX
  8
0
 10
1444.514538
 20
819.796425
 42
0.075820
  0
VERTEX
  8
0
 10
1436.279560
 20
823.322356
 42
0.083950
  0
VERTEX
  8
0
 10
1428.053827
 20
824.028952
 42
0.092518
  0
VERTEX
  8
0
 10
1420.349466
 20
821.927128
 42
0.102742
  0
VERTEX
  8
0
 10
1411.590791
 20
815.190938
 42
0.051721
  0
VERTEX
  8
0
 10
1403.601372
 20
803.688336
 42
0.044009
  0
VERTEX
  8
0
 10
1396.888655
 20
788.484114
 42
0.031230
  0
VERTEX
  8
0
 10
1391.996814
 20
770.484514
 42
0.023994
  0
VERTEX
  8
0
 10
1389.444469
 20
754.144273
 42
0.020108
  0
VERTEX
  8
0
 10
1388.274104
 20
736.639030
 42
0.020510
  0
VERTEX
  8
0
 10
1388.506201
 20
720.596003
 42
0.053640
  0
VERTEX
  8
0
 10
1390.370449
 20
709.236006
 42
0.032155
  0
VERTEX
  8
0
 10
1392.113646
 20
704.214354
 42
0.035941
  0
VERTEX
  8
0
 10
1394.434136
 20
699.649104
 42
0.039357
  0
VERTEX
  8
0
 10
1397.024507
 20
696.026696
 42
0.095300
  0
VERTEX
  8
0
 10
1399.569265
 20
693.963327
 42
0.081795
  0
VERTEX
  8
0
 10
1402.664093
 20
692.909982
 42
0.050186
  0
VERTEX
  8
0
 10
1406.517751
 20
692.660900
 42
0.048690
  0
VERTEX
  8
0
 10
1410.502094
 20
693.194148
 42
0.060953
  0
VERTEX
  8
0
 10
1414.000000
 20
694.479332
 42
0.069134
  0
VERTEX
  8
0
 10
1418.642872
 20
697.737532
 42
0.010527
  0
VERTEX
  8
0
 10
1426.779379
 20
705.643199
 42
0.012432
  0
VERTEX
  8
0
 10
1434.736370
 20
714.118417
 42
0.034295
  0
VERTEX
  8
0
 10
1439.758551
 20
720.583492
 42
0.017124
  0
VERTEX
  8
0
 10
1444.032509
 20
727.436521
 42
0.009051
  0
VERTEX
  8
0
 10
1448.883501
 20
736.205654
 42
0.009045
  0
VERTEX
  8
0
 10
1453.382777
 20
745.082907
 42
0.018337
  0
VERTEX
  8
0
 10
1456.534866
 20
752.250000
 42
-0.010551
  0
VERTEX
  8
0
 10
1458.043687
 20
755.830955
 42
-0.053039
  0
VERTEX
  8
0
 10
1459.133239
 20
757.708331
 42
-0.105076
  0
VERTEX
  8
0
 10
1460.197465
 20
758.659921
 42
-0.130787
  0
VERTEX
  8
0
 10
1461.475350
 20
759.000000
 42
0.041431
  0
VERTEX
  8
0
 10
1466.067420
 20
759.381160
 42
0.008714
  0
VERTEX
  8
0
 10
1473.994916
 20
760.848761
 42
0.009688
  0
VERTEX
  8
0
 10
1482.357086
 20
762.717450
 42
0.017078
  0
VERTEX
  8
0
 10
1489.170937
 20
764.628088
 42
-0.014246
  0
VERTEX
  8
0
 10
1492.974356
 20
765.717856
 42
-0.017069
  0
VERTEX
  8
0
 10
1496.612068
 20
766.517668
 42
-0.018700
  0
VERTEX
  8
0
 10
1499.871650
 20
766.993292
 42
-0.036306
  0
VERTEX
  8
0
 10
1502.500000
 20
767.085102
 42
0.024156
  0
VERTEX
  8
0
 10
1505.298725
 20
767.114875
 42
0.004983
  0
VERTEX
  8
0
 10
1510.219500
 20
767.454481
 42
0.005229
  0
VERTEX
  8
0
 10
1515.932580
 20
767.966179
 42
0.004902
  0
VERTEX
  8
0
 10
1521.757872
 20
768.607140
 42
-0.003942
  0
VERTEX
  8
0
 10
1527.262599
 20
769.223534
 42
-0.006250
  0
VERTEX
  8
0
 10
1531.987356
 20
769.655282
 42
-0.001974
  0
VERTEX
  8
0
 10
1536.060115
 20
769.960000
 42
-0.217362
  0
VERTEX
  8
0
 10
1536.559954
 20
769.773379
 42
-0.202030
  0
VERTEX
  8
0
 10
1536.775744
 20
769.243455
 42
-0.000169
  0
VERTEX
  8
0
 10
1536.599511
 20
754.944808
 42
-0.001740
  0
VERTEX
  8
0
 10
1536.341279
 20
738.949519
 42
-0.001061
  0
VERTEX
  8
0
 10
1535.930408
 20
720.057345
 42
0.002091
  0
VERTEX
  8
0
 10
1535.510884
 20
698.747401
 42
0.001583
  0
VERTEX
  8
0
 10
1535.222331
 20
675.357840
 42
0.001600
  0
VERTEX
  8
0
 10
1535.091225
 20
653.396313
 42
0.003723
  0
VERTEX
  8
0
 10
1535.168190
 20
636.938611
 42
0.001294
  0
VERTEX
  8
0
 10
1535.452234
 20
617.629856
 42
0.009946
  0
VERTEX
  8
0
 10
1535.788861
 20
608.582016
 42
0.016047
  0
VERTEX
  8
0
 10
1536.261187
 20
603.299121
 42
0.167577
  0
VERTEX
  8
0
 10
1537.200578
 20
601.370850
 42
0.113148
  0
VERTEX
  8
0
 10
1538.948167
 20
600.275055
 42
0.070064
  0
VERTEX
  8
0
 10
1541.336247
 20
599.803827
 42
0.071811
  0
VERTEX
  8
0
 10
1543.689120
 20
600.012490
 42
0.139195
  0
VERTEX
  8
0
 10
1545.325000
 20
600.924188
 42
0.190637
  0
VERTEX
  8
0
 10
1545.951708
 20
602.370113
 42
0.001819
  0
VERTEX
  8
0
 10
1546.286388
 20
614.069999
 42
0.004170
  0
VERTEX
  8
0
 10
1546.557443
 20
630.378430
 42
0.001065
  0
VERTEX
  8
0
 10
1546.719914
 20
656.799188
 42
-0.001245
  0
VERTEX
  8
0
 10
1547.053730
 20
708.074184
 42
-0.003896
  0
VERTEX
  8
0
 10
1547.632712
 20
742.550934
 42
-0.001336
  0
VERTEX
  8
0
 10
1548.343676
 20
768.630050
 42
-0.191146
  0
VERTEX
  8
0
 10
1549.537638
 20
771.394781
 42
-0.177870
  0
VERTEX
  8
0
 10
1553.816010
 20
773.374252
 42
-0.001207
  0
VERTEX
  8
0
 10
1595.016870
 20
776.630379
 42
-0.005193
  0
VERTEX
  8
0
 10
1633.869190
 20
779.200990
 42
-0.013688
  0
VERTEX
  8
0
 10
1661.750000
 20
779.990438
 42
-0.003313
  0
VERTEX
  8
0
 10
1668.351432
 20
779.952857
 42
-0.050820
  0
VERTEX
  8
0
 10
1670.611894
 20
779.694336
 42
-0.193591
  0
VERTEX
  8
0
 10
1671.606939
 20
779.016685
 42
-0.149983
  0
VERTEX
  8
0
 10
1671.988690
 20
777.750000
 42
-0.011299
  0
VERTEX
  8
0
 10
1671.943434
 20
776.112093
 42
-0.000272
  0
VERTEX
  8
0
 10
1671.557864
 20
768.523438
 42
-0.000595
  0
VERTEX
  8
0
 10
1671.090316
 20
759.625834
 42
-0.000404
  0
VERTEX
  8
0
 10
1670.537929
 20
749.500000
 42
0.004831
  0
VERTEX
  8
0
 10
1669.140982
 20
718.916584
 42
0.002750
  0
VERTEX
  8
0
 10
1668.012583
 20
681.911202
 42
0.001290
  0
VERTEX
  8
0
 10
1667.201929
 20
645.734092
 42
0.037739
  0
VERTEX
  8
0
 10
1667.714732
 20
636.523638
 42
0.012352
  0
VERTEX
  8
0
 10
1668.248909
 20
633.122026
 42
0.071371
  0
VERTEX
  8
0
 10
1668.825029
 20
631.400651
 42
0.122845
  0
VERTEX
  8
0
 10
1669.714819
 20
630.365304
 42
0.069669
  0
VERTEX
  8
0
 10
1671.191514
 20
629.601608
 42
0.295886
  0
VERTEX
  8
0
 10
1674.695614
 20
630.448671
 42
0.153544
  0
VERTEX
  8
0
 10
1676.749946
 20
634.663227
 42
0.027817
  0
VERTEX
  8
0
 10
1677.788514
 20
645.772075
 42
0.001417
  0
VERTEX
  8
0
 10
1679.048524
 20
682.000000
 42
-0.003568
  0
VERTEX
  8
0
 10
1680.618901
 20
722.174423
 42
-0.002019
  0
VERTEX
  8
0
 10
1683.065593
 20
770.829298
 42
-0.001750
  0
VERTEX
  8
0
 10
1686.352463
 20
827.649439
 42
-0.001152
  0
VERTEX
  8
0
 10
1690.513469
 20
893.000000
 42
0.000310
  0
VERTEX
  8
0
 10
1693.303591
 20
935.686740
 42
0.003771
  0
VERTEX
  8
0
 10
1694.240029
 20
952.066406
 42
0.006223
  0
VERTEX
  8
0
 10
1694.581796
 20
961.269046
 42
0.097304
  0
VERTEX
  8
0
 10
1694.053476
 20
964.359346
 42
0.110077
  0
VERTEX
  8
0
 10
1692.765339
 20
966.314391
 42
0.150664
  0
VERTEX
  8
0
 10
1690.897403
 20
967.262899
 42
0.138110
  0
VERTEX
  8
0
 10
1688.692402
 20
967.033403
 42
0.086830
  0
VERTEX
  8
0
 10
1686.470840
 20
965.667024
 42
0.076706
  0
VERTEX
  8
0
 10
1685.111924
 20
964.030699
 42
0.071183
  0
VERTEX
  8
0
 10
1684.266749
 20
962.019382
 42
0.035762
  0
VERTEX
  8
0
 10
1683.673773
 20
958.836444
 42
0.005641
  0
VERTEX
  8
0
 10
1683.028973
 20
952.500000
 42
0.005798
  0
VERTEX
  8
0
 10
1681.877413
 20
937.866784
 42
0.000637
  0
VERTEX
  8
0
 10
1679.668470
 20
904.274394
 42
0.000816
  0
VERTEX
  8
0
 10
1677.260530
 20
865.955521
 42
0.000844
  0
VERTEX
  8
0
 10
1675.005528
 20
828.061666
 42
-0.000837
  0
VERTEX
  8
0
 10
1674.195702
 20
814.449855
 42
-0.001375
  0
VERTEX
  8
0
 10
1673.459459
 20
802.934282
 42
-0.000115
  0
VERTEX
  8
0
 10
1672.768834
 20
792.615122
 42
-0.181541
  0
VERTEX
  8
0
 10
1672.619440
 20
792.286107
 42
-0.183927
  0
VERTEX
  8
0
 10
1672.294060
 20
792.140172
 42
-0.000287
  0
VERTEX
  8
0
 10
1665.803887
 20
791.768213
 42
-0.002195
  0
VERTEX
  8
0
 10
1658.499989
 20
791.385988
 42
-0.001348
  0
VERTEX
  8
0
 10
1649.891108
 20
790.996614
 42
0.002668
  0
VERTEX
  8
0
 10
1627.689747
 20
789.933725
 42
0.004061
  0
VERTEX
  8
0
 10
1608.422085
 20
788.751221
 42
0.004365
  0
VERTEX
  8
0
 10
1590.270413
 20
787.329806
 42
0.003931
  0
VERTEX
  8
0
 10
1571.500000
 20
785.546143
 42
-0.001325
  0
VERTEX
  8
0
 10
1563.029750
 20
784.696693
 42
-0.002141
  0
VERTEX
  8
0
 10
1555.815625
 20
784.023693
 42
-0.000333
  0
VERTEX
  8
0
 10
1549.422614
 20
783.459184
 42
-0.144027
  0
VERTEX
  8
0
 10
1549.000000
 20
783.544272
 42
-0.289286
  0
VERTEX
  8
0
 10
1548.451335
 20
784.496272
 42
-0.000058
  0
VERTEX
  8
0
 10
1550.779174
 20
841.968841
 42
-0.001327
  0
VERTEX
  8
0
 10
1553.175963
 20
897.349981
 42
-0.001820
  0
VERTEX
  8
0
 10
1555.646127
 20
947.165757
 42
0.002016
  0
VERTEX
  8
0
 10
1556.229721
 20
959.029239
 42
0.003129
  0
VERTEX
  8
0
 10
1556.627878
 20
969.269603
 42
0.000955
  0
VERTEX
  8
0
 10
1556.900504
 20
978.149284
 42
0.099120
  0
VERTEX
  8
0
 10
1556.695803
 20
979.350342
 42
0.113150
  0
VERTEX
  8
0
 10
1555.712489
 20
980.813405
 42
0.090686
  0
VERTEX
  8
0
 10
1554.113276
 20
981.844844
 42
0.088484
  0
VERTEX
  8
0
 10
1552.214842
 20
982.260300
 42
0.100435
  0
SEQEND
  0
POLYLINE
  8
0
 66
1
 70
1
  0
VERTEX
  8
0
 10
1428.511955
 20
808.604561
 42
0.050744
  0
VERTEX
  8
0
 10
1425.604605
 20
803.864693
 42
0.043059
  0
VERTEX
  8
0
 10
1423.519592
 20
798.370990
 42
0.042074
  0
VERTEX
  8
0
 10
1422.368043
 20
792.465215
 42
0.043141
  0
VERTEX
  8
0
 10
1422.235330
 20
786.500000
 42
0.035458
  0
VERTEX
  8
0
 10
1422.990424
 20
780.935296
 42
0.051592
  0
VERTEX
  8
0
 10
1424.494652
 20
776.220696
 42
0.054545
  0
VERTEX
  8
0
 10
1426.853344
 20
772.109945
 42
0.046445
  0
VERTEX
  8
0
 10
1430.162371
 20
768.357799
 42
0.037005
  0
VERTEX
  8
0
 10
1433.173243
 20
765.916684
 42
0.026530
  0
VERTEX
  8
0
 10
1436.858772
 20
763.635469
 42
0.026670
  0
VERTEX
  8
0
 10
1440.731755
 20
761.774751
 42
0.039639
  0
VERTEX
  8
0
 10
1444.306815
 20
760.608588
 42
-0.149810
  0
VERTEX
  8
0
 10
1446.012034
 20
759.601473
 42
-0.242159
  0
VERTEX
  8
0
 10
1446.443230
 20
758.010910
 42
-0.058722
  0
VERTEX
  8
0
 10
1445.399300
 20
754.940620
 42
-0.003852
  0
VERTEX
  8
0
 10
1441.293225
 20
746.500000
 42
-0.018107
  0
VERTEX
  8
0
 10
1436.599757
 20
737.840399
 42
-0.012523
  0
VERTEX
  8
0
 10
1430.698715
 20
728.384706
 42
-0.012420
  0
VERTEX
  8
0
 10
1424.728280
 20
719.802452
 42
-0.034338
  0
VERTEX
  8
0
 10
1419.981833
 20
714.182151
 42
-0.019773
  0
VERTEX
  8
0
 10
1416.097986
 20
710.481088
 42
-0.020553
  0
VERTEX
  8
0
 10
1411.982121
 20
707.148218
 42
-0.017518
  0
VERTEX
  8
0
 10
1408.256492
 20
704.574509
 42
-0.143345
  0
VERTEX
  8
0
 10
1406.293731
 20
704.000000
 42
-0.201168
  0
VERTEX
  8
0
 10
1405.616514
 20
704.283960
 42
-0.032059
  0
VERTEX
  8
0
 10
1404.656188
 20
705.395313
 42
-0.031213
  0
VERTEX
  8
0
 10
1403.636636
 20
706.930888
 42
-0.022768
  0
VERTEX
  8
0
 10
1402.693770
 20
708.750000
 42
-0.046380
  0
VERTEX
  8
0
 10
1401.463197
 20
712.229133
 42
-0.041346
  0
VERTEX
  8
0
 10
1400.834615
 20
716.012715
 42
-0.018718
  0
VERTEX
  8
0
 10
1400.572252
 20
721.897469
 42
-0.002209
  0
VERTEX
  8
0
 10
1400.536807
 20
735.000000
 42
-0.003471
  0
VERTEX
  8
0
 10
1400.640622
 20
746.995536
 42
-0.013732
  0
VERTEX
  8
0
 10
1400.958164
 20
754.365600
 42
-0.020315
  0
VERTEX
  8
0
 10
1401.602146
 20
760.135812
 42
-0.017075
  0
VERTEX
  8
0
 10
1402.739501
 20
766.182760
 42
-0.026064
  0
VERTEX
  8
0
 10
1407.902547
 20
784.681417
 42
-0.045149
  0
VERTEX
  8
0
 10
1414.325613
 20
799.278431
 42
-0.058092
  0
VERTEX
  8
0
 10
1421.276643
 20
808.998180
 42
-0.211555
  0
VERTEX
  8
0
 10
1428.053772
 20
812.000000
 42
0.000000
  0
VERTEX
  8
0
 10
1431.101783
 20
812.000000
 42
0.000000
  0
SEQEND
  0
POLYLINE
  8
0
 66
1
 70
1
  0
VERTEX
  8
0
 10
1446.791885
 20
802.721528
 42
-0.105860
  0
VERTEX
  8
0
 10
1449.767870
 20
797.793270
 42
-0.046242
  0
VERTEX
  8
0
 10
1451.591912
 20
790.336402
 42
-0.044731
  0
VERTEX
  8
0
 10
1452.069652
 20
782.120232
 42
-0.059963
  0
VERTEX
  8
0
 10
1450.947419
 20
774.750000
 42
-0.055116
  0
VERTEX
  8
0
 10
1449.925841
 20
772.199761
 42
-0.217152
  0
VERTEX
  8
0
 10
1448.613741
 20
771.198139
 42
-0.151238
  0
VERTEX
  8
0
 10
1446.651166
 20
771.347306
 42
-0.023925
  0
VERTEX
  8
0
 10
1443.085953
 20
772.956150
 42
-0.080427
  0
VERTEX
  8
0
 10
1437.739346
 20
776.872920
 42
-0.100842
  0
VERTEX
  8
0
 10
1434.393764
 20
782.012601
 42
-0.099182
  0
VERTEX
  8
0
 10
1433.292937
 20
788.120757
 42
-0.075461
  0
VERTEX
  8
0
 10
1434.446441
 20
794.838750
 42
-0.040375
  0
VERTEX
  8
0
 10
1436.111370
 20
798.761487
 42
-0.051215
  0
VERTEX
  8
0
 10
1438.281773
 20
802.042396
 42
-0.060304
  0
VERTEX
  8
0
 10
1440.620820
 20
804.281446
 42
-0.162174
  0
VERTEX
  8
0
 10
1442.777937
 20
805.000000
 42
-0.091170
  0
VERTEX
  8
0
 10
1443.647824
 20
804.840056
 42
-0.038171
  0
VERTEX
  8
0
 10
1444.729826
 20
804.330699
 42
-0.036138
  0
VERTEX
  8
0
 10
1445.834506
 20
803.593405
 42
-0.038978
  0
SEQEND
  0
POLYLINE
  8
0
 66
1
 70
1
  0
VERTEX
  8
0
 10
2028.653143
 20
981.510286
 42
0.089872
  0
VERTEX
  8
0
 10
2027.550218
 20
979.919184
 42
0.047334
  0
VERTEX
  8
0
 10
2026.763212
 20
977.638474
 42
0.016879
  0
VERTEX
  8
0
 10
2025.905959
 20
973.493110
 42
0.001358
  0
VERTEX
  8
0
 10
2024.047745
 20
962.500000
 42
0.009415
  0
VERTEX
  8
0
 10
2020.464512
 20
938.115975
 42
0.003646
  0
VERTEX
  8
0
 10
2016.384029
 20
904.213799
 42
0.003607
  0
VERTEX
  8
0
 10
2012.493101
 20
867.391731
 42
0.004447
  0
VERTEX
  8
0
 10
2009.418243
 20
833.000000
 42
0.012356
  0
VERTEX
  8
0
 10
2008.072069
 20
808.798466
 42
0.004380
  0
VERTEX
  8
0
 10
2007.305696
 20
774.120254
 42
0.004081
  0
VERTEX
  8
0
 10
2007.129455
 20
740.061928
 42
0.017982
  0
VERTEX
  8
0
 10
2007.911184
 20
720.000000
 42
0.008391
  0
VERTEX
  8
0
 10
2009.294696
 20
704.952850
 42
0.009458
  0
VERTEX
  8
0
 10
2011.139230
 20
690.551155
 42
0.010175
  0
VERTEX
  8
0
 10
2013.270493
 20
677.880732
 42
0.022351
  0
VERTEX
  8
0
 10
2015.526627
 20
668.317901
 42
0.025425
  0
VERTEX
  8
0
 10
2018.410961
 20
659.820231
 42
0.018961
  0
VERTEX
  8
0
 10
2022.411584
 20
650.764140
 42
0.019286
  0
VERTEX
  8
0
 10
2026.918043
 20
642.365301
 42
0.034902
  0
VERTEX
  8
0
 10
2031.326430
 20
635.932725
 42
0.073537
  0
VERTEX
  8
0
 10
2040.964239
 20
626.892713
 42
0.076743
  0
VERTEX
  8
0
 10
2052.672113
 20
621.187857
 42
0.074101
  0
VERTEX
  8
0
 10
2065.913908
 20
619.155498
 42
0.062188
  0
VERTEX
  8
0
 10
2080.028660
 20
620.855390
 42
0.044517
  0
VERTEX
  8
0
 10
2092.746135
 20
625.254815
 42
0.026524
  0
VERTEX
  8
0
 10
2107.001456
 20
632.587026
 42
0.019562
  0
VERTEX
  8
0
 10
2119.488454
 20
640.541836
 42
0.245899
  0
VERTEX
  8
0
 10
2122.000000
 20
645.339904
 42
0.070066
  0
VERTEX
  8
0
 10
2121.854703
 20
646.371677
 42
0.042008
  0
VERTEX
  8
0
 10
2121.413561
 20
647.530397
 42
0.041222
  0
VERTEX
  8
0
 10
2120.767742
 20
648.632292
 42
0.055733
  0
VERTEX
  8
0
 10
2120.003611
 20
649.496733
 42
0.059942
  0
VERTEX
  8
0
 10
2118.662690
 20
650.445596
 42
0.177630
  0
VERTEX
  8
0
 10
2117.564578
 20
650.605373
 42
0.082538
  0
VERTEX
  8
0
 10
2116.126084
 20
650.044438
 42
0.007109
  0
VERTEX
  8
0
 10
2112.753611
 20
647.973369
 42
-0.009861
  0
VERTEX
  8
0
 10
2100.823870
 20
640.737319
 42
-0.023354
  0
VERTEX
  8
0
 10
2091.604513
 20
635.951615
 42
-0.029035
  0
VERTEX
  8
0
 10
2083.320850
 20
632.699998
 42
-0.026863
  0
VERTEX
  8
0
 10
2074.500000
 20
630.331850
 42
-0.055772
  0
VERTEX
  8
0
 10
2065.216729
 20
629.427190
 42
-0.070258
  0
VERTEX
  8
0
 10
2056.693425
 20
630.755236
 42
-0.070209
  0
VERTEX
  8
0
 10
2048.866620
 20
634.392674
 42
-0.055595
  0
VERTEX
  8
0
 10
2041.641205
 20
640.311364
 42
-0.074491
  0
VERTEX
  8
0
 10
2033.165638
 20
652.066063
 42
-0.044930
  0
VERTEX
  8
0
 10
2026.682292
 20
668.010680
 42
-0.035817
  0
VERTEX
  8
0
 10
2021.983184
 20
688.561528
 42
-0.019049
  0
VERTEX
  8
0
 10
2018.984535
 20
714.500000
 42
-0.015383
  0
VERTEX
  8
0
 10
2018.180480
 20
731.877241
 42
-0.003856
  0
VERTEX
  8
0
 10
2017.960157
 20
760.258944
 42
-0.004105
  0
VERTEX
  8
0
 10
2018.197476
 20
789.346168
 42
-0.010167
  0
VERTEX
  8
0
 10
2018.979575
 20
810.645872
 42
-0.008022
  0
VERTEX
  8
0
 10
2021.086074
 20
839.419072
 42
-0.004194
  0
VERTEX
  8
0
 10
2024.584194
 20
875.178846
 42
-0.004103
  0
VERTEX
  8
0
 10
2028.895266
 20
912.795801
 42
-0.005153
  0
VERTEX
  8
0
 10
2033.535162
 20
947.577449
 42
0.002532
  0
VERTEX
  8
0
 10
2034.862062
 20
957.141414
 42
0.003240
  0
VERTEX
  8
0
 10
2035.982204
 20
965.961979
 42
0.002509
  0
VERTEX
  8
0
 10
2036.835734
 20
973.363090
 42
0.027457
  0
VERTEX
  8
0
 10
2037.000000
 20
976.352200
 42
0.016579
  0
VERTEX
  8
0
 10
2036.911643
 20
979.016125
 42
0.089832
  0
VERTEX
  8
0
 10
2036.561575
 20
980.413332
 42
0.137321
  0
VERTEX
  8
0
 10
2035.816316
 20
981.302434
 42
0.059301
  0
VERTEX
  8
0
 10
2034.434900
 20
982.024751
 42
0.018116
  0
VERTEX
  8
0
 10
2032.205498
 20
982.781142
 42
0.095189
  0
VERTEX
  8
0
 10
2030.924497
 20
982.911040
 42
0.129473
  0
VERTEX
  8
0
 10
2029.883892
 20
982.535593
 42
0.045437
  0
SEQEND
  0
POLYLINE
  8
0
 66
1
 70
1
  0
VERTEX
  8
0
 10
623.500000
 20
975.325603
 42
0.008169
  0
VERTEX
  8
0
 10
589.642677
 20
973.300139
 42
0.004038
  0
VERTEX
  8
0
 10
546.716341
 20
969.678653
 42
0.001634
  0
VERTEX
  8
0
 10
503.707674
 20
965.558384
 42
0.067007
  0
VERTEX
  8
0
 10
494.606530
 20
963.402506
 42
0.217894
  0
VERTEX
  8
0
 10
492.828539
 20
961.588264
 42
0.118635
  0
VERTEX
  8
0
 10
492.479035
 20
958.425471
 42
0.110226
  0
VERTEX
  8
0
 10
493.614439
 20
955.272742
 42
0.176351
  0
VERTEX
  8
0
 10
495.856196
 20
953.545642
 42
0.096025
  0
VERTEX
  8
0
 10
497.344143
 20
953.372459
 42
0.001833
  0
VERTEX
  8
0
 10
505.131275
 20
953.990952
 42
0.004375
  0
VERTEX
  8
0
 10
514.236447
 20
954.828004
 42
0.002908
  0
VERTEX
  8
0
 10
524.663480
 20
955.939949
 42
-0.002989
  0
VERTEX
  8
0
 10
542.778120
 20
957.868730
 42
-0.002014
  0
VERTEX
  8
0
 10
563.478351
 20
959.863577
 42
-0.001968
  0
VERTEX
  8
0
 10
584.902446
 20
961.756102
 42
-0.002302
  0
VERTEX
  8
0
 10
605.250000
 20
963.378506
 42
-0.013031
  0
VERTEX
  8
0
 10
607.454664
 20
963.486403
 42
-0.021777
  0
VERTEX
  8
0
 10
609.310938
 20
963.447961
 42
-0.017627
  0
VERTEX
  8
0
 10
610.740835
 20
963.305210
 42
-0.375274
  0
VERTEX
  8
0
 10
611.000000
 20
963.008539
 42
-0.027108
  0
VERTEX
  8
0
 10
610.965518
 20
962.372987
 42
-0.000067
  0
VERTEX
  8
0
 10
609.985470
 20
953.379087
 42
-0.000431
  0
VERTEX
  8
0
 10
608.870297
 20
943.239096
 42
-0.000269
  0
VERTEX
  8
0
 10
607.546282
 20
931.353366
 42
0.004763
  0
VERTEX
  8
0
 10
601.680199
 20
874.013652
 42
0.006098
  0
VERTEX
  8
0
 10
597.427041
 20
821.112915
 42
0.006492
  0
VERTEX
  8
0
 10
594.671656
 20
771.107798
 42
0.007091
  0
VERTEX
  8
0
 10
593.316101
 20
722.500000
 42
0.005656
  0
VERTEX
  8
0
 10
593.226198
 20
684.827104
 42
0.009891
  0
VERTEX
  8
0
 10
594.121758
 20
653.637619
 42
0.006161
  0
VERTEX
  8
0
 10
595.648120
 20
628.567393
 42
0.156149
  0
VERTEX
  8
0
 10
598.179021
 20
622.284293
 42
0.141523
  0
VERTEX
  8
0
 10
599.583917
 20
621.329544
 42
0.088237
  0
VERTEX
  8
0
 10
601.569269
 20
621.050378
 42
0.086247
  0
VERTEX
  8
0
 10
603.572622
 20
621.474006
 42
0.125049
  0
VERTEX
  8
0
 10
605.027512
 20
622.533150
 42
0.137777
  0
VERTEX
  8
0
 10
605.627381
 20
623.880420
 42
0.035260
  0
VERTEX
  8
0
 10
605.806931
 20
626.283556
 42
0.020531
  0
VERTEX
  8
0
 10
605.665590
 20
630.104829
 42
0.004290
  0
VERTEX
  8
0
 10
605.085740
 20
636.783150
 42
-0.019215
  0
VERTEX
  8
0
 10
603.397620
 20
666.491103
 42
-0.007587
  0
VERTEX
  8
0
 10
603.268106
 20
707.434919
 42
-0.007192
  0
VERTEX
  8
0
 10
604.490838
 20
753.749677
 42
-0.006751
  0
VERTEX
  8
0
 10
607.058098
 20
801.000000
 42
-0.004730
  0
VERTEX
  8
0
 10
610.887053
 20
850.473472
 42
-0.003513
  0
VERTEX
  8
0
 10
616.016466
 20
905.040874
 42
-0.000574
  0
VERTEX
  8
0
 10
621.622117
 20
959.860787
 42
-0.172080
  0
VERTEX
  8
0
 10
623.522063
 20
963.856302
 42
-0.199326
  0
VERTEX
  8
0
 10
625.156379
 20
964.533083
 42
-0.000215
  0
VERTEX
  8
0
 10
664.020335
 20
964.481881
 42
-0.001796
  0
VERTEX
  8
0
 10
698.645605
 20
964.297003
 42
-0.014299
  0
VERTEX
  8
0
 10
714.625607
 20
963.697036
 42
0.004001
  0
VERTEX
  8
0
 10
721.595918
 20
963.291453
 42
0.028358
  0
VERTEX
  8
0
 10
724.983572
 20
963.313747
 42
0.063098
  0
VERTEX
  8
0
 10
727.012240
 20
963.702448
 42
0.118059
  0
VERTEX
  8
0
 10
728.428824
 20
964.571681
 42
0.114724
  0
VERTEX
  8
0
 10
729.585899
 20
966.429815
 42
0.138879
  0
VERTEX
  8
0
 10
729.693302
 20
968.473402
 42
0.130596
  0
VERTEX
  8
0
 10
728.702256
 20
970.362211
 42
0.095832
  0
VERTEX
  8
0
 10
726.791587
 20
971.775267
 42
0.076121
  0
VERTEX
  8
0
 10
724.891492
 20
972.350065
 42
0.007446
  0
VERTEX
  8
0
 10
720.123975
 20
972.958420
 42
0.008875
  0
VERTEX
  8
0
 10
714.182027
 20
973.520271
 42
0.005749
  0
VERTEX
  8
0
 10
707.291587
 20
973.968974
 42
0.007266
  0
VERTEX
  8
0
 10
689.894774
 20
974.647743
 42
0.002069
  0
VERTEX
  8
0
 10
662.856989
 20
975.197410
 42
0.001712
  0
VERTEX
  8
0
 10
636.055431
 20
975.539533
 42
0.013189
  0
SEQEND
  0
POLYLINE
  8
0
 66
1
 70
1
  0
VERTEX
  8
0
 10
2450.267693
 20
842.343617
 42
0.235348
  0
VERTEX
  8
0
 10
2448.798062
 20
840.681859
 42
0.021571
  0
VERTEX
  8
0
 10
2447.566417
 20
835.140276
 42
0.013990
  0
VERTEX
  8
0
 10
2446.164399
 20
825.709748
 42
0.002185
  0
VERTEX
  8
0
 10
2443.999849
 20
807.010066
 42
-0.003412
  0
VERTEX
  8
0
 10
2441.554112
 20
786.325946
 42
-0.055870
  0
VERTEX
  8
0
 10
2439.924659
 20
779.554414
 42
-0.073245
  0
VERTEX
  8
0
 10
2436.863706
 20
773.870518
 42
-0.007710
  0
VERTEX
  8
0
 10
2427.639327
 20
761.877523
 42
-0.020484
  0
VERTEX
  8
0
 10
2410.465745
 20
741.978944
 42
-0.049889
  0
VERTEX
  8
0
 10
2395.890326
 20
729.243877
 42
-0.079113
  0
VERTEX
  8
0
 10
2384.160329
 20
723.424643
 42
-0.247140
  0
VERTEX
  8
0
 10
2375.766646
 20
724.968916
 42
-0.086616
  0
VERTEX
  8
0
 10
2373.294746
 20
727.722861
 42
-0.030313
  0
VERTEX
  8
0
 10
2370.743815
 20
732.413778
 42
-0.027315
  0
VERTEX
  8
0
 10
2368.364198
 20
738.322650
 42
-0.020960
  0
VERTEX
  8
0
 10
2366.398343
 20
745.000000
 42
-0.030051
  0
VERTEX
  8
0
 10
2365.397133
 20
750.370276
 42
-0.019079
  0
VERTEX
  8
0
 10
2364.849884
 20
756.711863
 42
-0.010113
  0
VERTEX
  8
0
 10
2364.585338
 20
766.258450
 42
-0.001760
  0
VERTEX
  8
0
 10
2364.513963
 20
784.286133
 42
0.001403
  0
VERTEX
  8
0
 10
2364.456548
 20
801.983164
 42
0.010042
  0
VERTEX
  8
0
 10
2364.233065
 20
810.532960
 42
0.013521
  0
VERTEX
  8
0
 10
2363.858913
 20
815.631171
 42
0.230617
  0
VERTEX
  8
0
 10
2363.000000
 20
817.020821
 42
0.164947
  0
VERTEX
  8
0
 10
2359.894342
 20
817.770729
 42
0.178249
  0
VERTEX
  8
0
 10
2357.089019
 20
816.440381
 42
0.087225
  0
VERTEX
  8
0
 10
2354.388233
 20
812.502628
 42
0.021768
  0
VERTEX
  8
0
 10
2351.456353
 20
805.239036
 42
-0.012340
  0
VERTEX
  8
0
 10
2337.509495
 20
768.717791
 42
-0.017301
  0
VERTEX
  8
0
 10
2323.144864
 20
736.899818
 42
-0.018441
  0
VERTEX
  8
0
 10
2309.568070
 20
711.782381
 42
-0.073547
  0
VERTEX
  8
0
 10
2298.601669
 20
698.200480
 42
-0.093342
  0
VERTEX
  8
0
 10
2292.792606
 20
694.570077
 42
-0.241421
  0
VERTEX
  8
0
 10
2288.017874
 20
695.055684
 42
-0.147854
  0
VERTEX
  8
0
 10
2283.965875
 20
699.846090
 42
-0.033058
  0
VERTEX
  8
0
 10
2280.330669
 20
710.044343
 42
-0.031988
  0
VERTEX
  8
0
 10
2279.379426
 20
714.456027
 42
-0.021990
  0
VERTEX
  8
0
 10
2278.845835
 20
719.546501
 42
-0.012853
  0
VERTEX
  8
0
 10
2278.591652
 20
726.855668
 42
-0.002780
  0
VERTEX
  8
0
 10
2278.547423
 20
739.500000
 42
-0.004321
  0
VERTEX
  8
0
 10
2278.687411
 20
752.578684
 42
-0.011736
  0
VERTEX
  8
0
 10
2279.084082
 20
761.837847
 42
-0.012825
  0
VERTEX
  8
0
 10
2279.891531
 20
770.596056
 42
-0.006097
  0
VERTEX
  8
0
 10
2281.357101
 20
781.825629
 42
0.004256
  0
VERTEX
  8
0
 10
2283.221640
 20
795.713408
 42
0.058221
  0
VERTEX
  8
0
 10
2283.265573
 20
800.799228
 42
0.219095
  0
VERTEX
  8
0
 10
2281.894315
 20
803.091787
 42
0.151231
  0
VERTEX
  8
0
 10
2278.960263
 20
804.000000
 42
0.062070
  0
VERTEX
  8
0
 10
2277.424666
 20
803.808632
 42
0.131442
  0
VERTEX
  8
0
 10
2276.385688
 20
803.228358
 42
0.091066
  0
VERTEX
  8
0
 10
2275.546217
 20
802.048565
 42
0.020135
  0
VERTEX
  8
0
 10
2274.583773
 20
799.750000
 42
0.017576
  0
VERTEX
  8
0
 10
2273.870449
 20
797.605544
 42
0.006562
  0
VERTEX
  8
0
 10
2273.015265
 20
794.549465
 42
0.006492
  0
VERTEX
  8
0
 10
2272.169521
 20
791.191689
 42
0.007816
  0
VERTEX
  8
0
 10
2271.465202
 20
788.014137
 42
-0.006855
  0
VERTEX
  8
0
 10
2270.824472
 20
785.096940
 42
-0.009788
  0
VERTEX
  8
0
 10
2270.169969
 20
782.528241
 42
-0.006167
  0
VERTEX
  8
0
 10
2269.556372
 20
780.405591
 42
-0.130231
  0
VERTEX
  8
0
 10
2269.214137
 20
779.850809
 42
-0.115684
  0
VERTEX
  8
0
 10
2267.489345
 20
778.843214
 42
-0.002365
  0
VERTEX
  8
0
 10
2257.826344
 20
775.921362
 42
-0.006213
  0
VERTEX
  8
0
 10
2248.323465
 20
773.224975
 42
-0.014801
  0
VERTEX
  8
0
 10
2241.184624
 20
771.519901
 42
-0.010236
  0
VERTEX
  8
0
 10
2232.779073
 20
769.952256
 42
-0.247926
  0
VERTEX
  8
0
 10
2230.588270
 20
770.683469
 42
-0.187163
  0
VERTEX
  8
0
 10
2229.620804
 20
773.020049
 42
-0.005629
  0
VERTEX
  8
0
 10
2229.500000
 20
783.749667
 42
0.017431
  0
VERTEX
  8
0
 10
2229.125953
 20
794.475481
 42
0.065654
  0
VERTEX
  8
0
 10
2227.786871
 20
801.053054
 42
0.077310
  0
VERTEX
  8
0
 10
2224.909689
 20
806.495997
 42
0.030307
  0
VERTEX
  8
0
 10
2219.416112
 20
813.002598
 42
0.032269
  0
VERTEX
  8
0
 10
2213.957846
 20
818.031762
 42
0.053733
  0
VERTEX
  8
0
 10
2208.708774
 20
821.415743
 42
0.060566
  0
VERTEX
  8
0
 10
2203.343404
 20
823.339553
 42
0.056792
  0
VERTEX
  8
0
 10
2197.553656
 20
823.978038
 42
0.108282
  0
VERTEX
  8
0
 10
2187.113436
 20
821.650505
 42
0.095111
  0
VERTEX
  8
0
 10
2178.039818
 20
815.107779
 42
0.072816
  0
VERTEX
  8
0
 10
2170.248344
 20
803.984528
 42
0.035845
  0
VERTEX
  8
0
 10
2163.602882
 20
788.000000
 42
0.019333
  0
VERTEX
  8
0
 10
2159.826601
 20
775.047400
 42
0.024299
  0
VERTEX
  8
0
 10
2157.387214
 20
762.789111
 42
0.022604
  0
VERTEX
  8
0
 10
2156.034854
 20
749.660231
 42
0.013585
  0
VERTEX
  8
0
 10
2155.560586
 20
734.000000
 42
0.003577
  0
VERTEX
  8
0
 10
2155.602411
 20
723.663264
 42
0.013764
  0
VERTEX
  8
0
 10
2155.851161
 20
717.243216
 42
0.021986
  0
VERTEX
  8
0
 10
2156.354698
 20
712.693206
 42
0.036583
  0
VERTEX
  8
0
 10
2157.223522
 20
708.937174
 42
0.058832
  0
VERTEX
  8
0
 10
2161.200050
 20
699.984038
 42
0.121282
  0
VERTEX
  8
0
 10
2166.538487
 20
694.553991
 42
0.145891
  0
VERTEX
  8
0
 10
2173.075218
 20
692.795582
 42
0.101419
  0
VERTEX
  8
0
 10
2180.568726
 20
694.543022
 42
0.076942
  0
VERTEX
  8
0
 10
2185.539489
 20
697.834117
 42
0.013386
  0
VERTEX
  8
0
 10
2193.681683
 20
705.653554
 42
0.015454
  0
VERTEX
  8
0
 10
2201.701029
 20
714.297370
 42
0.033607
  0
VERTEX
  8
0
 10
2207.174735
 20
721.500000
 42
0.019298
  0
VERTEX
  8
0
 10
2211.381116
 20
728.453053
 42
0.006933
  0
VERTEX
  8
0
 10
2216.844299
 20
738.655900
 42
0.006375
  0
VERTEX
  8
0
 10
2221.929208
 20
748.791587
 42
0.029746
  0
VERTEX
  8
0
 10
2224.429576
 20
754.826825
 42
0.000000
  0
VERTEX
  8
0
 10
2225.696836
 20
758.487219
 42
0.000000
  0
VERTEX
  8
0
 10
2234.598418
 20
759.731065
 42
0.015121
  0
VERTEX
  8
0
 10
2238.847853
 20
760.456463
 42
0.006820
  0
VERTEX
  8
0
 10
2244.375331
 20
761.651691
 42
0.006745
  0
VERTEX
  8
0
 10
2250.181605
 20
763.073107
 42
0.009149
  0
VERTEX
  8
0
 10
2255.381433
 20
764.522690
 42
-0.004083
  0
VERTEX
  8
0
 10
2259.967637
 20
765.851433
 42
-0.006565
  0
VERTEX
  8
0
 10
2263.900387
 20
766.900616
 42
-0.001951
  0
VERTEX
  8
0
 10
2267.302249
 20
767.746376
 42
-0.262056
  0
VERTEX
  8
0
 10
2267.697561
 20
767.635772
 42
-0.212529
  0
VERTEX
  8
0
 10
2267.848559
 20
767.242472
 42
-0.002708
  0
VERTEX
  8
0
 10
2267.691390
 20
764.520188
 42
-0.007324
  0
VERTEX
  8
0
 10
2267.443387
 20
761.336171
 42
-0.004667
  0
VERTEX
  8
0
 10
2267.066129
 20
757.639952
 42
0.022501
  0
VERTEX
  8
0
 10
2265.984485
 20
741.288561
 42
0.021801
  0
VERTEX
  8
0
 10
2266.357653
 20
724.731753
 42
0.022935
  0
VERTEX
  8
0
 10
2268.031468
 20
709.848421
 42
0.051362
  0
VERTEX
  8
0
 10
2270.958395
 20
698.867376
 42
0.070645
  0
VERTEX
  8
0
 10
2276.067995
 20
689.606476
 42
0.106693
  0
VERTEX
  8
0
 10
2283.010201
 20
683.603367
 42
0.123516
  0
VERTEX
  8
0
 10
2291.025368
 20
681.517327
 42
0.116828
  0
VERTEX
  8
0
 10
2299.259983
 20
683.391419
 42
0.105383
  0
VERTEX
  8
0
 10
2309.613798
 20
691.533227
 42
0.031574
  0
VERTEX
  8
0
 10
2321.523284
 20
707.822469
 42
0.027707
  0
VERTEX
  8
0
 10
2333.819152
 20
729.661516
 42
0.018305
  0
VERTEX
  8
0
 10
2345.586308
 20
755.956368
 42
-0.003890
  0
VERTEX
  8
0
 10
2349.865997
 20
766.310321
 42
-0.142865
  0
VERTEX
  8
0
 10
2351.467954
 20
768.277034
 42
-0.577172
  0
VERTEX
  8
0
 10
2352.554418
 20
767.760914
 42
-0.014336
  0
VERTEX
  8
0
 10
2352.904341
 20
761.000000
 42
0.027684
  0
VERTEX
  8
0
 10
2353.429928
 20
754.309395
 42
0.013535
  0
VERTEX
  8
0
 10
2354.800418
 20
745.860953
 42
0.013529
  0
VERTEX
  8
0
 10
2356.622353
 20
737.515471
 42
0.028249
  0
VERTEX
  8
0
 10
2358.577753
 20
731.160019
 42
0.052610
  0
VERTEX
  8
0
 10
2362.710425
 20
722.820590
 42
0.076921
  0
VERTEX
  8
0
 10
2368.096752
 20
716.663795
 42
0.086902
  0
VERTEX
  8
0
 10
2374.539983
 20
712.930556
 42
0.090411
  0
VERTEX
  8
0
 10
2381.778703
 20
711.677267
 42
0.111557
  0
VERTEX
  8
0
 10
2391.510406
 20
713.967078
 42
0.046911
  0
VERTEX
  8
0
 10
2403.059449
 20
721.000889
 42
0.037624
  0
VERTEX
  8
0
 10
2415.934700
 20
732.202646
 42
0.021395
  0
VERTEX
  8
0
 10
2429.812938
 20
747.500000
 42
-0.003114
  0
VERTEX
  8
0
 10
2432.738107
 20
750.971194
 42
-0.004741
  0
VERTEX
  8
0
 10
2435.325583
 20
753.945559
 42
-0.001849
  0
VERTEX
  8
0
 10
2437.575376
 20
756.463935
 42
-0.114991
  0
VERTEX
  8
0
 10
2438.063023
 20
756.804030
 42
-0.442821
  0
VERTEX
  8
0
 10
2438.330259
 20
756.673713
 42
-0.045873
  0
VERTEX
  8
0
 10
2438.480136
 20
755.901318
 42
-0.033976
  0
VERTEX
  8
0
 10
2438.517305
 20
754.742115
 42
-0.017879
  0
VERTEX
  8
0
 10
2438.414123
 20
753.304030
 42
0.014059
  0
VERTEX
  8
0
 10
2437.023287
 20
735.794082
 42
0.007307
  0
VERTEX
  8
0
 10
2436.222528
 20
713.886619
 42
0.003711
  0
VERTEX
  8
0
 10
2435.911065
 20
692.408665
 42
0.092865
  0
VERTEX
  8
0
 10
2436.952132
 20
686.625901
 42
0.081169
  0
VERTEX
  8
0
 10
2438.088480
 20
684.665414
 42
0.083494
  0
VERTEX
  8
0
 10
2439.780310
 20
683.190792
 42
0.092965
  0
VERTEX
  8
0
 10
2441.692466
 20
682.460314
 42
0.137334
  0
VERTEX
  8
0
 10
2443.470155
 20
682.626921
 42
0.159258
  0
VERTEX
  8
0
 10
2445.159640
 20
683.999500
 42
0.028323
  0
VERTEX
  8
0
 10
2447.196034
 20
687.589104
 42
0.015680
  0
VERTEX
  8
0
 10
2450.071827
 20
693.892174
 42
0.002465
  0
VERTEX
  8
0
 10
2455.280194
 20
706.500000
 42
-0.007550
  0
VERTEX
  8
0
 10
2467.806478
 20
735.969352
 42
-0.010577
  0
VERTEX
  8
0
 10
2479.942333
 20
761.870012
 42
-0.011353
  0
VERTEX
  8
0
 10
2490.860092
 20
782.737284
 42
-0.041302
  0
VERTEX
  8
0
 10
2499.142521
 20
795.179948
 42
-0.018131
  0
VERTEX
  8
0
 10
2500.363352
 20
796.611525
 42
-0.028503
  0
VERTEX
  8
0
 10
2501.521754
 20
797.738026
 42
-0.027690
  0
VERTEX
  8
0
 10
2502.503595
 20
798.498594
 42
-0.297675
  0
VERTEX
  8
0
 10
2502.982830
 20
798.510612
 42
-0.211542
  0
VERTEX
  8
0
 10
2503.892227
 20
797.182160
 42
-0.003608
  0
VERTEX
  8
0
 10
2505.475079
 20
788.288486
 42
-0.007875
  0
VERTEX
  8
0
 10
2507.190988
 20
777.173276
 42
-0.003885
  0
VERTEX
  8
0
 10
2509.038845
 20
763.000000
 42
0.009030
  0
VERTEX
  8
0
 10
2511.849934
 20
743.042382
 42
0.024103
  0
VERTEX
  8
0
 10
2514.791679
 20
728.977862
 42
0.033796
  0
VERTEX
  8
0
 10
2518.121153
 20
718.996130
 42
0.082943
  0
VERTEX
  8
0
 10
2522.184781
 20
712.442328
 42
0.152250
  0
VERTEX
  8
0
 10
2528.990242
 20
708.287795
 42
0.151127
  0
VERTEX
  8
0
 10
2536.973237
 20
708.719948
 42
0.102412
  0
VERTEX
  8
0
 10
2545.737474
 20
714.192463
 42
0.046569
  0
VERTEX
  8
0
 10
2554.643055
 20
724.440282
 42
0.000000
  0
VERTEX
  8
0
 10
2556.752655
 20
727.380565
 42
0.000000
  0
VERTEX
  8
0
 10
2557.908068
 20
721.993059
 42
0.047606
  0
VERTEX
  8
0
 10
2559.353206
 20
717.425121
 42
0.055618
  0
VERTEX
  8
0
 10
2561.583365
 20
713.462954
 42
0.060328
  0
VERTEX
  8
0
 10
2564.439251
 20
710.362100
 42
0.077709
  0
VERTEX
  8
0
 10
2567.735412
 20
708.337192
 42
0.117631
  0
VERTEX
  8
0
 10
2572.901481
 20
707.495047
 42
0.088700
  0
VERTEX
  8
0
 10
2578.494667
 20
708.920416
 42
0.064947
  0
VERTEX
  8
0
 10
2584.677985
 20
712.764194
 42
0.030063
  0
VERTEX
  8
0
 10
2591.640233
 20
719.198337
 42
0.034742
  0
VERTEX
  8
0
 10
2599.102320
 20
728.143796
 42
0.024441
  0
VERTEX
  8
0
 10
2606.252698
 20
739.131591
 42
0.020358
  0
VERTEX
  8
0
 10
2613.477300
 20
752.764049
 42
0.011445
  0
VERTEX
  8
0
 10
2621.182358
 20
769.846610
 42
0.000000
  0
VERTEX
  8
0
 10
2626.120831
 20
781.500000
 42
0.000000
  0
VERTEX
  8
0
 10
2625.578216
 20
741.000000
 42
-0.005307
  0
VERTEX
  8
0
 10
2624.692561
 20
704.122319
 42
-0.006694
  0
VERTEX
  8
0
 10
2623.054201
 20
670.024940
 42
-0.007095
  0
VERTEX
  8
0
 10
2620.612469
 20
637.783931
 42
-0.007704
  0
VERTEX
  8
0
 10
2617.309611
 20
606.500000
 42
0.000000
  0
VERTEX
  8
0
 10
2615.613051
 20
592.500000
 42
0.000000
  0
VERTEX
  8
0
 10
2609.975449
 20
583.500000
 42
0.022191
  0
VERTEX
  8
0
 10
2591.900431
 20
551.579200
 42
0.020877
  0
VERTEX
  8
0
 10
2576.323708
 20
517.534823
 42
0.020872
  0
VERTEX
  8
0
 10
2565.156932
 20
486.522458
 42
0.076117
  0
VERTEX
  8
0
 10
2562.000000
 20
465.905324
 42
0.021897
  0
VERTEX
  8
0
 10
2562.115460
 20
463.270206
 42
0.057729
  0
VERTEX
  8
0
 10
2562.495640
 20
461.422327
 42
0.070250
  0
VERTEX
  8
0
 10
2563.233166
 20
459.928123
 42
0.046689
  0
VERTEX
  8
0
 10
2564.454545
 20
458.454545
 42
0.029109
  0
VERTEX
  8
0
 10
2565.510174
 20
457.515160
 42
0.030552
  0
VERTEX
  8
0
 10
2566.651480
 20
456.721023
 42
0.032091
  0
VERTEX
  8
0
 10
2567.714549
 20
456.163968
 42
0.105010
  0
VERTEX
  8
0
 10
2568.486664
 20
456.000000
 42
0.171636
  0
VERTEX
  8
0
 10
2575.213821
 20
458.379336
 42
0.047141
  0
VERTEX
  8
0
 10
2583.371011
 20
466.354739
 42
0.039532
  0
VERTEX
  8
0
 10
2591.900984
 20
478.216723
 42
0.025308
  0
VERTEX
  8
0
 10
2599.948853
 20
493.167700
 42
0.022334
  0
VERTEX
  8
0
 10
2606.697290
 20
509.194554
 42
0.018380
  0
VERTEX
  8
0
 10
2612.484854
 20
526.829049
 42
0.015956
  0
VERTEX
  8
0
 10
2617.646948
 20
547.176610
 42
0.009718
  0
VERTEX
  8
0
 10
2622.504411
 20
571.500000
 42
-0.008759
  0
VERTEX
  8
0
 10
2625.418438
 20
586.238937
 42
-0.054439
  0
VERTEX
  8
0
 10
2627.849398
 20
593.538418
 42
-0.058606
  0
VERTEX
  8
0
 10
2631.735798
 20
599.915475
 42
-0.011070
  0
VERTEX
  8
0
 10
2640.392369
 20
610.478130
 42
0.007385
  0
VERTEX
  8
0
 10
2644.175598
 20
615.025617
 42
0.026817
  0
VERTEX
  8
0
 10
2646.376515
 20
618.072795
 42
0.042744
  0
VERTEX
  8
0
 10
2647.553584
 20
620.298477
 42
0.130037
  0
VERTEX
  8
0
 10
2647.794409
 20
621.978130
 42
0.056507
  0
VERTEX
  8
0
 10
2647.520574
 20
623.152359
 42
0.103176
  0
VERTEX
  8
0
 10
2647.010423
 20
623.988884
 42
0.106567
  0
VERTEX
  8
0
 10
2646.221397
 20
624.534748
 42
0.063189
  0
VERTEX
  8
0
 10
2645.113244
 20
624.837472
 42
0.132697
  0
VERTEX
  8
0
 10
2643.590387
 20
624.648609
 42
0.054891
  0
VERTEX
  8
0
 10
2641.750514
 20
623.650845
 42
0.033099
  0
VERTEX
  8
0
 10
2639.318444
 20
621.713082
 42
0.009014
  0
VERTEX
  8
0
 10
2635.745179
 20
618.337472
 42
0.000000
  0
VERTEX
  8
0
 10
2628.763870
 20
611.500000
 42
0.000000
  0
VERTEX
  8
0
 10
2629.371812
 20
618.000000
 42
0.001158
  0
VERTEX
  8
0
 10
2632.118539
 20
648.119563
 42
0.003821
  0
VERTEX
  8
0
 10
2633.731355
 20
667.990990
 42
0.004677
  0
VERTEX
  8
0
 10
2634.865289
 20
685.687252
 42
0.002524
  0
VERTEX
  8
0
 10
2635.947827
 20
707.500000
 42
0.004913
  0
VERTEX
  8
0
 10
2636.925796
 20
735.661027
 42
0.002575
  0
VERTEX
  8
0
 10
2637.617811
 20
770.715386
 42
0.001745
  0
VERTEX
  8
0
 10
2637.990486
 20
804.290107
 42
0.020788
  0
VERTEX
  8
0
 10
2637.549402
 20
817.273671
 42
0.009318
  0
VERTEX
  8
0
 10
2637.137249
 20
821.637717
 42
0.020424
  0
VERTEX
  8
0
 10
2636.623843
 20
824.952994
 42
0.023994
  0
VERTEX
  8
0
 10
2636.029096
 20
827.357698
 42
0.124375
  0
VERTEX
  8
0
 10
2635.333472
 20
828.523671
 42
0.104202
  0
VERTEX
  8
0
 10
2633.887948
 20
829.466076
 42
0.068771
  0
VERTEX
  8
0
 10
2631.951057
 20
829.925232
 42
0.068177
  0
VERTEX
  8
0
 10
2629.942716
 20
829.843429
 42
0.097619
  0
VERTEX
  8
0
 10
2628.286525
 20
829.198244
 42
0.163176
  0
VERTEX
  8
0
 10
2627.670979
 20
828.438919
 42
0.004478
  0
VERTEX
  8
0
 10
2626.196560
 20
824.383931
 42
0.008798
  0
VERTEX
  8
0
 10
2624.572134
 20
819.517818
 42
0.005869
  0
VERTEX
  8
0
 10
2622.875779
 20
813.891955
 42
0.000000
  0
VERTEX
  8
0
 10
2618.678508
 20
799.356797
 42
0.000000
  0
VERTEX
  8
0
 10
2609.829599
 20
797.683977
 42
0.057698
  0
VERTEX
  8
0
 10
2593.716977
 20
792.662551
 42
0.075873
  0
VERTEX
  8
0
 10
2580.759034
 20
784.378272
 42
0.071585
  0
VERTEX
  8
0
 10
2570.334279
 20
772.190356
 42
0.045096
  0
VERTEX
  8
0
 10
2561.760887
 20
755.500000
 42
-0.042451
  0
VERTEX
  8
0
 10
2555.570308
 20
743.290239
 42
-0.026792
  0
VERTEX
  8
0
 10
2546.441904
 20
730.164446
 42
-0.019927
  0
VERTEX
  8
0
 10
2536.993615
 20
718.971793
 42
-0.248321
  0
VERTEX
  8
0
 10
2531.931687
 20
717.163739
 42
-0.246112
  0
VERTEX
  8
0
 10
2528.186283
 20
719.873768
 42
-0.049696
  0
VERTEX
  8
0
 10
2525.176559
 20
727.809808
 42
-0.029530
  0
VERTEX
  8
0
 10
2522.415596
 20
741.146509
 42
-0.007364
  0
VERTEX
  8
0
 10
2519.520251
 20
763.229696
 42
0.003592
  0
VERTEX
  8
0
 10
2517.245511
 20
781.656874
 42
0.012328
  0
VERTEX
  8
0
 10
2515.388082
 20
793.570561
 42
0.017905
  0
VERTEX
  8
0
 10
2513.623641
 20
801.645637
 42
0.065159
  0
VERTEX
  8
0
 10
2511.675362
 20
806.508461
 42
0.096376
  0
VERTEX
  8
0
 10
2508.313253
 20
810.472997
 42
0.167308
  0
VERTEX
  8
0
 10
2504.293080
 20
811.911987
 42
0.139929
  0
VERTEX
  8
0
 10
2499.699371
 20
810.661061
 42
0.060550
  0
VERTEX
  8
0
 10
2494.666690
 20
806.715746
 42
0.052040
  0
VERTEX
  8
0
 10
2486.848705
 20
797.067453
 42
0.016265
  0
VERTEX
  8
0
 10
2477.190964
 20
781.118234
 42
0.014686
  0
VERTEX
  8
0
 10
2466.656745
 20
761.010712
 42
0.010126
  0
VERTEX
  8
0
 10
2455.868803
 20
737.670674
 42
0.000000
  0
VERTEX
  8
0
 10
2448.500000
 20
720.841348
 42
0.000000
  0
VERTEX
  8
0
 10
2448.185652
 20
726.670674
 42
-0.028910
  0
VERTEX
  8
0
 10
2448.215743
 20
734.327282
 42
-0.003063
  0
VERTEX
  8
0
 10
2449.426198
 20
752.137619
 42
-0.003571
  0
VERTEX
  8
0
 10
2451.226559
 20
774.280765
 42
-0.002279
  0
VERTEX
  8
0
 10
2453.620888
 20
800.000000
 42
0.000574
  0
VERTEX
  8
0
 10
2456.286931
 20
827.617163
 42
0.012714
  0
VERTEX
  8
0
 10
2456.849023
 20
835.672863
 42
0.046382
  0
VERTEX
  8
0
 10
2456.655445
 20
839.664158
 42
0.202258
  0
VERTEX
  8
0
 10
2455.464523
 20
841.649600
 42
0.040384
  0
VERTEX
  8
0
 10
2454.116897
 20
842.477036
 42
0.084490
  0
VERTEX
  8
0
 10
2452.945362
 20
842.841157
 42
0.086174
  0
VERTEX
  8
0
 10
2451.734460
 20
842.793711
 42
0.043354
  0
SEQEND
  0
POLYLINE
  8
0
 66
1
 70
1
  0
VERTEX
  8
0
 10
2195.702117
 20
809.057833
 42
0.079245
  0
VERTEX
  8
0
 10
2191.993164
 20
802.889208
 42
0.051225
  0
VERTEX
  8
0
 10
2189.678952
 20
794.866234
 42
0.050253
  0
VERTEX
  8
0
 10
2189.011434
 20
786.330391
 42
0.066031
  0
VERTEX
  8
0
 10
2190.210902
 20
778.616020
 42
0.088118
  0
VERTEX
  8
0
 10
2192.636106
 20
773.744372
 42
0.042951
  0
VERTEX
  8
0
 10
2197.249289
 20
768.521940
 42
0.042592
  0
VERTEX
  8
0
 10
2202.817562
 20
764.053250
 42
0.071568
  0
VERTEX
  8
0
 10
2208.210648
 20
761.459688
 42
0.000000
  0
VERTEX
  8
0
 10
2213.804193
 20
759.696478
 42
0.000000
  0
VERTEX
  8
0
 10
2212.520841
 20
756.059069
 42
-0.039864
  0
VERTEX
  8
0
 10
2207.727131
 20
745.291979
 42
-0.018622
  0
VERTEX
  8
0
 10
2199.926670
 20
732.153893
 42
-0.018570
  0
VERTEX
  8
0
 10
2191.230461
 20
719.716075
 42
-0.042883
  0
VERTEX
  8
0
 10
2183.606297
 20
711.248317
 42
-0.019843
  0
VERTEX
  8
0
 10
2176.834401
 20
705.399610
 42
-0.191800
  0
VERTEX
  8
0
 10
2173.267536
 20
704.320823
 42
-0.276227
  0
VERTEX
  8
0
 10
2170.713859
 20
706.160590
 42
-0.039293
  0
VERTEX
  8
0
 10
2168.537505
 20
712.536774
 42
-0.047848
  0
VERTEX
  8
0
 10
2166.860099
 20
723.288918
 42
-0.021643
  0
VERTEX
  8
0
 10
2166.633755
 20
737.561023
 42
-0.020981
  0
VERTEX
  8
0
 10
2167.703431
 20
752.954739
 42
-0.024688
  0
VERTEX
  8
0
 10
2170.041769
 20
767.380502
 42
-0.026430
  0
VERTEX
  8
0
 10
2174.694280
 20
784.667042
 42
-0.045108
  0
VERTEX
  8
0
 10
2180.593985
 20
798.394259
 42
-0.057226
  0
VERTEX
  8
0
 10
2187.230473
 20
807.881639
 42
-0.159329
  0
VERTEX
  8
0
 10
2194.158636
 20
811.941651
 42
-0.009939
  0
VERTEX
  8
0
 10
2195.466043
 20
812.198782
 42
-0.014471
  0
VERTEX
  8
0
 10
2196.628464
 20
812.368971
 42
-0.009914
  0
VERTEX
  8
0
 10
2197.589513
 20
812.462107
 42
-0.186826
  0
VERTEX
  8
0
 10
2197.874432
 20
812.376273
 42
-0.375086
  0
VERTEX
  8
0
 10
2197.920354
 20
812.138903
 42
-0.013257
  0
VERTEX
  8
0
 10
2197.390767
 20
811.281112
 42
-0.018716
  0
VERTEX
  8
0
 10
2196.651641
 20
810.239287
 42
-0.011260
  0
SEQEND
  0
POLYLINE
  8
0
 66
1
 70
1
  0
VERTEX
  8
0
 10
2214.325343
 20
801.750000
 42
-0.048086
  0
VERTEX
  8
0
 10
2216.733515
 20
797.780938
 42
-0.055908
  0
VERTEX
  8
0
 10
2218.194984
 20
793.617145
 42
-0.048219
  0
VERTEX
  8
0
 10
2218.829104
 20
788.747830
 42
-0.024752
  0
VERTEX
  8
0
 10
2218.728337
 20
782.588424
 42
-0.008479
  0
VERTEX
  8
0
 10
2218.146316
 20
775.576094
 42
-0.080487
  0
VERTEX
  8
0
 10
2217.373532
 20
772.675732
 42
-0.222388
  0
VERTEX
  8
0
 10
2216.004425
 20
771.493887
 42
-0.118516
  0
VERTEX
  8
0
 10
2213.720790
 20
771.405842
 42
-0.094518
  0
VERTEX
  8
0
 10
2207.942262
 20
773.753289
 42
-0.093423
  0
VERTEX
  8
0
 10
2203.406058
 20
778.070364
 42
-0.093058
  0
VERTEX
  8
0
 10
2200.740341
 20
783.758403
 42
-0.092906
  0
VERTEX
  8
0
 10
2200.317071
 20
790.029361
 42
-0.035057
  0
VERTEX
  8
0
 10
2201.017127
 20
793.709648
 42
-0.033388
  0
VERTEX
  8
0
 10
2202.232350
 20
797.318502
 42
-0.034622
  0
VERTEX
  8
0
 10
2203.855496
 20
800.588252
 42
-0.047500
  0
VERTEX
  8
0
 10
2205.775577
 20
803.250000
 42
-0.114017
  0
VERTEX
  8
0
 10
2207.728183
 20
804.655498
 42
-0.143605
  0
VERTEX
  8
0
 10
2209.931966
 20
804.902429
 42
-0.121079
  0
VERTEX
  8
0
 10
2212.202867
 20
803.902814
 42
-0.068531
  0
SEQEND
  0
POLYLINE
  8
0
 66
1
 70
1
  0
VERTEX
  8
0
 10
2613.458874
 20
785.750000
 42
-0.028918
  0
VERTEX
  8
0
 10
2609.700216
 20
775.441705
 42
-0.009920
  0
VERTEX
  8
0
 10
2603.111876
 20
760.973307
 42
-0.010039
  0
VERTEX
  8
0
 10
2595.892664
 20
746.662958
 42
-0.025831
  0
VERTEX
  8
0
 10
2589.949094
 20
736.723911
 42
-0.024816
  0
VERTEX
  8
0
 10
2585.410273
 20
730.630599
 42
-0.026543
  0
VERTEX
  8
0
 10
2580.385002
 20
725.159133
 42
-0.024301
  0
VERTEX
  8
0
 10
2575.700043
 20
720.998326
 42
-0.171044
  0
VERTEX
  8
0
 10
2572.867096
 20
720.000000
 42
-0.229413
  0
VERTEX
  8
0
 10
2570.975573
 20
720.916096
 42
-0.106382
  0
VERTEX
  8
0
 10
2569.741660
 20
723.426850
 42
-0.058496
  0
VERTEX
  8
0
 10
2569.191489
 20
727.702905
 42
-0.019682
  0
VERTEX
  8
0
 10
2569.369476
 20
734.000000
 42
-0.056865
  0
VERTEX
  8
0
 10
2572.596509
 20
751.611427
 42
-0.072340
  0
VERTEX
  8
0
 10
2579.614717
 20
766.547613
 42
-0.077735
  0
VERTEX
  8
0
 10
2590.100697
 20
778.058268
 42
-0.080358
  0
VERTEX
  8
0
 10
2603.488857
 20
785.660274
 42
-0.010653
  0
VERTEX
  8
0
 10
2605.960179
 20
786.519875
 42
-0.011344
  0
VERTEX
  8
0
 10
2608.414959
 20
787.254414
 42
-0.010988
  0
VERTEX
  8
0
 10
2610.551141
 20
787.790977
 42
-0.050451
  0
VERTEX
  8
0
 10
2611.817388
 20
787.947896
 42
-0.035524
  0
VERTEX
  8
0
 10
2613.034727
 20
787.888761
 42
-0.205251
  0
VERTEX
  8
0
 10
2613.580006
 20
787.573334
 42
-0.201761
  0
VERTEX
  8
0
 10
2613.733012
 20
786.956921
 42
-0.034251
  0
SEQEND
  0
POLYLINE
  8
0
 66
1
 70
1
  0
VERTEX
  8
0
 10
2609.513338
 20
557.339400
 42
-0.012779
  0
VERTEX
  8
0
 10
2606.440470
 20
542.860969
 42
-0.011625
  0
VERTEX
  8
0
 10
2602.543786
 20
528.090568
 42
-0.011980
  0
VERTEX
  8
0
 10
2598.136909
 20
514.099841
 42
-0.017382
  0
VERTEX
  8
0
 10
2593.528994
 20
502.000000
 42
-0.029792
  0
VERTEX
  8
0
 10
2588.092696
 20
490.977551
 42
-0.019558
  0
VERTEX
  8
0
 10
2580.609766
 20
478.958730
 42
-0.019520
  0
VERTEX
  8
0
 10
2573.804652
 20
469.723046
 42
-0.700779
  0
VERTEX
  8
0
 10
2572.041013
 20
470.318780
 42
-0.074635
  0
VERTEX
  8
0
 10
2572.891458
 20
477.008540
 42
-0.008166
  0
VERTEX
  8
0
 10
2577.362094
 20
491.893531
 42
-0.010579
  0
VERTEX
  8
0
 10
2582.974132
 20
508.317354
 42
-0.012716
  0
VERTEX
  8
0
 10
2588.965359
 20
523.500000
 42
-0.012135
  0
VERTEX
  8
0
 10
2593.904736
 20
534.397766
 42
-0.004264
  0
VERTEX
  8
0
 10
2601.505463
 20
549.802871
 42
-0.000575
  0
VERTEX
  8
0
 10
2609.950085
 20
566.508980
 42
-0.510176
  0
VERTEX
  8
0
 10
2610.704126
 20
566.629207
 42
-0.228594
  0
VERTEX
  8
0
 10
2610.844425
 20
566.227398
 42
-0.003489
  0
VERTEX
  8
0
 10
2610.540125
 20
563.714534
 42
-0.008562
  0
VERTEX
  8
0
 10
2610.109878
 20
560.760087
 42
-0.005461
  0
SEQEND
  0
POLYLINE
  8
0
 66
1
 70
1
  0
VERTEX
  8
0
 10
2723.423178
 20
826.217770
 42
0.044264
  0
VERTEX
  8
0
 10
2718.356175
 20
823.906184
 42
0.031859
  0
VERTEX
  8
0
 10
2713.153499
 20
820.496313
 42
0.026038
  0
VERTEX
  8
0
 10
2707.477179
 20
815.754598
 42
0.013837
  0
VERTEX
  8
0
 10
2700.936396
 20
809.339937
 42
0.045551
  0
VERTEX
  8
0
 10
2686.048272
 20
790.793733
 42
0.044566
  0
VERTEX
  8
0
 10
2674.639951
 20
769.726432
 42
0.045895
  0
VERTEX
  8
0
 10
2667.427171
 20
747.629353
 42
0.056005
  0
VERTEX
  8
0
 10
2665.000000
 20
726.027941
 42
0.053650
  0
VERTEX
  8
0
 10
2666.417188
 20
712.858261
 42
0.124233
  0
VERTEX
  8
0
 10
2670.814628
 20
704.018065
 42
0.148694
  0
VERTEX
  8
0
 10
2678.270157
 20
699.273144
 42
0.090096
  0
VERTEX
  8
0
 10
2688.769709
 20
698.306097
 42
0.069636
  0
VERTEX
  8
0
 10
2703.206352
 20
701.639334
 42
0.034654
  0
VERTEX
  8
0
 10
2720.263204
 20
709.570381
 42
0.027891
  0
VERTEX
  8
0
 10
2740.049866
 20
721.983487
 42
0.015100
  0
VERTEX
  8
0
 10
2763.000000
 20
739.294884
 42
0.007644
  0
VERTEX
  8
0
 10
2778.170569
 20
751.860039
 42
0.012147
  0
VERTEX
  8
0
 10
2790.718637
 20
763.119301
 42
0.007321
  0
VERTEX
  8
0
 10
2800.631429
 20
772.736248
 42
0.199044
  0
VERTEX
  8
0
 10
2802.000000
 20
776.037910
 42
0.213508
  0
VERTEX
  8
0
 10
2801.432207
 20
777.306971
 42
0.065721
  0
VERTEX
  8
0
 10
2799.658353
 20
778.515704
 42
0.064845
  0
VERTEX
  8
0
 10
2797.590385
 20
779.241136
 42
0.181211
  0
VERTEX
  8
0
 10
2796.095394
 20
779.014187
 42
0.041734
  0
VERTEX
  8
0
 10
2795.039183
 20
778.303002
 42
0.001681
  0
VERTEX
  8
0
 10
2791.443647
 20
775.399075
 42
0.002940
  0
VERTEX
  8
0
 10
2787.213300
 20
771.917364
 42
0.002076
  0
VERTEX
  8
0
 10
2782.500000
 20
767.958186
 42
-0.010503
  0
VERTEX
  8
0
 10
2756.845136
 20
747.135268
 42
-0.016356
  0
VERTEX
  8
0
 10
2733.805624
 20
730.404038
 42
-0.018946
  0
VERTEX
  8
0
 10
2713.925198
 20
718.009297
 42
-0.047095
  0
VERTEX
  8
0
 10
2698.325075
 20
710.939817
 42
-0.024895
  0
VERTEX
  8
0
 10
2695.754608
 20
710.196254
 42
-0.015478
  0
VERTEX
  8
0
 10
2692.677805
 20
709.569821
 42
-0.015520
  0
VERTEX
  8
0
 10
2689.596331
 20
709.139150
 42
-0.026962
  0
VERTEX
  8
0
 10
2687.017764
 20
709.000000
 42
-0.016406
  0
VERTEX
  8
0
 10
2683.879374
 20
709.103007
 42
-0.060991
  0
VERTEX
  8
0
 10
2681.939528
 20
709.470954
 42
-0.081565
  0
VERTEX
  8
0
 10
2680.448982
 20
710.231955
 42
-0.045748
  0
VERTEX
  8
0
 10
2678.924314
 20
711.586163
 42
-0.071622
  0
VERTEX
  8
0
 10
2677.536564
 20
713.571279
 42
-0.081374
  0
VERTEX
  8
0
 10
2676.840756
 20
715.783625
 42
-0.032944
  0
VERTEX
  8
0
 10
2676.563867
 20
719.397875
 42
-0.003075
  0
VERTEX
  8
0
 10
2676.524123
 20
728.336163
 42
-0.010745
  0
VERTEX
  8
0
 10
2676.800736
 20
740.261239
 42
-0.099816
  0
VERTEX
  8
0
 10
2678.037697
 20
745.237121
 42
-0.154080
  0
VERTEX
  8
0
 10
2680.950390
 20
748.373861
 42
-0.036152
  0
VERTEX
  8
0
 10
2687.500000
 20
751.492488
 42
0.043398
  0
VERTEX
  8
0
 10
2708.632180
 20
761.932399
 42
0.063437
  0
VERTEX
  8
0
 10
2724.851142
 20
774.842911
 42
0.072516
  0
VERTEX
  8
0
 10
2735.754565
 20
789.891579
 42
0.084576
  0
VERTEX
  8
0
 10
2741.192682
 20
806.667046
 42
0.010408
  0
VERTEX
  8
0
 10
2741.723679
 20
810.930216
 42
0.031365
  0
VERTEX
  8
0
 10
2741.841932
 20
813.856361
 42
0.041074
  0
VERTEX
  8
0
 10
2741.584893
 20
816.308991
 42
0.031411
  0
VERTEX
  8
0
 10
2740.919072
 20
818.923938
 42
0.090387
  0
VERTEX
  8
0
 10
2738.351342
 20
823.710145
 42
0.126449
  0
VERTEX
  8
0
 10
2734.494193
 20
826.621376
 42
0.115936
  0
VERTEX
  8
0
 10
2729.444058
 20
827.457819
 42
0.068313
  0
SEQEND
  0
POLYLINE
  8
0
 66
1
 70
1
  0
VERTEX
  8
0
 10
2731.451458
 20
809.974387
 42
-0.017150
  0
VERTEX
  8
0
 10
2731.272944
 20
805.600393
 42
-0.042526
  0
VERTEX
  8
0
 10
2730.762259
 20
802.437629
 42
-0.038812
  0
VERTEX
  8
0
 10
2729.693955
 20
799.242524
 42
-0.012312
  0
VERTEX
  8
0
 10
2727.621654
 20
794.662213
 42
-0.062769
  0
VERTEX
  8
0
 10
2720.772959
 20
784.091075
 42
-0.044947
  0
VERTEX
  8
0
 10
2710.755760
 20
774.167263
 42
-0.042229
  0
VERTEX
  8
0
 10
2698.377694
 20
765.580821
 42
-0.039707
  0
VERTEX
  8
0
 10
2684.481230
 20
758.992864
 42
-0.012026
  0
VERTEX
  8
0
 10
2682.882859
 20
758.428773
 42
-0.225850
  0
VERTEX
  8
0
 10
2682.368482
 20
758.495513
 42
-0.311074
  0
VERTEX
  8
0
 10
2682.195182
 20
758.911949
 42
-0.020216
  0
VERTEX
  8
0
 10
2682.535514
 20
760.249011
 42
-0.036817
  0
VERTEX
  8
0
 10
2684.508793
 20
765.439898
 42
-0.008856
  0
VERTEX
  8
0
 10
2688.553799
 20
773.716600
 42
-0.009573
  0
VERTEX
  8
0
 10
2693.086065
 20
782.184301
 42
-0.019748
  0
VERTEX
  8
0
 10
2697.011759
 20
788.586134
 42
-0.035379
  0
VERTEX
  8
0
 10
2705.073126
 20
798.966673
 42
-0.029019
  0
VERTEX
  8
0
 10
2715.040773
 20
808.861819
 42
-0.024731
  0
VERTEX
  8
0
 10
2724.673729
 20
816.560839
 42
-0.206582
  0
VERTEX
  8
0
 10
2730.000000
 20
817.737318
 42
-0.221051
  0
VERTEX
  8
0
 10
2730.735649
 20
817.206394
 42
-0.081607
  0
VERTEX
  8
0
 10
2731.182224
 20
815.974171
 42
-0.039562
  0
VERTEX
  8
0
 10
2731.412841
 20
813.801661
 42
-0.008292
  0
SEQEND
  0
POLYLINE
  8
0
 66
1
 70
1
  0
VERTEX
  8
0
 10
1773.336873
 20
822.001598
 42
0.060091
  0
VERTEX
  8
0
 10
1768.742614
 20
818.912641
 42
0.031643
  0
VERTEX
  8
0
 10
1763.823330
 20
814.092397
 42
0.030537
  0
VERTEX
  8
0
 10
1759.261443
 20
808.349021
 42
0.036361
  0
VERTEX
  8
0
 10
1755.719447
 20
802.406469
 42
0.059954
  0
VERTEX
  8
0
 10
1746.212863
 20
775.957099
 42
0.039643
  0
VERTEX
  8
0
 10
1741.508868
 20
743.975664
 42
0.038979
  0
VERTEX
  8
0
 10
1741.837077
 20
714.475333
 42
0.153812
  0
VERTEX
  8
0
 10
1748.729350
 20
697.909803
 42
0.088803
  0
VERTEX
  8
0
 10
1753.242540
 20
694.153310
 42
0.114271
  0
VERTEX
  8
0
 10
1758.400283
 20
692.617244
 42
0.103890
  0
VERTEX
  8
0
 10
1764.084303
 20
693.448061
 42
0.063544
  0
VERTEX
  8
0
 10
1770.121209
 20
696.583998
 42
0.041722
  0
VERTEX
  8
0
 10
1775.044284
 20
700.642289
 42
0.011397
  0
VERTEX
  8
0
 10
1782.096734
 20
707.840056
 42
0.011927
  0
VERTEX
  8
0
 10
1788.953848
 20
715.524655
 42
0.029687
  0
VERTEX
  8
0
 10
1793.483122
 20
721.540534
 42
0.017250
  0
VERTEX
  8
0
 10
1797.507860
 20
728.083115
 42
0.008870
  0
VERTEX
  8
0
 10
1802.115051
 20
736.531440
 42
0.008871
  0
VERTEX
  8
0
 10
1806.427657
 20
745.153865
 42
0.016940
  0
VERTEX
  8
0
 10
1809.530088
 20
752.250000
 42
-0.010556
  0
VERTEX
  8
0
 10
1811.041143
 20
755.830039
 42
-0.052996
  0
VERTEX
  8
0
 10
1812.132292
 20
757.707803
 42
-0.104932
  0
VERTEX
  8
0
 10
1813.197370
 20
758.659820
 42
-0.130815
  0
VERTEX
  8
0
 10
1814.475350
 20
759.000000
 42
0.056370
  0
VERTEX
  8
0
 10
1823.838527
 20
760.058975
 42
0.012208
  0
VERTEX
  8
0
 10
1839.640810
 20
764.088187
 42
0.009332
  0
VERTEX
  8
0
 10
1855.333373
 20
768.817811
 42
0.110099
  0
VERTEX
  8
0
 10
1860.793393
 20
772.022143
 42
0.104284
  0
VERTEX
  8
0
 10
1861.932107
 20
773.641180
 42
0.104339
  0
VERTEX
  8
0
 10
1862.319874
 20
775.581839
 42
0.112828
  0
VERTEX
  8
0
 10
1861.885014
 20
777.394783
 42
0.140182
  0
VERTEX
  8
0
 10
1860.722172
 20
778.671707
 42
0.134369
  0
VERTEX
  8
0
 10
1858.848644
 20
779.223530
 42
0.036626
  0
VERTEX
  8
0
 10
1855.740083
 20
779.055758
 42
0.031760
  0
VERTEX
  8
0
 10
1851.876893
 20
778.310241
 42
0.020299
  0
VERTEX
  8
0
 10
1847.500000
 20
776.981556
 42
-0.016635
  0
VERTEX
  8
0
 10
1840.255455
 20
774.724267
 42
-0.008784
  0
VERTEX
  8
0
 10
1831.132669
 20
772.383021
 42
-0.007066
  0
VERTEX
  8
0
 10
1822.427729
 20
770.440852
 42
-0.051294
  0
VERTEX
  8
0
 10
1818.170545
 20
770.001295
 42
-0.018600
  0
VERTEX
  8
0
 10
1816.186720
 20
770.074347
 42
-0.176705
  0
VERTEX
  8
0
 10
1815.425108
 20
770.417941
 42
-0.219032
  0
VERTEX
  8
0
 10
1815.152249
 20
771.129991
 42
-0.029973
  0
VERTEX
  8
0
 10
1815.356209
 20
772.750000
 42
0.032184
  0
VERTEX
  8
0
 10
1816.436771
 20
781.649595
 42
0.038181
  0
VERTEX
  8
0
 10
1816.268777
 20
790.113983
 42
0.041597
  0
VERTEX
  8
0
 10
1814.885947
 20
797.742887
 42
0.059061
  0
VERTEX
  8
0
 10
1812.328277
 20
804.138178
 42
0.040482
  0
VERTEX
  8
0
 10
1809.350998
 20
808.688907
 42
0.027561
  0
VERTEX
  8
0
 10
1805.291642
 20
813.360597
 42
0.027539
  0
VERTEX
  8
0
 10
1800.736987
 20
817.563406
 42
0.040043
  0
VERTEX
  8
0
 10
1796.258568
 20
820.694357
 42
0.069296
  0
VERTEX
  8
0
 10
1790.978469
 20
822.875393
 42
0.049135
  0
VERTEX
  8
0
 10
1784.637277
 20
823.867261
 42
0.049918
  0
VERTEX
  8
0
 10
1778.372056
 20
823.599050
 42
0.082525
  0
SEQEND
  0
POLYLINE
  8
0
 66
1
 70
1
  0
VERTEX
  8
0
 10
1783.457295
 20
812.069098
 42
-0.110803
  0
VERTEX
  8
0
 10
1783.597100
 20
811.664726
 42
-0.099996
  0
VERTEX
  8
0
 10
1783.558506
 20
811.223077
 42
-0.094793
  0
VERTEX
  8
0
 10
1783.346842
 20
810.812021
 42
-0.088400
  0
VERTEX
  8
0
 10
1782.993934
 20
810.496251
 42
0.106792
  0
VERTEX
  8
0
 10
1782.437424
 20
809.960547
 42
0.008431
  0
VERTEX
  8
0
 10
1781.315352
 20
808.228338
 42
0.011149
  0
VERTEX
  8
0
 10
1780.046134
 20
806.089918
 42
0.008302
  0
VERTEX
  8
0
 10
1778.738199
 20
803.677153
 42
0.018164
  0
VERTEX
  8
0
 10
1776.932912
 20
799.880227
 42
0.049643
  0
VERTEX
  8
0
 10
1776.032029
 20
797.051250
 42
0.042013
  0
VERTEX
  8
0
 10
1775.628700
 20
793.844371
 42
0.010190
  0
VERTEX
  8
0
 10
1775.517748
 20
788.500000
 42
0.009813
  0
VERTEX
  8
0
 10
1775.611175
 20
783.646683
 42
0.031757
  0
VERTEX
  8
0
 10
1775.940416
 20
780.441623
 42
0.043860
  0
VERTEX
  8
0
 10
1776.597529
 20
777.905453
 42
0.037178
  0
VERTEX
  8
0
 10
1777.715364
 20
775.371787
 42
0.056431
  0
VERTEX
  8
0
 10
1780.686592
 20
771.052607
 42
0.041669
  0
VERTEX
  8
0
 10
1784.846470
 20
767.001147
 42
0.041523
  0
VERTEX
  8
0
 10
1789.641147
 20
763.679188
 42
0.054596
  0
VERTEX
  8
0
 10
1794.511499
 20
761.540201
 42
-0.034732
  0
VERTEX
  8
0
 10
1798.393747
 20
760.015737
 42
-0.280909
  0
VERTEX
  8
0
 10
1799.397379
 20
758.482136
 42
-0.114836
  0
VERTEX
  8
0
 10
1798.901427
 20
755.995864
 42
-0.004510
  0
VERTEX
  8
0
 10
1794.957826
 20
747.500000
 42
-0.023209
  0
VERTEX
  8
0
 10
1790.580101
 20
739.292871
 42
-0.011617
  0
VERTEX
  8
0
 10
1784.334536
 20
729.323421
 42
-0.011221
  0
VERTEX
  8
0
 10
1777.869247
 20
719.980347
 42
-0.035841
  0
VERTEX
  8
0
 10
1772.991235
 20
714.182151
 42
-0.019630
  0
VERTEX
  8
0
 10
1769.097109
 20
710.477496
 42
-0.020497
  0
VERTEX
  8
0
 10
1764.978438
 20
707.145349
 42
-0.017471
  0
VERTEX
  8
0
 10
1761.253694
 20
704.573540
 42
-0.143309
  0
VERTEX
  8
0
 10
1759.293731
 20
704.000000
 42
-0.338974
  0
VERTEX
  8
0
 10
1756.148284
 20
706.409286
 42
-0.029589
  0
VERTEX
  8
0
 10
1753.971875
 20
716.910443
 42
-0.031064
  0
VERTEX
  8
0
 10
1752.839889
 20
730.502380
 42
-0.023531
  0
VERTEX
  8
0
 10
1753.230086
 20
745.466667
 42
-0.032404
  0
VERTEX
  8
0
 10
1756.376707
 20
768.138662
 42
-0.040526
  0
VERTEX
  8
0
 10
1762.320619
 20
788.524870
 42
-0.045487
  0
VERTEX
  8
0
 10
1770.005767
 20
804.208719
 42
-0.154549
  0
VERTEX
  8
0
 10
1778.481407
 20
811.606432
 42
-0.009141
  0
VERTEX
  8
0
 10
1780.887681
 20
812.602978
 42
-0.070528
  0
VERTEX
  8
0
 10
1782.070896
 20
812.884439
 42
-0.165446
  0
VERTEX
  8
0
 10
1782.829857
 20
812.702560
 42
-0.114013
  0
SEQEND
  0
POLYLINE
  8
0
 66
1
 70
1
  0
VERTEX
  8
0
 10
1800.372677
 20
801.968945
 42
-0.032668
  0
VERTEX
  8
0
 10
1801.424875
 20
800.538471
 42
-0.020216
  0
VERTEX
  8
0
 10
1802.477343
 20
798.735823
 42
-0.020250
  0
VERTEX
  8
0
 10
1803.376319
 20
796.863039
 42
-0.034049
  0
VERTEX
  8
0
 10
1803.955994
 20
795.218945
 42
-0.051266
  0
VERTEX
  8
0
 10
1804.622964
 20
791.297172
 42
-0.014774
  0
VERTEX
  8
0
 10
1804.847516
 20
785.142478
 42
-0.015222
  0
VERTEX
  8
0
 10
1804.700598
 20
778.896891
 42
-0.040982
  0
VERTEX
  8
0
 10
1804.099443
 20
774.500000
 42
-0.035336
  0
VERTEX
  8
0
 10
1803.611867
 20
772.856755
 42
-0.146391
  0
VERTEX
  8
0
 10
1802.992323
 20
772.041444
 42
-0.139204
  0
VERTEX
  8
0
 10
1802.007942
 20
771.678038
 42
-0.030832
  0
VERTEX
  8
0
 10
1800.193082
 20
771.650132
 42
-0.093688
  0
VERTEX
  8
0
 10
1797.300033
 20
772.336985
 42
-0.043136
  0
VERTEX
  8
0
 10
1793.900534
 20
774.221365
 42
-0.041986
  0
VERTEX
  8
0
 10
1790.685258
 20
776.801749
 42
-0.057701
  0
VERTEX
  8
0
 10
1788.312758
 20
779.645423
 42
-0.127383
  0
VERTEX
  8
0
 10
1786.659070
 20
784.526813
 42
-0.056743
  0
VERTEX
  8
0
 10
1786.933462
 20
791.361308
 42
-0.056043
  0
VERTEX
  8
0
 10
1788.776719
 20
798.141077
 42
-0.102348
  0
VERTEX
  8
0
 10
1791.912351
 20
802.912351
 42
-0.076738
  0
VERTEX
  8
0
 10
1794.046904
 20
804.475961
 42
-0.148604
  0
VERTEX
  8
0
 10
1796.107626
 20
804.859467
 42
-0.133775
  0
VERTEX
  8
0
 10
1798.184005
 20
804.037296
 42
-0.057136
  0
SEQEND
  0
ENDSEC
  0
EOF
